<svg width="56" height="56" viewBox="0 0 56 56" fill="none" xmlns="http://www.w3.org/2000/svg">
<path d="M37.4526 15.2932C37.3211 15.2935 37.1919 15.2586 37.0785 15.192C33.9581 13.5213 31.2602 12.8126 28.0258 12.8126C24.8076 12.8126 21.7518 13.6057 18.9724 15.192C18.5793 15.4141 18.0949 15.2595 17.8671 14.8516C17.7654 14.6548 17.7424 14.4267 17.8029 14.2135C17.8634 14.0004 18.0027 13.8183 18.1926 13.7041C21.1903 12.004 24.5796 11.115 28.0258 11.1251C31.4873 11.1251 34.5107 11.9182 37.8267 13.6901C38.0201 13.7965 38.1642 13.9744 38.2279 14.1858C38.2917 14.3972 38.2701 14.6251 38.1677 14.8207C38.1061 14.9596 38.0061 15.0779 37.8793 15.1616C37.7526 15.2454 37.6045 15.291 37.4526 15.2932ZM14.1939 24.1526C14.0251 24.1514 13.8606 24.0984 13.7228 24.0007C13.5436 23.8675 13.423 23.6699 13.3866 23.4496C13.3501 23.2292 13.4006 23.0033 13.5274 22.8195C15.1368 20.457 17.1836 18.6007 19.6228 17.3013C24.726 14.5704 31.2602 14.5507 36.3796 17.2845C38.8181 18.5838 40.8656 20.4232 42.475 22.7688C42.6013 22.9529 42.6515 23.1786 42.615 23.3988C42.5786 23.619 42.4584 23.8165 42.2796 23.9501C42.1928 24.0149 42.0937 24.0613 41.9883 24.0863C41.8829 24.1113 41.7735 24.1144 41.6668 24.0954C41.5602 24.0764 41.4586 24.0357 41.3683 23.9759C41.278 23.9161 41.201 23.8384 41.1419 23.7476C39.6794 21.6213 37.8267 19.9507 35.6322 18.7863C30.9677 16.3057 25.0024 16.3057 20.354 18.8032C18.1434 19.9845 16.2907 21.672 14.8282 23.7954C14.7651 23.9071 14.6727 23.9995 14.5609 24.0624C14.4491 24.1254 14.3222 24.1566 14.1939 24.1526ZM24.352 44.5235C24.2446 44.5246 24.1382 44.5025 24.04 44.4588C23.9419 44.4151 23.8543 44.3509 23.7832 44.2704C22.3692 42.7995 21.6028 41.8516 20.5164 39.8126C19.3914 37.737 18.81 35.2057 18.81 32.4888C18.81 27.477 22.938 23.3932 28.0096 23.3932C33.0813 23.3932 37.2121 27.477 37.2121 32.4888C37.2153 32.5975 37.1967 32.7058 37.1573 32.8071C37.1179 32.9085 37.0586 33.0009 36.9828 33.079C36.9071 33.157 36.8164 33.219 36.7162 33.2614C36.6161 33.3037 36.5084 33.3256 36.3997 33.3256C36.2909 33.3256 36.1833 33.3037 36.0831 33.2614C35.983 33.219 35.8923 33.157 35.8165 33.079C35.7408 33.0009 35.6815 32.9085 35.6421 32.8071C35.6027 32.7058 35.584 32.5975 35.5872 32.4888C35.5872 28.4051 32.1897 25.0807 28.0132 25.0807C23.8366 25.0807 20.4356 28.4051 20.4356 32.4888C20.4356 34.9188 20.9552 37.1632 21.9466 38.9857C22.9872 40.9263 23.7044 41.7532 24.9539 43.0695C25.102 43.2332 25.1841 43.4462 25.1841 43.6671C25.1841 43.888 25.102 44.101 24.9539 44.2648C24.7943 44.4257 24.5786 44.5185 24.352 44.5235ZM36.0063 41.4016C34.072 41.4016 32.3655 40.8954 30.9677 39.8998C29.7768 39.065 28.8039 37.9564 28.1309 36.6672C27.4579 35.378 27.1045 33.9459 27.1005 32.4916C27.0959 32.3821 27.1136 32.2727 27.1524 32.1701C27.1912 32.0675 27.2503 31.9738 27.3262 31.8947C27.4022 31.8155 27.4933 31.7525 27.5942 31.7095C27.6951 31.6665 27.8036 31.6443 27.9133 31.6443C28.023 31.6443 28.1315 31.6665 28.2324 31.7095C28.3333 31.7525 28.4245 31.8155 28.5004 31.8947C28.5763 31.9738 28.6355 32.0675 28.6742 32.1701C28.713 32.2727 28.7307 32.3821 28.7261 32.4916C28.7289 33.6729 29.0169 34.836 29.5659 35.882C30.1148 36.928 30.9084 37.8258 31.8789 38.4991C33.0328 39.3091 34.3821 39.6945 36.0077 39.6945C36.5739 39.6844 37.1382 39.628 37.6952 39.5257C38.1339 39.4413 38.5565 39.7451 38.6374 40.2176C38.6786 40.4356 38.6316 40.6611 38.5068 40.8446C38.382 41.0281 38.1895 41.1546 37.9715 41.1963C37.3241 41.3243 36.6662 41.392 36.0063 41.3988V41.4016ZM32.7389 44.8751C32.6675 44.8721 32.5967 44.8608 32.5279 44.8413C29.9432 44.0988 28.2529 43.1032 26.481 41.2976C24.205 38.952 22.9542 35.8301 22.9542 32.4888C22.9542 29.7551 25.1971 27.5276 27.9597 27.5276C30.7223 27.5276 32.966 29.7551 32.966 32.4888C32.966 34.2945 34.4777 35.7626 36.3466 35.7626C38.2155 35.7626 39.7272 34.2945 39.7272 32.4888C39.7272 26.127 34.4446 20.9632 27.9435 20.9632C23.3275 20.9632 19.1017 23.6295 17.2005 27.7638C16.5677 29.1307 16.2414 30.7338 16.2414 32.4888C16.2414 33.8051 16.3546 35.8807 17.3299 38.5807C17.493 39.0195 17.2814 39.5088 16.8588 39.6607C16.7584 39.699 16.6512 39.7165 16.5438 39.7123C16.4365 39.7081 16.331 39.6822 16.2339 39.6363C16.1368 39.5903 16.0499 39.5252 15.9786 39.4448C15.9073 39.3644 15.8529 39.2704 15.8189 39.1685C15.0346 37.0288 14.6329 34.7678 14.632 32.4888C14.632 30.4638 15.006 28.6216 15.7373 27.0213C17.8994 22.3104 22.694 19.2588 27.9435 19.2588C35.339 19.2588 41.3528 25.182 41.3528 32.472C41.3528 35.2057 39.1099 37.4332 36.3466 37.4332C33.5833 37.4332 31.3403 35.2057 31.3403 32.472C31.341 30.6663 29.8293 29.1954 27.9604 29.1954C26.0915 29.1954 24.5798 30.6635 24.5798 32.4691C24.5798 35.352 25.6528 38.0548 27.6194 40.0798C29.1663 41.666 30.6428 42.5407 32.9343 43.2016C33.3731 43.3198 33.6171 43.7923 33.5032 44.231C33.4677 44.4091 33.3727 44.5699 33.2338 44.6869C33.0949 44.8039 32.9204 44.8703 32.7389 44.8751Z" fill="#0066B2"/>
</svg>
