<svg width="40" height="40" viewBox="0 0 40 40" fill="none" xmlns="http://www.w3.org/2000/svg">
<path d="M30 14.25V19.35C30 20.62 29.58 21.69 28.83 22.43C28.09 23.18 27.02 23.6 25.75 23.6V25.41C25.75 26.09 24.99 26.5 24.43 26.12L23.46 25.48C23.55 25.17 23.59 24.83 23.59 24.47V20.4C23.59 18.36 22.23 17 20.19 17H13.4C13.26 17 13.13 17.01 13 17.02V14.25C13 11.7 14.7 10 17.25 10H25.75C28.3 10 30 11.7 30 14.25Z" stroke="#1E293B" stroke-width="1.5" stroke-miterlimit="10" stroke-linecap="round" stroke-linejoin="round"/>
<path d="M23.59 20.4V24.47C23.59 24.83 23.55 25.17 23.46 25.48C23.09 26.95 21.87 27.87 20.19 27.87H17.47L14.45 29.88C14 30.19 13.4 29.86 13.4 29.32V27.87C12.38 27.87 11.53 27.53 10.94 26.94C10.34 26.34 10 25.49 10 24.47V20.4C10 18.5 11.18 17.19 13 17.02C13.13 17.01 13.26 17 13.4 17H20.19C22.23 17 23.59 18.36 23.59 20.4Z" stroke="#1E293B" stroke-width="1.5" stroke-miterlimit="10" stroke-linecap="round" stroke-linejoin="round"/>
</svg>
