<svg width="25" height="24" viewBox="0 0 25 24" fill="none" xmlns="http://www.w3.org/2000/svg">
<path d="M5.73687 11.4253C5.62607 11.2332 5.47853 11.0649 5.30266 10.9298C5.12679 10.7948 4.92605 10.6957 4.7119 10.6383C4.49774 10.5808 4.27437 10.5661 4.05453 10.595C3.83469 10.6238 3.62268 10.6957 3.43062 10.8065C3.23857 10.9173 3.07021 11.0649 2.93518 11.2407C2.80014 11.4166 2.70107 11.6173 2.64361 11.8315C2.58615 12.0457 2.57144 12.269 2.60031 12.4889C2.62918 12.7087 2.70107 12.9207 2.81187 13.1128L6.28062 19.1222C7.18491 20.6542 8.65742 21.7673 10.378 22.2194C12.0986 22.6715 13.9281 22.4262 15.4687 21.5366C17.0093 20.6471 18.1365 19.1853 18.6051 17.4692C19.0738 15.753 18.846 13.9212 17.9713 12.3722L16.3775 9.60653C16.14 9.24832 15.7747 8.99424 15.3563 8.89613C14.9379 8.79801 14.4977 8.86326 14.1258 9.07855C13.7538 9.29385 13.478 9.64296 13.3546 10.0547C13.2312 10.4664 13.2696 10.9096 13.4619 11.294" stroke="black" stroke-width="1.5" stroke-linecap="round" stroke-linejoin="round"/>
<path d="M10.9166 13.6384L7.35406 7.46969C7.24326 7.27763 7.09571 7.10928 6.91985 6.97424C6.74398 6.8392 6.54324 6.74013 6.32908 6.68267C6.11493 6.62522 5.89155 6.6105 5.67171 6.63937C5.45187 6.66825 5.23987 6.74013 5.04781 6.85094C4.85575 6.96174 4.6874 7.10929 4.55236 7.28515C4.41733 7.46102 4.31825 7.66176 4.2608 7.87591C4.20334 8.09007 4.18863 8.31344 4.2175 8.53329C4.24637 8.75313 4.31826 8.96513 4.42906 9.15719L7.99156 15.3259" stroke="black" stroke-width="1.5" stroke-linecap="round" stroke-linejoin="round"/>
<path d="M14.9634 13.9041L11.0259 7.07907C10.8022 6.69119 10.4335 6.40809 10.001 6.29205C9.56846 6.17601 9.10757 6.23654 8.71969 6.46032C8.33181 6.68409 8.04871 7.05279 7.93268 7.48529C7.81664 7.9178 7.87717 8.37869 8.10094 8.76657" stroke="black" stroke-width="1.5" stroke-linecap="round" stroke-linejoin="round"/>
<path d="M10.1634 6.34313L9.19782 4.665C8.97404 4.27712 8.60534 3.99403 8.17284 3.87799C7.74033 3.76195 7.27945 3.82248 6.89157 4.04625C6.50369 4.27003 6.22059 4.63873 6.10455 5.07123C5.98851 5.50374 6.04904 5.96463 6.27282 6.3525L6.49782 6.73688" stroke="black" stroke-width="1.5" stroke-linecap="round" stroke-linejoin="round"/>
<path d="M18.5087 17.9509C19.653 16.9148 20.4081 15.5183 20.6486 13.9936C20.889 12.4688 20.6004 10.9077 19.8306 9.56969L18.2369 6.81344C18.1261 6.62138 17.9785 6.45303 17.8027 6.31799C17.6268 6.18295 17.4261 6.08388 17.2119 6.02642C16.9977 5.96897 16.7744 5.95425 16.5545 5.98312C16.3347 6.012 16.1227 6.08388 15.9306 6.19469C15.7386 6.30549 15.5702 6.45304 15.4352 6.6289C15.3001 6.80477 15.2011 7.00551 15.1436 7.21967C15.0862 7.43382 15.0714 7.65719 15.1003 7.87704C15.1292 8.09688 15.2011 8.30888 15.3119 8.50094" stroke="black" stroke-width="1.5" stroke-linecap="round" stroke-linejoin="round"/>
<path d="M15.5228 8.87594L12.8697 4.28219C12.6459 3.89431 12.2772 3.61121 11.8447 3.49518C11.4122 3.37914 10.9513 3.43967 10.5634 3.66344C10.1756 3.88722 9.89246 4.25591 9.77643 4.68842C9.66039 5.12093 9.72091 5.58181 9.94469 5.96969" stroke="black" stroke-width="1.5" stroke-linecap="round" stroke-linejoin="round"/>
<path d="M17.4547 1.0625L17.0703 2.50625" stroke="black" stroke-width="1.5" stroke-linecap="round" stroke-linejoin="round"/>
<path d="M20.3 2.38281L19.4375 3.61094" stroke="black" stroke-width="1.5" stroke-linecap="round" stroke-linejoin="round"/>
<path d="M22.5016 4.58594L21.2734 5.44844" stroke="black" stroke-width="1.5" stroke-linecap="round" stroke-linejoin="round"/>
</svg>
