<svg width="25" height="24" viewBox="0 0 25 24" fill="none" xmlns="http://www.w3.org/2000/svg">
<path fill-rule="evenodd" clip-rule="evenodd" d="M24.02 12.267C24.02 11.4161 23.9436 10.598 23.8018 9.8125H12.5V14.4543H18.9582C18.68 15.9543 17.8345 17.2252 16.5636 18.0761V21.087H20.4418C22.7109 18.998 24.02 15.9216 24.02 12.267Z" fill="#4285F4"/>
<path fill-rule="evenodd" clip-rule="evenodd" d="M12.5049 24.0013C15.7449 24.0013 18.4613 22.9267 20.4467 21.094L16.5685 18.0831C15.494 18.8031 14.1194 19.2285 12.5049 19.2285C9.37943 19.2285 6.73398 17.1176 5.79034 14.2812H1.78125V17.3903C3.7558 21.3122 7.81398 24.0013 12.5049 24.0013Z" fill="#34A853"/>
<path fill-rule="evenodd" clip-rule="evenodd" d="M5.78545 14.2785C5.54545 13.5585 5.40909 12.7894 5.40909 11.9985C5.40909 11.2076 5.54545 10.4385 5.78545 9.71847V6.60938H1.77636C0.963636 8.22938 0.5 10.0621 0.5 11.9985C0.5 13.9348 0.963636 15.7676 1.77636 17.3876L5.78545 14.2785Z" fill="#FBBC05"/>
<path fill-rule="evenodd" clip-rule="evenodd" d="M12.5049 4.77273C14.2667 4.77273 15.8485 5.37818 17.0922 6.56727L20.534 3.12545C18.4558 1.18909 15.7394 0 12.5049 0C7.81398 0 3.7558 2.68909 1.78125 6.61091L5.79034 9.72C6.73398 6.88364 9.37943 4.77273 12.5049 4.77273Z" fill="#EA4335"/>
</svg>
