<svg width="24" height="24" viewBox="0 0 24 24" fill="none" xmlns="http://www.w3.org/2000/svg">
<path d="M12.4099 19.8672L19.9278 12.2735C21.7748 10.3985 22.044 7.33284 20.2991 5.37347C19.8615 4.8797 19.3288 4.48123 18.7336 4.20242C18.1384 3.92361 17.4931 3.77031 16.8373 3.75188C16.1815 3.73346 15.5288 3.8503 14.9191 4.09526C14.3095 4.34022 13.7557 4.70816 13.2916 5.17659L11.8808 6.61097L10.665 5.37347C8.80868 3.50784 5.77365 3.23597 3.83383 4.99847C3.34499 5.44049 2.9505 5.97854 2.67447 6.57975C2.39844 7.18096 2.24667 7.83271 2.22843 8.49517C2.21019 9.15762 2.32586 9.81688 2.56837 10.4327C2.81089 11.0484 3.17516 11.6078 3.63892 12.0766L11.3518 19.8672C11.4926 20.0081 11.6827 20.0871 11.8808 20.0871C12.079 20.0871 12.2691 20.0081 12.4099 19.8672V19.8672Z" stroke="#AEAEAE" stroke-width="1.5" stroke-linecap="round" stroke-linejoin="round"/>
</svg>
