<svg width="24" height="24" viewBox="0 0 24 24" fill="none" xmlns="http://www.w3.org/2000/svg">
<path opacity="0.2" d="M11.883 20.25C11.883 20.25 2.60156 15 2.60156 8.62501C2.60156 7.49803 2.98813 6.40585 3.69549 5.53431C4.40286 4.66277 5.38732 4.0657 6.48139 3.84468C7.57545 3.62366 8.71154 3.79235 9.69635 4.32204C10.6812 4.85174 11.4539 5.70972 11.883 6.75001C12.3121 5.70972 13.0848 4.85174 14.0696 4.32204C15.0545 3.79235 16.1905 3.62366 17.2846 3.84468C18.3787 4.0657 19.3631 4.66277 20.0705 5.53431C20.7779 6.40585 21.1644 7.49803 21.1644 8.62501C21.1644 15 11.883 20.25 11.883 20.25Z" fill="#DA2C38"/>
<path d="M11.883 20.25C11.883 20.25 2.60156 15 2.60156 8.62501C2.60156 7.49803 2.98813 6.40585 3.69549 5.53431C4.40286 4.66277 5.38732 4.0657 6.48139 3.84468C7.57545 3.62366 8.71154 3.79235 9.69635 4.32204C10.6812 4.85174 11.4539 5.70972 11.883 6.75001C12.3121 5.70972 13.0848 4.85174 14.0696 4.32204C15.0545 3.79235 16.1905 3.62366 17.2846 3.84468C18.3787 4.0657 19.3631 4.66277 20.0705 5.53431C20.7779 6.40585 21.1644 7.49803 21.1644 8.62501C21.1644 15 11.883 20.25 11.883 20.25Z" fill="#DA2C38" stroke="#DA2C38" stroke-width="1.5" stroke-linecap="round" stroke-linejoin="round"/>
</svg>
