<svg width="20" height="23" viewBox="0 0 20 23" fill="none" xmlns="http://www.w3.org/2000/svg">
<path fill-rule="evenodd" clip-rule="evenodd" d="M6.1777 9.72991C6.8799 4.24389 11.6438 2.6032 13.5284 7.15751C13.6714 7.50077 14.0214 7.72144 14.4056 7.72144H17.7715C18.4331 7.72144 18.6764 7.08599 18.4502 6.48938C13.9489 -4.56438 0.289039 -0.682278 0.502473 11.9856C1.35621 26.901 19.7116 26.901 19.4982 10.5594H11.7307V9.7948C11.7307 9.56557 11.5091 9.39525 11.2753 9.44486L9.21598 9.88185C9.04457 9.91822 8.92259 10.0637 8.92259 10.2318V10.5594H7.12535C6.59177 10.5594 6.11794 10.1815 6.17557 9.73195L6.1777 9.72991ZM10.1519 19.3452C11.2703 19.4903 10.9928 18.2828 10.9821 17.7168C12.3438 17.1488 11.7761 15.2711 10.2586 15.3222C8.73678 15.2731 8.18399 17.1508 9.53503 17.7188C9.54783 18.1949 9.24049 19.3412 10.1519 19.3452Z" fill="#0072D9"/>
</svg>
