<svg width="20" height="23" viewBox="0 0 20 23" fill="none" xmlns="http://www.w3.org/2000/svg">
<path d="M11.2307 10.5594V11.0594H11.7307H18.9989C18.9593 14.8012 17.9016 17.5809 16.3545 19.4556C14.7407 21.4112 12.5727 22.4106 10.3814 22.4943C6.0313 22.6604 1.41992 19.1927 1.00224 11.9671C0.902401 5.82667 4.15012 1.91918 7.85052 0.821222C11.5269 -0.269608 15.8192 1.36136 17.9846 6.67171C18.0567 6.86547 18.037 7.02368 17.9955 7.10778C17.9761 7.14693 17.9526 7.17093 17.927 7.18662C17.9017 7.20214 17.8549 7.22144 17.7715 7.22144H14.4056C14.2079 7.22144 14.0498 7.10836 13.9901 6.96562C13.4875 5.75144 12.7713 4.89837 11.9261 4.42941C11.0738 3.95652 10.1312 3.89829 9.2454 4.20633C7.52711 4.8039 6.10757 6.72738 5.70596 9.48932L5.70211 9.493L5.67963 9.66837C5.62425 10.1003 5.83164 10.4638 6.10565 10.6958C6.37787 10.9263 6.74555 11.0594 7.12535 11.0594H8.92259H9.42259V10.5594V10.3491L11.2307 9.96545V10.5594ZM9.29409 19.4828C9.49938 19.7209 9.78822 19.8364 10.1175 19.8448C10.4683 19.8851 10.7985 19.8305 11.0613 19.6267C11.3254 19.4219 11.4344 19.133 11.4812 18.8933C11.5278 18.6539 11.524 18.4044 11.5135 18.2041C11.5094 18.1274 11.505 18.063 11.5008 18.0063C11.7801 17.8236 11.987 17.5813 12.1131 17.3006C12.2817 16.9251 12.2908 16.5136 12.1787 16.1427C11.9542 15.3999 11.2393 14.7959 10.2582 14.822C9.275 14.7972 8.56252 15.4022 8.34039 16.1461C8.14167 16.8116 8.3465 17.5691 9.01974 18.0098C9.01671 18.0479 9.01341 18.09 9.00998 18.1367C8.99694 18.3149 8.98475 18.5422 9.00957 18.7645C9.03386 18.9821 9.0997 19.2573 9.29409 19.4828Z" stroke="#888888"/>
</svg>
