<svg width="24" height="24" viewBox="0 0 24 24" fill="none" xmlns="http://www.w3.org/2000/svg">
<path d="M11.9922 6.75C13.4419 6.75 14.6172 5.57475 14.6172 4.125C14.6172 2.67525 13.4419 1.5 11.9922 1.5C10.5424 1.5 9.36719 2.67525 9.36719 4.125C9.36719 5.57475 10.5424 6.75 11.9922 6.75Z" fill="#0072D9" stroke="#0072D9" stroke-linecap="round" stroke-linejoin="round"/>
<path d="M14.4267 12.6281L17.6892 15.1594C17.9048 15.3389 18.1798 15.4313 18.4602 15.4186C18.7405 15.4058 19.0059 15.2886 19.2044 15.0902C19.4028 14.8918 19.5199 14.6264 19.5327 14.346C19.5455 14.0657 19.4531 13.7907 19.2735 13.575L15.561 8.80313C15.388 8.62836 15.1822 8.48952 14.9553 8.39459C14.7285 8.29966 14.4851 8.25053 14.2392 8.25H9.73916C9.24005 8.25267 8.76196 8.45131 8.40791 8.80313L4.69541 13.575C4.50211 13.7896 4.39873 14.0703 4.40668 14.359C4.41462 14.6476 4.53329 14.9222 4.73811 15.1258C4.94292 15.3294 5.21819 15.4465 5.50693 15.4527C5.79566 15.459 6.07574 15.3539 6.28916 15.1594L9.55166 12.6281L6.94541 20.8406C6.88262 20.9748 6.84688 21.1201 6.84023 21.2681C6.83357 21.4161 6.85614 21.564 6.90663 21.7032C6.95712 21.8425 7.03455 21.9705 7.1345 22.0799C7.23445 22.1892 7.35497 22.2778 7.48916 22.3406C7.62336 22.4034 7.76861 22.4392 7.91661 22.4458C8.06462 22.4525 8.21249 22.4299 8.35178 22.3794C8.49107 22.3289 8.61904 22.2515 8.72841 22.1515C8.83777 22.0516 8.92637 21.9311 8.98916 21.7969L11.9892 17.0719L14.9892 21.7969C15.0478 21.9369 15.1341 22.0637 15.243 22.1695C15.3519 22.2753 15.481 22.3579 15.6227 22.4125C15.7644 22.467 15.9157 22.4924 16.0674 22.4869C16.2191 22.4815 16.3681 22.4453 16.5055 22.3808C16.6429 22.3162 16.7658 22.2245 16.8669 22.1111C16.9679 21.9978 17.0449 21.8652 17.0933 21.7213C17.1417 21.5774 17.1605 21.4252 17.1485 21.2738C17.1365 21.1225 17.094 20.9751 17.0235 20.8406L14.4267 12.6281Z" fill="#0072D9" stroke="#0072D9" stroke-linecap="round" stroke-linejoin="round"/>
</svg>
