<svg width="98" height="21" viewBox="0 0 98 21" fill="none" xmlns="http://www.w3.org/2000/svg">
<path fill-rule="evenodd" clip-rule="evenodd" d="M87.6571 10.1349C88.2021 5.67152 91.8999 4.33668 93.3628 8.042C93.4738 8.32127 93.7454 8.5008 94.0437 8.5008H96.6563C97.1698 8.5008 97.3587 7.98381 97.1831 7.49841C93.6891 -1.49476 83.0862 1.66366 83.2519 11.9701C83.9146 24.105 98.1622 24.105 97.9965 10.8098H91.9674V10.1877C91.9674 10.0012 91.7953 9.86259 91.6139 9.90295L90.0154 10.2585C89.8824 10.2881 89.7877 10.4065 89.7877 10.5432V10.8098H88.3927C87.9785 10.8098 87.6107 10.5022 87.6554 10.1365L87.6571 10.1349ZM90.7419 17.9578C91.61 18.0758 91.3946 17.0934 91.3863 16.6329C92.4433 16.1708 92.0026 14.6431 90.8247 14.6847C89.6435 14.6448 89.2144 16.1724 90.2631 16.6346C90.273 17.0219 90.0344 17.9544 90.7419 17.9578Z" fill="black"/>
<path d="M16.2894 20.7895L13.1939 7.26421L10.0635 20.7895H5.91346L0 0.0234375H4.61627L8.01623 13.4457L10.885 0.0234375H15.4378L18.5888 13.4457L21.957 0.0234375H26.3862L20.4378 20.7895H16.2878H16.2894Z" fill="black"/>
<path d="M37.2617 20.9482V11.8378C37.2617 9.54947 36.4815 8.83904 34.6403 8.83904C32.6121 8.83904 31.4878 10.5089 31.4878 12.5482V20.9482H27.4297V0.015625H31.4878V8.03503C32.0808 6.67441 33.9537 5.65474 36.0136 5.65474C39.1662 5.65474 41.3515 7.47842 41.3515 10.5089V20.9482H37.2633H37.2617Z" fill="black"/>
<path d="M43.2266 3.81068V0H47.291V3.81068H43.2266ZM43.2266 20.9326V5.66925H47.291V20.9326H43.2266Z" fill="black"/>
<path d="M58.3655 10.3312C58.1466 8.9452 57.3347 8.45519 55.4936 8.45519C53.9649 8.45519 53.0911 8.80089 53.0911 9.6382C53.0911 10.4755 53.9331 10.8212 55.5871 11.2541C57.3347 11.7156 58.9887 12.0328 60.1749 12.4657C61.7971 13.0715 62.7026 14.0531 62.7026 15.9005C62.7026 18.8438 60.362 20.8784 55.9915 20.8784C51.2944 20.8784 48.6413 18.3728 48.5938 16.2177L52.7755 15.669C52.7755 16.9963 53.9934 17.7765 55.9582 17.7765C57.3934 17.7765 58.6731 17.3722 58.6731 16.3049C58.6731 15.2948 57.5187 14.9776 56.2072 14.689C53.616 14.1117 52.1808 13.7074 51.0882 13.073C49.6531 12.2357 49.1535 11.14 49.1535 9.86972C49.1535 7.47358 50.9328 5.65625 55.6141 5.65625C60.0464 5.65625 62.0429 7.27218 62.2618 10.3312H58.3607H58.3655Z" fill="black"/>
<path d="M72.3717 10.8115H76.1491V14.546C76.1491 17.7922 74.2763 20.8528 69.9375 20.8528C65.5987 20.8528 63.6641 17.8223 63.6641 14.5143V0.78125H67.6587V5.5672H76.1475V8.43909H67.6587V14.1099C67.6587 16.0446 68.3453 17.3275 69.9993 17.3275C71.6533 17.3275 72.3717 16.0763 72.3717 14.1718V10.8115Z" fill="black"/>
<path d="M77.8047 20.9168V0.101562H81.8628V20.9168H77.8047Z" fill="black"/>
</svg>
