<svg width="121" height="78" viewBox="0 0 121 78" fill="none" xmlns="http://www.w3.org/2000/svg">
<path fill-rule="evenodd" clip-rule="evenodd" d="M26.0556 58.3342H76.6111C76.8971 58.3342 77.176 58.3033 77.4444 58.2447C77.7129 58.3033 77.9917 58.3342 78.2778 58.3342H107.167C109.314 58.3342 111.056 56.5931 111.056 54.4453C111.056 52.2975 109.314 50.5564 107.167 50.5564H103.833C101.686 50.5564 99.9444 48.8153 99.9444 46.6675C99.9444 44.5198 101.686 42.7786 103.833 42.7786H114.389C116.537 42.7786 118.278 41.0375 118.278 38.8898C118.278 36.742 116.537 35.0009 114.389 35.0009H102.167C104.314 35.0009 106.056 33.2598 106.056 31.112C106.056 28.9642 104.314 27.2231 102.167 27.2231H66.6111C68.7589 27.2231 70.5 25.482 70.5 23.3342C70.5 21.1864 68.7589 19.4453 66.6111 19.4453H34.9444C32.7967 19.4453 31.0556 21.1864 31.0556 23.3342C31.0556 25.482 32.7967 27.2231 34.9444 27.2231H12.7222C10.5744 27.2231 8.83333 28.9642 8.83333 31.112C8.83333 33.2598 10.5744 35.0009 12.7222 35.0009H26.6111C28.7589 35.0009 30.5 36.742 30.5 38.8898C30.5 41.0375 28.7589 42.7786 26.6111 42.7786H4.38889C2.24111 42.7786 0.5 44.5198 0.5 46.6675C0.5 48.8153 2.24111 50.5564 4.38889 50.5564H26.0556C23.9078 50.5564 22.1667 52.2975 22.1667 54.4453C22.1667 56.5931 23.9078 58.3342 26.0556 58.3342ZM116.611 58.3342C118.759 58.3342 120.5 56.5931 120.5 54.4453C120.5 52.2975 118.759 50.5564 116.611 50.5564C114.463 50.5564 112.722 52.2975 112.722 54.4453C112.722 56.5931 114.463 58.3342 116.611 58.3342Z" fill="#F6F6F6"/>
<path fill-rule="evenodd" clip-rule="evenodd" d="M72.894 17.9506L78.5235 58.5648L79.0296 62.6394C79.1927 63.952 78.2552 65.146 76.9358 65.3061L41.6973 69.5832C40.3779 69.7433 39.1761 68.809 39.013 67.4964L33.553 23.5393C33.4715 22.883 33.9402 22.286 34.6 22.206C34.6041 22.2054 34.6083 22.205 34.6125 22.2045L37.536 21.8805M39.9076 21.6446L42.6697 21.3382L39.9076 21.6446Z" fill="#FEFEFE"/>
<path d="M73.582 17.8564C73.5293 17.4765 73.1786 17.2107 72.7986 17.2627C72.4186 17.3148 72.1533 17.665 72.206 18.0449L73.582 17.8564ZM78.5235 58.5648L79.2129 58.4803L79.2115 58.4706L78.5235 58.5648ZM79.0296 62.6394L78.3403 62.7239L79.0296 62.6394ZM76.9358 65.3061L77.0206 65.9954L76.9358 65.3061ZM41.6973 69.5832L41.6125 68.8939L41.6973 69.5832ZM39.013 67.4964L39.7023 67.4119L39.013 67.4964ZM33.553 23.5393L32.8638 23.6238L33.553 23.5393ZM34.6125 22.2045L34.6901 22.8946L34.6125 22.2045ZM37.6136 22.5706C37.9948 22.5284 38.2691 22.1852 38.2262 21.804C38.1834 21.4229 37.8396 21.1482 37.4584 21.1904L37.6136 22.5706ZM39.8299 20.9545C39.4487 20.9968 39.1745 21.34 39.2174 21.7211C39.2603 22.1023 39.6041 22.3769 39.9853 22.3347L39.8299 20.9545ZM42.7473 22.0282C43.1285 21.986 43.4028 21.6427 43.3599 21.2616C43.317 20.8805 42.9732 20.6058 42.592 20.6481L42.7473 22.0282ZM72.206 18.0449L77.8355 58.6591L79.2115 58.4706L73.582 17.8564L72.206 18.0449ZM77.8342 58.6494L78.3403 62.7239L79.7189 62.5549L79.2128 58.4803L77.8342 58.6494ZM78.3403 62.7239C78.4557 63.6525 77.7925 64.5026 76.851 64.6169L77.0206 65.9954C78.7179 65.7894 79.9297 64.2516 79.7189 62.5549L78.3403 62.7239ZM76.851 64.6169L41.6125 68.8939L41.7821 70.2724L77.0206 65.9954L76.851 64.6169ZM41.6125 68.8939C40.6704 69.0083 39.8177 68.3411 39.7023 67.4119L38.3237 67.5809C38.5344 69.2769 40.0853 70.4783 41.7821 70.2724L41.6125 68.8939ZM39.7023 67.4119L34.2423 23.4548L32.8638 23.6238L38.3237 67.5809L39.7023 67.4119ZM34.2423 23.4548C34.2085 23.1826 34.4029 22.9294 34.6847 22.8952L34.5152 21.5167C33.4776 21.6426 32.7345 22.5834 32.8638 23.6238L34.2423 23.4548ZM34.6847 22.8952C34.6865 22.895 34.6883 22.8948 34.6901 22.8946L34.5349 21.5144C34.5283 21.5151 34.5218 21.5159 34.5152 21.5167L34.6847 22.8952ZM34.6901 22.8946L37.6136 22.5706L37.4584 21.1904L34.5349 21.5144L34.6901 22.8946ZM39.9853 22.3347L42.7473 22.0282L42.592 20.6481L39.8299 20.9545L39.9853 22.3347Z" fill="#888888"/>
<path fill-rule="evenodd" clip-rule="evenodd" d="M71.4013 20.5029L76.4719 57.288L76.928 60.9784C77.0749 62.1673 76.2354 63.248 75.0528 63.3923L43.4701 67.2447C42.2876 67.3889 41.2098 66.5421 41.0629 65.3532L36.1441 25.5558C36.0688 24.9468 36.5016 24.3929 37.1107 24.3186L41.1104 23.8307" fill="#E7E7E7"/>
<path d="M45.3116 11.8003C45.3116 10.9566 45.9956 10.2726 46.8394 10.2726H74.5439C74.9472 10.2726 75.3341 10.432 75.6203 10.7162L76.0996 10.2334L75.6203 10.7162L83.8215 18.8585C84.1104 19.1454 84.2729 19.5356 84.2729 19.9427V57.6123C84.2729 58.4561 83.5889 59.1401 82.7451 59.1401H46.8394C45.9956 59.1401 45.3116 58.4561 45.3116 57.6123V11.8003Z" fill="#FEFEFE" stroke="#888888" stroke-width="1.38889"/>
<path d="M74.7344 11.0078V17.9463C74.7344 18.9376 75.5433 19.7412 76.5411 19.7412H81.319" stroke="#888888" stroke-width="1.38889" stroke-linecap="round" stroke-linejoin="round"/>
<path d="M51.4453 50.255H67.1036M51.4453 19.7422H67.1036H51.4453ZM51.4453 26.9217H77.3417H51.4453ZM51.4453 34.6995H77.3417H51.4453ZM51.4453 42.4772H77.3417H51.4453Z" stroke="#888888" stroke-width="1.38889" stroke-linecap="round" stroke-linejoin="round"/>
</svg>
