<svg width="120" height="78" viewBox="0 0 120 78" fill="none" xmlns="http://www.w3.org/2000/svg">
<path fill-rule="evenodd" clip-rule="evenodd" d="M25.5556 58.3342H76.1111C76.3971 58.3342 76.676 58.3033 76.9444 58.2447C77.2129 58.3033 77.4917 58.3342 77.7778 58.3342H106.667C108.814 58.3342 110.556 56.5931 110.556 54.4453C110.556 52.2975 108.814 50.5564 106.667 50.5564H103.333C101.186 50.5564 99.4444 48.8153 99.4444 46.6675C99.4444 44.5198 101.186 42.7786 103.333 42.7786H113.889C116.037 42.7786 117.778 41.0375 117.778 38.8898C117.778 36.742 116.037 35.0009 113.889 35.0009H101.667C103.814 35.0009 105.556 33.2598 105.556 31.112C105.556 28.9642 103.814 27.2231 101.667 27.2231H66.1111C68.2589 27.2231 70 25.482 70 23.3342C70 21.1864 68.2589 19.4453 66.1111 19.4453H34.4444C32.2967 19.4453 30.5556 21.1864 30.5556 23.3342C30.5556 25.482 32.2967 27.2231 34.4444 27.2231H12.2222C10.0744 27.2231 8.33333 28.9642 8.33333 31.112C8.33333 33.2598 10.0744 35.0009 12.2222 35.0009H26.1111C28.2589 35.0009 30 36.742 30 38.8898C30 41.0375 28.2589 42.7786 26.1111 42.7786H3.88889C1.74111 42.7786 0 44.5198 0 46.6675C0 48.8153 1.74111 50.5564 3.88889 50.5564H25.5556C23.4078 50.5564 21.6667 52.2975 21.6667 54.4453C21.6667 56.5931 23.4078 58.3342 25.5556 58.3342ZM116.111 58.3342C118.259 58.3342 120 56.5931 120 54.4453C120 52.2975 118.259 50.5564 116.111 50.5564C113.963 50.5564 112.222 52.2975 112.222 54.4453C112.222 56.5931 113.963 58.3342 116.111 58.3342Z" fill="#F6F6F6"/>
<path fill-rule="evenodd" clip-rule="evenodd" d="M53.0989 51.7936L53.526 51.7735V59.9397C53.526 60.1245 53.6369 60.2743 53.7737 60.2743H68.6345C68.7713 60.2743 68.8822 60.1245 68.8822 59.9397V31.9457C68.8822 31.2681 68.4756 30.7188 67.974 30.7188H54.4342C53.9326 30.7188 53.526 31.2681 53.526 31.9457V37.7665L53.0989 37.7464C53.0487 37.744 52.9985 37.7429 52.9481 37.7429C50.358 37.7429 48.2422 40.8781 48.2422 44.77C48.2422 48.6619 50.358 51.7971 52.9481 51.7971C52.9985 51.7971 53.0487 51.7959 53.0989 51.7936ZM53.1462 49.1094C53.0805 49.1165 53.0144 49.1201 52.9481 49.1201C51.3848 49.1201 50.1466 47.1543 50.1466 44.77C50.1466 42.3857 51.3848 40.4199 52.9481 40.4199C53.0144 40.4199 53.0805 40.4234 53.1462 40.4306L53.526 40.4717V49.0683L53.1462 49.1094Z" fill="#FEFEFE" stroke="#888888" stroke-width="1.38889" stroke-linejoin="round"/>
<path d="M66.5859 33.125V40.2488M66.5859 42.4583V44.3029V42.4583Z" stroke="#888888" stroke-width="1.38889" stroke-linecap="round" stroke-linejoin="round"/>
<path d="M43.6875 57.1641H45.6575M76.3675 57.1641H77.1908M70.5975 57.1641H75.0201M47.3775 57.1641H52.381" stroke="#888888" stroke-width="1.38889" stroke-linecap="round" stroke-linejoin="round"/>
<path d="M61.1389 13.6094C60.3744 15.248 59.9922 16.6739 59.9922 17.8872C59.9922 20.0479 61.3263 21.0155 61.3263 23.3561C61.3263 24.544 60.8816 25.7235 59.9922 26.8946" stroke="#888888" stroke-width="1.38889" stroke-linecap="round"/>
<path d="M57.7008 17.8906C57.4506 20.0345 58.5608 20.4309 58.5608 22.353C58.5608 23.3285 58.2741 24.304 57.7008 25.2795" stroke="#888888" stroke-width="1.38889" stroke-linecap="round"/>
<path d="M63.0865 16.9062C62.7078 18.2359 62.9206 19.0464 63.0865 19.5235C63.4412 20.5432 64.0052 21.4234 64.0052 22.461C64.0052 23.6662 63.699 24.826 63.0865 25.9405" stroke="#888888" stroke-width="1.38889" stroke-linecap="round"/>
<path d="M54.5469 32.8368C54.5469 32.53 54.7956 32.2813 55.1024 32.2813L60.2802 32.2812V59.1146H55.1024C54.7956 59.1146 54.5469 58.8659 54.5469 58.559V32.8368Z" fill="#E7E7E7"/>
</svg>
