<svg width="26" height="26" viewBox="0 0 26 26" fill="none" xmlns="http://www.w3.org/2000/svg">
<path d="M7.85412 8.35393C8.43128 3.64373 12.3468 2.23506 13.8958 6.14531C14.0133 6.44003 14.301 6.62949 14.6168 6.62949H17.3833C17.9271 6.62949 18.1271 6.08391 17.9411 5.57167C14.2414 -3.9189 3.01411 -0.585792 3.18953 10.2906C3.89124 23.0968 18.9779 23.0968 18.8025 9.06616H8.63302C8.19445 9.06616 7.805 8.74162 7.85237 8.35569L7.85412 8.35393ZM11.803 15.2113C11.8117 15.6973 12.0398 16.734 11.1206 16.6095C10.3715 16.606 10.6241 15.6218 10.6136 15.2131C9.50313 14.7254 9.95748 13.1133 11.2083 13.1554C12.4556 13.1115 12.9222 14.7237 11.803 15.2113Z" fill="#0072D9"/>
<path d="M10.1102 8.78484C10.1102 8.64054 10.2105 8.51562 10.3513 8.48439L12.0439 8.10919C12.2361 8.0666 12.4183 8.21283 12.4183 8.40965V9.10332H10.1102V8.78484Z" fill="#0072D9"/>
<rect x="0.861578" y="10.596" width="10.7876" height="15.4507" rx="2.375" transform="rotate(-30 0.861578 10.596)" fill="#0072D9" stroke="white" stroke-width="1.25"/>
<rect x="7.48658" y="10.8694" width="11.4531" height="15.4507" rx="2.375" transform="rotate(-30 7.48658 10.8694)" fill="#0072D9" stroke="white" stroke-width="1.25"/>
<path d="M12.0042 16.9846C12.531 17.8023 14.0092 19.3278 12.3229 20.0787C11.052 20.8572 10.4424 18.9179 9.99395 18.2333C7.60158 18.5664 6.67161 15.3469 8.83191 14.1086C10.8957 12.7276 13.3837 14.9824 12.0042 16.9846Z" fill="white"/>
</svg>
