<svg width="40" height="40" viewBox="0 0 40 40" fill="none" xmlns="http://www.w3.org/2000/svg">
<path d="M20 22.25C21.2426 22.25 22.25 21.2426 22.25 20C22.25 18.7574 21.2426 17.75 20 17.75C18.7574 17.75 17.75 18.7574 17.75 20C17.75 21.2426 18.7574 22.25 20 22.25Z" stroke="#AEAEAE" stroke-width="1.5" stroke-miterlimit="10"/>
<path d="M20 14.75C21.2426 14.75 22.25 13.7426 22.25 12.5C22.25 11.2574 21.2426 10.25 20 10.25C18.7574 10.25 17.75 11.2574 17.75 12.5C17.75 13.7426 18.7574 14.75 20 14.75Z" stroke="#AEAEAE" stroke-width="1.5" stroke-miterlimit="10"/>
<path d="M20 29.75C21.2426 29.75 22.25 28.7426 22.25 27.5C22.25 26.2574 21.2426 25.25 20 25.25C18.7574 25.25 17.75 26.2574 17.75 27.5C17.75 28.7426 18.7574 29.75 20 29.75Z" stroke="#AEAEAE" stroke-width="1.5" stroke-miterlimit="10"/>
</svg>
