<svg width="24" height="24" viewBox="0 0 24 24" fill="none" xmlns="http://www.w3.org/2000/svg">
<path d="M14.8796 15.3296L12.7046 21.3109C12.6514 21.4544 12.5554 21.5782 12.4297 21.6656C12.304 21.753 12.1546 21.7999 12.0015 21.7999C11.8484 21.7999 11.699 21.753 11.5733 21.6656C11.4476 21.5782 11.3517 21.4544 11.2984 21.3109L9.12339 15.3296C9.0854 15.2265 9.02549 15.1329 8.9478 15.0552C8.87011 14.9775 8.77648 14.9176 8.67339 14.8796L2.69214 12.7046C2.5486 12.6514 2.42481 12.5554 2.3374 12.4297C2.24998 12.304 2.20312 12.1546 2.20312 12.0015C2.20312 11.8484 2.24998 11.699 2.3374 11.5733C2.42481 11.4476 2.5486 11.3517 2.69214 11.2984L8.67339 9.12339C8.77648 9.0854 8.87011 9.02549 8.9478 8.9478C9.02549 8.87011 9.0854 8.77648 9.12339 8.67339L11.2984 2.69214C11.3517 2.5486 11.4476 2.42481 11.5733 2.3374C11.699 2.24998 11.8484 2.20312 12.0015 2.20312C12.1546 2.20312 12.304 2.24998 12.4297 2.3374C12.5554 2.42481 12.6514 2.5486 12.7046 2.69214L14.8796 8.67339C14.9176 8.77648 14.9775 8.87011 15.0552 8.9478C15.1329 9.02549 15.2265 9.0854 15.3296 9.12339L21.3109 11.2984C21.4544 11.3517 21.5782 11.4476 21.6656 11.5733C21.753 11.699 21.7999 11.8484 21.7999 12.0015C21.7999 12.1546 21.753 12.304 21.6656 12.4297C21.5782 12.5554 21.4544 12.6514 21.3109 12.7046L15.3296 14.8796C15.2265 14.9176 15.1329 14.9775 15.0552 15.0552C14.9775 15.1329 14.9176 15.2265 14.8796 15.3296V15.3296Z" stroke="#151515" stroke-width="1.5" stroke-linecap="round" stroke-linejoin="round"/>
</svg>
