<svg width="40" height="40" viewBox="0 0 40 40" fill="none" xmlns="http://www.w3.org/2000/svg">
<path d="M20 18.125C22.0711 18.125 23.75 16.4461 23.75 14.375C23.75 12.3039 22.0711 10.625 20 10.625C17.9289 10.625 16.25 12.3039 16.25 14.375C16.25 16.4461 17.9289 18.125 20 18.125Z" stroke="#151515" stroke-width="1.5" stroke-linecap="round" stroke-linejoin="round"/>
<path d="M25.625 27.875C27.6961 27.875 29.375 26.1961 29.375 24.125C29.375 22.0539 27.6961 20.375 25.625 20.375C23.5539 20.375 21.875 22.0539 21.875 24.125C21.875 26.1961 23.5539 27.875 25.625 27.875Z" stroke="#191C1F" stroke-width="1.5" stroke-linecap="round" stroke-linejoin="round"/>
<path d="M14.375 27.875C16.4461 27.875 18.125 26.1961 18.125 24.125C18.125 22.0539 16.4461 20.375 14.375 20.375C12.3039 20.375 10.625 22.0539 10.625 24.125C10.625 26.1961 12.3039 27.875 14.375 27.875Z" stroke="#191C1F" stroke-width="1.5" stroke-linecap="round" stroke-linejoin="round"/>
</svg>
