<svg width="24" height="24" viewBox="0 0 24 24" fill="none" xmlns="http://www.w3.org/2000/svg">
<path d="M10.4862 2.2325L5.49625 4.1125C4.34625 4.5425 3.40625 5.9025 3.40625 7.1225V14.5525C3.40625 15.7325 4.18625 17.2825 5.13625 17.9925L9.43625 21.2025C10.8462 22.2625 13.1663 22.2625 14.5763 21.2025L18.8762 17.9925C19.8262 17.2825 20.6063 15.7325 20.6063 14.5525V7.1225C20.6063 5.8925 19.6663 4.5325 18.5163 4.1025L13.5262 2.2325C12.6762 1.9225 11.3162 1.9225 10.4862 2.2325Z" stroke="#151515" stroke-width="1.5" stroke-linecap="round" stroke-linejoin="round"/>
<path d="M12 12.5C13.1046 12.5 14 11.6046 14 10.5C14 9.39543 13.1046 8.5 12 8.5C10.8954 8.5 10 9.39543 10 10.5C10 11.6046 10.8954 12.5 12 12.5Z" stroke="#212121" stroke-width="1.5" stroke-miterlimit="10" stroke-linecap="round" stroke-linejoin="round"/>
<path d="M12 12.5V15.5" stroke="#212121" stroke-width="1.5" stroke-miterlimit="10" stroke-linecap="round" stroke-linejoin="round"/>
</svg>
