<svg width="236" height="254" viewBox="0 0 236 254" fill="none" xmlns="http://www.w3.org/2000/svg">
<g clip-path="url(#clip0_743_2956)">
<path d="M42.4916 172.141C7.45856 172.141 7.40122 222.022 42.4916 222.022C77.5246 222.022 77.582 172.141 42.4916 172.141Z" fill="#EBEBEB"/>
<path d="M63.7628 201.762C61.8707 210.315 54.7609 217.777 42.4334 217.777C13.3061 217.777 13.3634 176.391 42.4334 176.391C42.6054 176.391 42.8347 176.391 43.0067 176.391C15.6569 176.907 15.7716 216.112 43.5228 216.112C54.8755 216.112 61.6413 209.568 63.7628 201.762Z" fill="#DBDBDB"/>
<path d="M42.664 181.844C43.1801 181.844 43.5814 182.246 43.5814 182.705V184.082C46.3336 184.312 48.2831 185.116 50.3472 186.493C50.6913 186.723 50.8633 186.952 50.8633 187.297C50.8633 187.756 50.4046 188.158 49.8885 188.158C49.6592 188.158 49.4872 188.1 49.2005 187.928C47.3657 186.551 45.5309 185.862 43.5241 185.69V195.39C49.2578 196.481 51.7233 198.49 51.7233 201.877C51.7233 205.55 48.3404 208.133 43.6388 208.306V211.004C43.6388 211.463 43.2374 211.865 42.7214 211.865C42.2053 211.865 41.804 211.463 41.804 211.004V208.248C38.4784 208.019 35.8409 206.871 33.2607 204.862C32.974 204.632 32.8594 204.46 32.8594 204.115C32.8594 203.656 33.3181 203.254 33.8341 203.254C34.1781 203.254 34.4075 203.369 34.5222 203.484C36.6436 205.263 38.9371 206.354 41.9187 206.641V196.768C36.2423 195.62 33.8914 193.726 33.8914 190.224C33.8914 186.723 37.217 184.025 41.8613 183.968V182.647C41.7466 182.246 42.2053 181.844 42.664 181.844ZM41.8613 195.046V185.575C38.1917 185.632 35.7836 187.641 35.7836 190.167C35.7262 192.52 36.9303 193.955 41.8613 195.046ZM43.5241 197.17V206.756C47.3084 206.698 49.7739 204.689 49.7739 202.049C49.7739 199.638 48.4551 198.203 43.5241 197.17Z" fill="#DBDBDB"/>
<path d="M210.658 126.17C191.278 129.671 196.381 158.372 215.818 154.871C235.198 151.426 230.038 122.669 210.658 126.17Z" fill="#DBDBDB"/>
<path d="M212.489 125.822C194.027 129.151 199.13 157.852 217.65 154.522C236.055 151.251 230.952 122.55 212.489 125.822Z" fill="#EBEBEB"/>
<path d="M226.769 140.863C226.655 145.971 223.673 150.965 217.194 152.113C201.828 154.869 197.585 131.047 212.894 128.292C213.008 128.292 213.066 128.234 213.18 128.234C198.789 131.104 202.917 153.663 217.538 151.023C223.558 149.989 226.425 145.57 226.769 140.863Z" fill="#DBDBDB"/>
<path d="M213.583 131.386C213.87 131.329 214.099 131.501 214.157 131.788L214.329 132.591C215.762 132.477 216.909 132.764 218.113 133.338C218.342 133.452 218.457 133.567 218.457 133.739C218.514 134.026 218.285 134.256 218.056 134.313C217.941 134.313 217.826 134.313 217.654 134.256C216.565 133.625 215.533 133.452 214.443 133.51L215.418 139.135C218.572 139.25 220.063 140.168 220.407 142.12C220.808 144.244 219.26 146.081 216.794 146.597L217.081 148.147C217.138 148.434 216.966 148.664 216.68 148.721C216.393 148.779 216.164 148.606 216.106 148.319L215.82 146.712C214.042 146.884 212.551 146.483 211.003 145.564C210.831 145.449 210.717 145.392 210.717 145.162C210.659 144.875 210.889 144.646 211.118 144.588C211.29 144.531 211.405 144.588 211.519 144.646C212.838 145.507 214.157 145.908 215.762 145.794L214.73 140.111C211.634 139.996 210.201 139.135 209.799 137.126C209.455 135.117 210.946 133.223 213.354 132.764L213.239 132.017C213.125 131.73 213.354 131.443 213.583 131.386ZM214.501 139.078L213.526 133.625C211.577 134.026 210.545 135.404 210.774 136.839C211.061 138.217 211.806 138.906 214.501 139.078ZM215.59 140.168L216.565 145.679C218.572 145.277 219.661 143.899 219.374 142.35C219.145 140.972 218.285 140.283 215.59 140.168Z" fill="#DBDBDB"/>
<path d="M19.8987 11.0759C-3.66689 15.3236 2.58287 50.2809 26.2058 46.0332C49.7714 41.7855 43.5216 6.82824 19.8987 11.0759Z" fill="#DBDBDB"/>
<path d="M22.1321 10.6731C-0.344043 14.6912 5.90572 49.7059 28.3819 45.6304C50.8581 41.6123 44.6657 6.59764 22.1321 10.6731Z" fill="#EBEBEB"/>
<path d="M39.5051 28.9851C39.3904 35.2418 35.7782 41.2689 27.8656 42.7039C9.17371 46.0332 4.01336 16.9882 22.648 13.659C22.7626 13.659 22.8773 13.6016 22.992 13.6016C5.50412 17.103 10.4925 44.5982 28.3243 41.3837C35.6062 40.0635 39.1611 34.6678 39.5051 28.9851Z" fill="#DBDBDB"/>
<path d="M26.6106 17.4463C26.9547 17.5037 27.184 17.7907 27.1267 18.0777L27.012 19.0535C28.7894 19.3979 29.9935 20.1441 31.1976 21.2922C31.3696 21.4644 31.4843 21.6366 31.4843 21.9236C31.427 22.268 31.1403 22.4976 30.7963 22.4402C30.6242 22.4402 30.5096 22.3828 30.3949 22.2106C29.3055 21.12 28.1587 20.4886 26.8973 20.2015L26.0946 27.0897C29.7068 28.2951 31.1403 29.9023 30.8536 32.3132C30.5669 34.8962 28.1587 36.5035 25.0625 36.2165L24.8332 38.1107C24.7758 38.4551 24.4892 38.6847 24.2025 38.6273C23.8584 38.5699 23.6291 38.2829 23.6864 37.9959L23.9158 36.0443C21.7943 35.6424 20.1315 34.6092 18.6981 33.002C18.5261 32.8298 18.4688 32.6576 18.4688 32.428C18.5261 32.0836 18.8128 31.854 19.1568 31.9114C19.3861 31.9114 19.5008 32.0262 19.5582 32.141C20.7622 33.576 22.1957 34.4944 24.0878 34.9536L24.8905 27.9507C21.2783 26.6879 19.9595 25.1954 20.2462 22.7272C20.5329 20.2589 22.9411 18.5943 25.9226 18.8813L26.0373 17.9629C26.0373 17.6185 26.3239 17.3889 26.6106 17.4463ZM25.0052 26.6879L25.8079 19.9719C23.3998 19.7423 21.6796 21.0052 21.4503 22.7272C21.2783 24.4492 21.909 25.5398 25.0052 26.6879ZM25.9226 28.2951L25.1199 35.0684C27.5854 35.298 29.3628 34.0926 29.5348 32.1984C29.7642 30.5337 29.0188 29.3857 25.9226 28.2951Z" fill="#DBDBDB"/>
<path d="M203.776 55.8513H73.0474L62.5547 0H193.284L203.776 55.8513Z" fill="#A6A6A6"/>
<path opacity="0.9" d="M203.776 55.8513H73.0474L62.5547 0H193.284L203.776 55.8513Z" fill="white"/>
<g opacity="0.5">
<path d="M187.955 34.5614H80.9064L80.7344 33.7578H187.783L187.955 34.5614Z" fill="#455A64"/>
<path opacity="0.5" d="M129.929 44.605H82.7402L81.9375 40.0703H129.126L129.929 44.605Z" fill="#455A64"/>
<path opacity="0.5" d="M131.187 51.2585H83.998L83.1953 46.7812H130.384L131.187 51.2585Z" fill="#455A64"/>
<path d="M188.528 40.6443L190.42 50.6895H135.893L134.001 40.6443H188.528ZM188.987 40.0703H133.312L135.434 51.2635H191.108L188.987 40.0703Z" fill="#455A64"/>
<path d="M79.3 26.1747L76.9491 13.5465C76.8345 12.8576 77.2358 12.3984 77.9239 12.3984C77.9239 12.3984 77.9239 12.3984 77.9812 12.3984H80.9054C83.1416 12.3984 85.3204 14.2353 85.7217 16.4739C85.8937 17.3923 85.7791 18.2534 85.3777 18.8848C86.8111 19.6884 87.9579 21.1234 88.2446 22.7306C88.7033 25.2563 87.0405 27.3227 84.5176 27.3227H80.7334C80.676 27.3227 80.676 27.3227 80.676 27.3227C80.0453 27.3227 79.4146 26.8061 79.3 26.1747ZM80.16 18.1386H81.9948C82.9122 18.1386 83.5429 17.3349 83.3709 16.4165C83.1989 15.4981 82.2815 14.7519 81.3641 14.7519H79.5293L80.16 18.1386ZM81.4788 24.9693H84.1736C85.3777 24.9693 86.1804 23.9935 85.9511 22.7306C85.7217 21.5252 84.575 20.5494 83.3136 20.5494H80.6187L81.4788 24.9693Z" fill="#455A64"/>
<path d="M89.5663 13.5465C89.4516 12.8576 89.853 12.3984 90.541 12.3984C91.1718 12.3984 91.8598 12.915 91.9745 13.5465L94.3253 26.1747C94.44 26.8635 93.9813 27.3227 93.3506 27.3227C92.6625 27.3227 92.0892 26.8061 91.9745 26.1747L89.5663 13.5465Z" fill="#455A64"/>
<path d="M98.2765 26.1747L95.9257 13.5465C95.811 12.915 96.2124 12.3984 96.9004 12.3984C97.5885 12.3984 98.2192 12.915 98.3339 13.5465L100.455 24.9693H106.246C106.877 24.9693 107.508 25.4859 107.622 26.1747C107.737 26.8061 107.278 27.3227 106.648 27.3227H99.7673C99.7099 27.3227 99.7099 27.3227 99.7099 27.3227C99.0219 27.3227 98.3912 26.8061 98.2765 26.1747Z" fill="#455A64"/>
<path d="M110.316 26.1747L107.965 13.5465C107.85 12.915 108.251 12.3984 108.939 12.3984C109.628 12.3984 110.258 12.915 110.373 13.5465L112.494 24.9693H118.285C118.916 24.9693 119.547 25.4859 119.662 26.1747C119.776 26.8061 119.318 27.3227 118.687 27.3227H111.749C111.692 27.3227 111.692 27.3227 111.692 27.3227C111.061 27.3227 110.43 26.8061 110.316 26.1747Z" fill="#455A64"/>
<path d="M185.773 22.8482C186.232 25.3164 185.142 27.4977 182.963 27.4977C180.727 27.4977 178.835 25.3164 178.376 22.8482C177.631 19.0023 180.441 16.7636 180.097 12.3438C181.415 16.7636 185.028 19.0023 185.773 22.8482Z" fill="#455A64"/>
</g>
<path d="M193.284 111.645H62.5547L73.0474 55.8516H203.776L193.284 111.645Z" fill="#A6A6A6"/>
<path opacity="0.7" d="M193.284 111.645H62.5547L73.0474 55.8516H203.776L193.284 111.645Z" fill="white"/>
<g opacity="0.5">
<path d="M190.877 61.4755H83.8281L83.9428 60.6719H190.991L190.877 61.4755Z" fill="#455A64"/>
<path opacity="0.5" d="M128.837 73.1882H81.6484L82.4512 68.7109H129.64L128.837 73.1882Z" fill="#455A64"/>
<path opacity="0.5" d="M149.535 86.5632H79.125L79.9277 82.0859H150.395L149.535 86.5632Z" fill="#455A64"/>
<path opacity="0.5" d="M171.383 86.5632H186.176L187.036 82.0859H172.243L171.383 86.5632Z" fill="#455A64"/>
<path opacity="0.5" d="M172.648 79.9019H187.441L188.244 75.3672H173.451L172.648 79.9019Z" fill="#455A64"/>
<path opacity="0.5" d="M173.906 73.1882H188.699L189.502 68.7109H174.709L173.906 73.1882Z" fill="#455A64"/>
<path opacity="0.5" d="M160.319 79.9019H80.3906L81.1934 75.3672H161.121L160.319 79.9019Z" fill="#455A64"/>
<path opacity="0.5" d="M145.811 106.589H75.3438L76.2038 102.055H146.671L145.811 106.589Z" fill="#455A64"/>
<path opacity="0.5" d="M167.656 106.589H182.449L183.252 102.055H168.459L167.656 106.589Z" fill="#455A64"/>
<path opacity="0.5" d="M168.859 99.8784H183.652L184.512 95.3438H169.719L168.859 99.8784Z" fill="#455A64"/>
<path opacity="0.5" d="M156.53 99.8784H76.6016L77.4616 95.3438H157.39L156.53 99.8784Z" fill="#455A64"/>
</g>
<path d="M203.776 167.5H73.0474L62.5547 111.648H193.284L203.776 167.5Z" fill="#A6A6A6"/>
<path opacity="0.9" d="M203.776 167.5H73.0474L62.5547 111.648H193.284L203.776 167.5Z" fill="white"/>
<g opacity="0.5">
<path opacity="0.5" d="M185.541 133.516H78.4929L77.6328 129.039H184.739L185.541 133.516Z" fill="#455A64"/>
<path opacity="0.5" d="M186.799 140.23H79.7507L78.8906 135.695H185.939L186.799 140.23Z" fill="#455A64"/>
<path opacity="0.5" d="M188.067 146.949H173.274L172.414 142.414H187.207L188.067 146.949Z" fill="#455A64"/>
<path d="M150.853 143.447H149.935L150.509 146.604C150.566 146.776 150.452 146.948 150.222 146.948C150.05 146.948 149.878 146.833 149.821 146.604L149.247 143.447H148.33C148.158 143.447 147.986 143.274 147.929 143.102C147.871 142.93 147.986 142.758 148.215 142.758H150.738C150.91 142.758 151.082 142.873 151.14 143.102C151.14 143.274 151.025 143.447 150.853 143.447Z" fill="#455A64"/>
<path d="M154.984 143.272C155.443 143.674 155.729 144.19 155.844 144.764C155.959 145.338 155.844 145.855 155.557 146.257C155.271 146.659 154.812 146.888 154.296 146.888C153.722 146.888 153.149 146.659 152.748 146.257C152.289 145.855 152.002 145.338 151.888 144.764C151.773 144.19 151.888 143.674 152.174 143.272C152.461 142.87 152.92 142.641 153.493 142.641C154.009 142.641 154.583 142.928 154.984 143.272ZM155.213 144.764C155.156 144.363 154.927 144.018 154.64 143.731C154.353 143.444 154.009 143.329 153.665 143.329C153.264 143.329 152.977 143.502 152.805 143.731C152.633 143.961 152.518 144.363 152.576 144.764C152.633 145.166 152.862 145.511 153.149 145.798C153.436 146.085 153.78 146.199 154.181 146.199C154.525 146.199 154.812 146.027 155.041 145.798C155.213 145.511 155.271 145.166 155.213 144.764Z" fill="#455A64"/>
<path d="M158.939 143.447H158.021L158.595 146.604C158.652 146.776 158.537 146.948 158.308 146.948C158.136 146.948 157.964 146.833 157.907 146.604L157.333 143.447H156.416C156.244 143.447 156.072 143.274 156.015 143.102C155.957 142.93 156.072 142.758 156.301 142.758H158.824C158.996 142.758 159.168 142.873 159.225 143.102C159.283 143.274 159.168 143.447 158.939 143.447Z" fill="#455A64"/>
<path d="M162.262 145.912H160.829L160.657 146.658C160.599 146.773 160.542 146.888 160.37 146.888C160.313 146.888 160.313 146.888 160.255 146.888C160.083 146.831 159.969 146.658 159.969 146.486L160.599 143.042C160.657 142.927 160.714 142.812 160.886 142.812C161.001 142.812 161.173 142.87 161.23 143.042L163.18 146.486C163.294 146.658 163.237 146.831 163.065 146.888C163.065 146.888 163.008 146.888 162.95 146.888C162.836 146.888 162.664 146.831 162.606 146.658L162.262 145.912ZM161.918 145.281L161.23 144.018L161.001 145.281H161.918Z" fill="#455A64"/>
<path d="M164.044 146.546L163.413 143.102C163.356 142.93 163.47 142.758 163.7 142.758C163.872 142.758 164.044 142.93 164.101 143.102L164.674 146.259H166.28C166.452 146.259 166.624 146.431 166.681 146.604C166.739 146.776 166.567 146.948 166.395 146.948H164.502C164.273 146.891 164.101 146.718 164.044 146.546Z" fill="#455A64"/>
<path d="M167.194 143.734C167.424 143.734 167.653 143.907 167.71 144.194C167.768 144.423 167.596 144.653 167.366 144.653C167.137 144.653 166.908 144.481 166.85 144.194C166.793 143.907 166.908 143.734 167.194 143.734ZM167.596 146.03C167.825 146.03 168.054 146.203 168.112 146.49C168.169 146.719 167.997 146.949 167.768 146.949C167.538 146.949 167.309 146.777 167.252 146.49C167.194 146.26 167.366 146.03 167.596 146.03Z" fill="#455A64"/>
<path d="M182.502 117.215H75.4533L75.2812 116.469H182.387L182.502 117.215Z" fill="#455A64"/>
</g>
<path d="M0 250.727C75.0544 250.383 159.168 250.383 234.223 250.727C159.168 251.071 75.0544 251.071 0 250.727Z" fill="#263238"/>
<path d="M187.377 82.6013H56.6484L46.8438 26.75H177.573L187.377 82.6013Z" fill="#0066B2"/>
<path opacity="0.8" d="M187.377 82.6013H56.6484L46.8438 26.75H177.573L187.377 82.6013Z" fill="white"/>
<path d="M171.788 61.3036H64.7397L64.625 60.5H171.674L171.788 61.3036Z" fill="#0066B2"/>
<path opacity="0.5" d="M113.702 71.3472H66.5137L65.7109 66.8125H112.899L113.702 71.3472Z" fill="#0066B2"/>
<path opacity="0.5" d="M114.905 78.0085H67.7168L66.9141 73.5312H114.103L114.905 78.0085Z" fill="#0066B2"/>
<path d="M172.302 67.3865L174.079 77.4317H119.551L117.774 67.3865H172.302ZM172.76 66.8125H117.086L119.035 78.0057H174.71L172.76 66.8125Z" fill="#0066B2"/>
<path d="M63.246 52.9247L61.0098 40.2965C60.8951 39.6076 61.3538 39.1484 61.9845 39.1484C61.9845 39.1484 61.9845 39.1484 62.0419 39.1484H64.9661C67.2022 39.1484 69.3237 40.9853 69.7251 43.2239C69.8971 44.1423 69.7251 45.0034 69.3237 45.6348C70.7571 46.4384 71.8465 47.8734 72.1332 49.4806C72.5919 52.0063 70.8718 54.0727 68.349 54.0727H64.5647C64.5074 54.0727 64.5074 54.0727 64.5074 54.0727C63.9913 54.0727 63.3606 53.5561 63.246 52.9247ZM64.2207 44.946H66.0555C66.9729 44.946 67.6036 44.1423 67.4316 43.2239C67.2596 42.3055 66.3995 41.5593 65.4248 41.5593H63.6473L64.2207 44.946ZM65.4248 51.7193H68.1196C69.3237 51.7193 70.1264 50.7435 69.9544 49.4806C69.7251 48.2752 68.5783 47.2994 67.3742 47.2994H64.6794L65.4248 51.7193Z" fill="#0066B2"/>
<path d="M73.6835 40.2965C73.5688 39.6076 73.9702 39.1484 74.6582 39.1484C75.2889 39.1484 75.9197 39.665 76.0343 40.2965L78.2705 52.9247C78.3852 53.6135 77.9265 54.0727 77.2957 54.0727C76.6077 54.0727 76.0343 53.5561 75.9196 52.9247L73.6835 40.2965Z" fill="#0066B2"/>
<path d="M82.279 52.9247L80.0429 40.2965C79.9282 39.665 80.3296 39.1484 81.0176 39.1484C81.7057 39.1484 82.279 39.665 82.3937 40.2965L84.4005 51.7193H90.1916C90.8223 51.7193 91.453 52.2359 91.5677 52.9247C91.6823 53.5561 91.2236 54.0727 90.5929 54.0727H83.7125C83.6551 54.0727 83.6551 54.0727 83.6551 54.0727C82.9671 54.0727 82.3937 53.5561 82.279 52.9247Z" fill="#0066B2"/>
<path d="M94.2634 52.9247L92.0273 40.2965C91.9126 39.665 92.3139 39.1484 93.002 39.1484C93.69 39.1484 94.2634 39.665 94.3781 40.2965L96.3849 51.7193H102.176C102.807 51.7193 103.437 52.2359 103.552 52.9247C103.667 53.5561 103.208 54.0727 102.577 54.0727H95.6395C95.5822 54.0727 95.5822 54.0727 95.5822 54.0727C95.0088 54.0727 94.3781 53.5561 94.2634 52.9247Z" fill="#0066B2"/>
<path d="M166.509 39.1484L161.75 47.1846H165.534L164.674 54.2449L169.032 45.4626H165.248L166.509 39.1484Z" fill="#0066B2"/>
<path d="M177.573 138.453H46.8438L56.6484 82.6016H187.377L177.573 138.453Z" fill="#0066B2"/>
<path opacity="0.6" d="M177.573 138.453H46.8438L56.6484 82.6016H187.377L177.573 138.453Z" fill="white"/>
<path d="M174.533 88.2306H67.4844L67.6564 87.4844H174.705L174.533 88.2306Z" fill="#0066B2"/>
<path opacity="0.5" d="M112.61 99.9382H65.4219L66.2246 95.4609H113.413L112.61 99.9382Z" fill="#0066B2"/>
<path opacity="0.5" d="M133.538 113.313H63.0703L63.873 108.836H134.34L133.538 113.313Z" fill="#0066B2"/>
<path opacity="0.5" d="M155.32 113.313H170.113L170.916 108.836H156.123L155.32 113.313Z" fill="#0066B2"/>
<path opacity="0.5" d="M156.531 106.66H171.324L172.127 102.125H157.334L156.531 106.66Z" fill="#0066B2"/>
<path opacity="0.5" d="M157.734 99.9382H172.527L173.273 95.4609H158.48L157.734 99.9382Z" fill="#0066B2"/>
<path opacity="0.5" d="M144.202 106.66H64.2734L65.0762 102.125H145.004L144.202 106.66Z" fill="#0066B2"/>
<path opacity="0.5" d="M130.038 133.347H59.5703L60.373 128.812H130.783L130.038 133.347Z" fill="#0066B2"/>
<path opacity="0.5" d="M151.828 133.347H166.621L167.424 128.812H152.631L151.828 133.347Z" fill="#0066B2"/>
<path opacity="0.5" d="M153.031 126.634H167.824L168.57 122.156H153.777L153.031 126.634Z" fill="#0066B2"/>
<path opacity="0.5" d="M140.647 126.634H60.7188L61.5215 122.156H141.45L140.647 126.634Z" fill="#0066B2"/>
<path d="M187.377 194.247H56.6484L46.8438 138.453H177.573L187.377 194.247Z" fill="#0066B2"/>
<path opacity="0.8" d="M187.377 194.247H56.6484L46.8438 138.453H177.573L187.377 194.247Z" fill="white"/>
<path opacity="0.5" d="M169.547 160.266H62.498L61.6953 155.789H168.801L169.547 160.266Z" fill="#0066B2"/>
<path opacity="0.5" d="M170.75 166.985H63.7012L62.8984 162.508H169.947L170.75 166.985Z" fill="#0066B2"/>
<path opacity="0.5" d="M171.955 173.699H157.162L156.359 169.164H171.152L171.955 173.699Z" fill="#0066B2"/>
<path d="M134.744 170.197H133.826L134.399 173.354C134.457 173.526 134.342 173.698 134.113 173.698C133.941 173.698 133.769 173.583 133.711 173.354L133.138 170.197H132.221C132.049 170.197 131.877 170.024 131.819 169.852C131.762 169.68 131.877 169.508 132.106 169.508H134.629C134.801 169.508 134.973 169.623 135.03 169.852C135.03 170.024 134.916 170.197 134.744 170.197Z" fill="#0066B2"/>
<path d="M138.931 170.022C139.39 170.424 139.676 170.94 139.791 171.514C139.906 172.088 139.734 172.605 139.447 173.007C139.16 173.409 138.702 173.638 138.186 173.638C137.612 173.638 137.039 173.409 136.637 173.007C136.236 172.605 135.892 172.088 135.777 171.514C135.663 170.94 135.777 170.424 136.121 170.022C136.408 169.62 136.867 169.391 137.44 169.391C137.956 169.448 138.472 169.678 138.931 170.022ZM139.103 171.514C139.046 171.113 138.816 170.768 138.53 170.481C138.243 170.194 137.899 170.079 137.555 170.079C137.153 170.079 136.867 170.252 136.695 170.481C136.523 170.711 136.408 171.113 136.465 171.514C136.523 171.916 136.752 172.261 137.039 172.548C137.325 172.835 137.67 172.949 138.071 172.949C138.415 172.949 138.702 172.777 138.931 172.548C139.103 172.318 139.16 171.916 139.103 171.514Z" fill="#0066B2"/>
<path d="M142.884 170.197H141.967L142.54 173.354C142.597 173.526 142.483 173.698 142.253 173.698C142.081 173.698 141.909 173.583 141.852 173.354L141.279 170.197H140.361C140.189 170.197 140.017 170.024 139.96 169.852C139.903 169.68 140.017 169.508 140.247 169.508H142.769C142.941 169.508 143.113 169.623 143.171 169.852C143.171 170.024 143.056 170.197 142.884 170.197Z" fill="#0066B2"/>
<path d="M146.153 172.662H144.719L144.547 173.408C144.49 173.523 144.433 173.638 144.261 173.638C144.203 173.638 144.203 173.638 144.146 173.638C143.974 173.581 143.859 173.408 143.859 173.236L144.547 169.792C144.605 169.677 144.719 169.562 144.834 169.562C144.949 169.562 145.121 169.62 145.178 169.792L147.07 173.236C147.185 173.408 147.128 173.581 146.956 173.638C146.956 173.638 146.898 173.638 146.841 173.638C146.726 173.638 146.554 173.581 146.497 173.408L146.153 172.662ZM145.752 172.031L145.063 170.768L144.834 172.031H145.752Z" fill="#0066B2"/>
<path d="M147.934 173.296L147.304 169.852C147.246 169.68 147.361 169.508 147.59 169.508C147.762 169.508 147.934 169.68 147.992 169.852L148.565 173.009H150.171C150.343 173.009 150.515 173.181 150.572 173.354C150.629 173.526 150.457 173.698 150.285 173.698H148.393C148.106 173.641 147.992 173.468 147.934 173.296Z" fill="#0066B2"/>
<path d="M151.085 170.484C151.314 170.484 151.544 170.657 151.601 170.944C151.658 171.173 151.486 171.403 151.257 171.403C151.028 171.403 150.798 171.231 150.741 170.944C150.684 170.657 150.798 170.484 151.085 170.484ZM151.486 172.78C151.716 172.78 151.945 172.953 152.002 173.24C152.06 173.469 151.888 173.699 151.658 173.699C151.429 173.699 151.2 173.527 151.142 173.24C151.085 173.01 151.257 172.78 151.486 172.78Z" fill="#0066B2"/>
<path d="M166.679 144.022H59.6303L59.5156 143.219H166.564L166.679 144.022Z" fill="#0066B2"/>
<path opacity="0.6" d="M78.7891 153.03C78.7891 156.99 81.1972 160.549 84.8095 160.549C88.4217 160.549 90.7725 157.048 90.7725 153.03C90.7725 146.83 85.5549 143.157 84.8095 136.039C84.0067 143.099 78.7891 146.773 78.7891 153.03Z" fill="#0066B2"/>
<path opacity="0.4" d="M84.8673 137.359C84.6953 141.033 85.9567 144.592 87.3328 147.979C88.4796 150.734 89.2823 155.613 87.5622 158.253L87.6195 158.311C88.0209 158.024 90.4864 155.957 89.225 150.676C88.5943 147.979 86.7021 145.338 85.8994 142.755C85.2687 140.976 84.9247 139.196 84.8673 137.359Z" fill="white"/>
<path d="M83.1447 142.523C82.6286 144.992 81.8259 146.542 80.9085 149.067C80.1631 151.191 79.7618 154.979 81.0232 156.931L80.9659 156.989C80.6792 156.816 79.1311 155.324 79.7044 151.248C79.9338 149.699 80.7365 148.034 81.8833 145.738C82.686 144.36 83.1447 142.523 83.1447 142.523Z" fill="#0066B2"/>
<path d="M10.3828 243.323H23.1117V118.246C23.1117 102.978 35.4965 90.5216 50.8056 90.5216C66.1146 90.5216 78.4994 102.92 78.4994 118.246V132.711H91.2283V118.246C91.2283 95.9747 73.1097 77.8359 50.8629 77.8359C28.616 77.8359 10.3828 95.9747 10.3828 118.246V243.323Z" fill="#37474F"/>
<path opacity="0.6" d="M18.4062 120.199V243.324H23.0506V118.247C23.0506 102.978 35.4927 90.5222 50.7444 90.5222C65.9961 90.5222 78.4383 102.978 78.4383 118.247V132.712H82.1652V120.141C82.1652 100.567 67.8883 87.0781 50.2857 87.0781C32.7406 87.1355 18.4062 100.625 18.4062 120.199Z" fill="#263238"/>
<path d="M78.4453 128.805V132.765H91.1168V129.494L78.4453 128.805Z" fill="#263238"/>
<path d="M7.32621 248.367H26.1328L26.1328 199.289H7.32621L7.32621 248.367Z" fill="#263238"/>
<path d="M9.46853 248.367H13.0234L13.0234 199.289H9.46853L9.46853 248.367Z" fill="#37474F"/>
<path d="M14.5726 248.367H15.0312L15.0313 199.289H14.5726L14.5726 248.367Z" fill="#37474F"/>
<path d="M2.45123 250.727H31.0625V248.316H2.45123V250.727Z" fill="#263238"/>
<path d="M75.6496 136.453H93.8828V130.311H75.6496V136.453Z" fill="#37474F"/>
<path d="M26.1125 210.812H31.9609V204.671H26.1125V210.812Z" fill="#37474F"/>
<path d="M30.9041 210.837H31.9936V204.695H30.2734L30.9041 210.837Z" fill="#263238"/>
<path d="M31.4768 220.305C31.2475 220.764 31.1328 221.223 31.1328 221.74C31.1328 223.749 32.9676 225.356 35.0891 224.897C36.2932 224.667 37.3252 223.692 37.5546 222.429C37.7266 221.683 37.6119 220.936 37.3252 220.305C36.9239 219.444 36.6945 218.583 36.7519 217.665L37.7839 211.063C38.128 208.882 38.128 206.643 37.7839 204.405L36.7519 197.804C36.6945 196.885 36.9239 195.967 37.3252 195.163C37.6119 194.532 37.7266 193.786 37.5546 193.039C37.2679 191.834 36.2932 190.858 35.0891 190.571C32.9676 190.112 31.1328 191.719 31.1328 193.728C31.1328 194.245 31.2475 194.761 31.4768 195.163C31.8782 195.967 32.1075 196.828 32.0502 197.746L31.7062 207.734L32.0502 217.722C32.1075 218.64 31.8782 219.501 31.4768 220.305Z" fill="#37474F"/>
<path d="M103.78 174.617H95.5234V185.523H103.78V174.617Z" fill="#0066B2"/>
<path opacity="0.2" d="M103.78 174.617H95.5234V185.523H103.78V174.617Z" fill="black"/>
<path d="M110.26 174.617H103.781V185.523H110.26V174.617Z" fill="#0066B2"/>
<path d="M103.783 170.883H94.6094V174.556H103.783V170.883Z" fill="#0066B2"/>
<path opacity="0.5" d="M103.783 170.883H94.6094V174.556H103.783V170.883Z" fill="black"/>
<path d="M111.006 170.883H103.781V174.556H111.006V170.883Z" fill="#0066B2"/>
<path opacity="0.4" d="M111.006 170.883H103.781V174.556H111.006V170.883Z" fill="black"/>
<path d="M132.791 250.732H68.1715L65.3047 219.391H132.791V250.732Z" fill="#0066B2"/>
<path opacity="0.2" d="M132.791 250.732H68.1715L65.3047 219.391H132.791V250.732Z" fill="black"/>
<path d="M132.789 219.384L156.011 190.281L174.473 219.384L171.606 250.725H132.789V219.384Z" fill="#0066B2"/>
<path d="M155.728 192.117L174.821 221.622H181.472L156.301 181.039H87.5537L52.75 225.008H136.692L155.728 192.117Z" fill="#0066B2"/>
<path opacity="0.5" d="M155.728 192.117L174.821 221.622H181.472L156.301 181.039H87.5537L52.75 225.008H136.692L155.728 192.117Z" fill="black"/>
<path d="M149.974 223.781H160.18V209.144H149.974V223.781Z" fill="#FBFAFF"/>
<path d="M158.94 210.312H155.672V215.88H158.94V210.312Z" fill="#0066B2"/>
<path d="M154.518 210.312H151.25V215.88H154.518V210.312Z" fill="#0066B2"/>
<path d="M158.94 216.977H155.672V222.544H158.94V216.977Z" fill="#0066B2"/>
<path d="M154.518 216.977H151.25V222.544H154.518V216.977Z" fill="#0066B2"/>
<path d="M85.3779 230.984H75.1719V245.622H85.3779V230.984Z" fill="#FBFAFF"/>
<path d="M79.6979 232.188H76.4297V237.755H79.6979V232.188Z" fill="#0066B2"/>
<path d="M84.1198 232.188H80.8516V237.755H84.1198V232.188Z" fill="#0066B2"/>
<path d="M79.6979 238.852H76.4297V244.419H79.6979V238.852Z" fill="#0066B2"/>
<path d="M84.1198 238.852H80.8516V244.419H84.1198V238.852Z" fill="#0066B2"/>
<path d="M104.128 230.984H93.9219V245.622H104.128V230.984Z" fill="#FBFAFF"/>
<path d="M98.4479 232.188H95.1797V237.755H98.4479V232.188Z" fill="#0066B2"/>
<path d="M102.87 232.188H99.6016V237.755H102.87V232.188Z" fill="#0066B2"/>
<path d="M98.4479 238.852H95.1797V244.419H98.4479V238.852Z" fill="#0066B2"/>
<path d="M102.87 238.852H99.6016V244.419H102.87V238.852Z" fill="#0066B2"/>
<path d="M122.933 230.984H112.727V245.622H122.933V230.984Z" fill="#FBFAFF"/>
<path d="M117.253 232.188H113.984V237.755H117.253V232.188Z" fill="#0066B2"/>
<path d="M121.674 232.188H118.406V237.755H121.674V232.188Z" fill="#0066B2"/>
<path d="M117.253 238.852H113.984V244.419H117.253V238.852Z" fill="#0066B2"/>
<path d="M121.674 238.852H118.406V244.419H121.674V238.852Z" fill="#0066B2"/>
<path d="M149.408 250.695H160.703V230.203H149.408V250.695Z" fill="#FBFAFF"/>
<path d="M156.299 231.609H153.891V234.652H156.299V231.609Z" fill="#0066B2"/>
<path d="M153.088 231.609H150.68V234.652H153.088V231.609Z" fill="#0066B2"/>
<path d="M152.561 245.805H157.664V245.058H152.561V245.805Z" fill="#0066B2"/>
<path d="M159.455 231.609H157.047V234.652H159.455V231.609Z" fill="#0066B2"/>
<path d="M156.299 235.516H153.891V238.558H156.299V235.516Z" fill="#0066B2"/>
<path d="M153.088 235.516H150.68V238.558H153.088V235.516Z" fill="#0066B2"/>
<path d="M159.455 235.516H157.047V238.558H159.455V235.516Z" fill="#0066B2"/>
<path d="M156.299 239.359H153.891V242.402H156.299V239.359Z" fill="#0066B2"/>
<path d="M153.088 239.359H150.68V242.402H153.088V239.359Z" fill="#0066B2"/>
<path d="M159.455 239.359H157.047V242.402H159.455V239.359Z" fill="#0066B2"/>
<path d="M114.161 191.547C114.161 191.547 100.113 191.547 99.3107 191.547L91.7422 201.075C92.8889 201.075 108.542 201.075 108.542 201.075L114.161 191.547Z" fill="#0066B2"/>
<path opacity="0.4" d="M114.161 191.547C114.161 191.547 100.113 191.547 99.3107 191.547L91.7422 201.075C92.8889 201.075 108.542 201.075 108.542 201.075L114.161 191.547Z" fill="black"/>
<path d="M102.921 199.408V211.003H94.6641V199.408L98.7923 194.242L102.921 199.408Z" fill="#0066B2"/>
<path opacity="0.2" d="M102.921 199.408V211.003H94.6641V199.408L98.7923 194.242L102.921 199.408Z" fill="black"/>
<path d="M102.922 199.414H109.401L102.922 211.009V199.414Z" fill="#0066B2"/>
<path d="M100.975 199.586H96.2734V207.507H100.975V199.586Z" fill="#FBFAFF"/>
<path d="M98.3345 200.156H96.8438V202.682H98.3345V200.156Z" fill="#0066B2"/>
<path d="M100.342 200.156H98.8516V202.682H100.342V200.156Z" fill="#0066B2"/>
<path d="M98.3345 203.203H96.8438V206.992H98.3345V203.203Z" fill="#0066B2"/>
<path d="M100.342 203.203H98.8516V206.992H100.342V203.203Z" fill="#0066B2"/>
<path d="M235.149 253.768C233.716 254.17 192.433 251.472 190.942 250.381C190.77 250.266 191.229 236.548 191.229 236.548C191.286 236.375 185.094 218.007 185.094 218.007L210.437 215.711L217.891 239.073C217.891 239.073 223.338 241.771 228.039 244.354C230.964 245.961 233.486 247.396 234.06 247.913C235.551 249.291 236.583 253.423 235.149 253.768Z" fill="#EB9481"/>
<path d="M235.148 253.77C233.714 254.172 192.431 251.474 190.941 250.384C190.769 250.269 191.285 236.55 191.285 236.55C191.285 236.493 190.941 235.287 190.367 233.508L216.857 235.345L218.004 239.018C218.004 239.018 223.451 241.716 228.152 244.299C231.077 245.906 233.599 247.341 234.173 247.858C235.549 249.293 236.581 253.426 235.148 253.77Z" fill="#EBEBEB"/>
<path d="M235.32 253.937C233.829 254.339 192.489 251.526 190.999 250.435C190.425 250.033 190.253 243.605 191.285 236.602L217.947 238.438C217.947 238.438 232.797 246.589 234.288 247.967C235.779 249.345 236.754 253.592 235.32 253.937Z" fill="#0066B2"/>
<path d="M234.803 252.276C227.865 251.645 199.942 249.693 193.004 249.578C192.947 249.578 192.947 249.636 193.004 249.636C199.827 250.439 227.808 252.104 234.803 252.391C234.975 252.391 234.975 252.276 234.803 252.276Z" fill="#263238"/>
<path d="M231.708 246.245C230.045 246.073 228.382 246.762 227.465 247.68C226.548 248.541 225.688 249.862 225.688 251.297C225.688 251.354 225.745 251.354 225.745 251.297C226.318 248.599 228.956 246.417 231.708 246.36C231.765 246.36 231.765 246.303 231.708 246.245Z" fill="#263238"/>
<path d="M220.014 239.243C217.262 239.013 213.936 239.76 212.102 241.941C212.044 241.998 212.159 242.113 212.216 242.113C214.796 240.965 217.262 240.161 220.014 239.645C220.243 239.587 220.243 239.3 220.014 239.243Z" fill="#263238"/>
<path d="M222.131 240.219C219.379 239.99 216.054 240.736 214.219 242.917C214.161 242.975 214.276 243.09 214.333 243.09C216.914 241.942 219.379 241.138 222.131 240.621C222.303 240.564 222.303 240.277 222.131 240.219Z" fill="#263238"/>
<path d="M224.202 241.251C221.449 241.021 218.124 241.767 216.289 243.949C216.232 244.006 216.346 244.121 216.404 244.121C218.984 242.973 221.449 242.169 224.202 241.653C224.431 241.538 224.374 241.251 224.202 241.251Z" fill="#263238"/>
<path d="M226.264 242.227C223.512 241.998 220.186 242.744 218.352 244.925C218.294 244.983 218.409 245.097 218.466 245.097C221.046 243.949 223.512 243.146 226.264 242.629C226.493 242.514 226.493 242.227 226.264 242.227Z" fill="#263238"/>
<path d="M195.243 243.148C192.147 242.919 191.803 247.798 194.956 247.97C198.052 248.142 198.339 243.321 195.243 243.148Z" fill="#263238"/>
<path d="M223.508 232.071C222.189 230.808 220.355 231.841 219.38 232.989C217.832 234.826 216.685 237.524 216.398 239.935C216.398 239.992 216.456 239.992 216.456 239.992C216.513 240.222 216.742 240.394 216.914 240.222C218.979 239.016 221.329 237.926 222.992 236.089C223.967 235.056 224.77 233.276 223.508 232.071ZM219.724 237.753C218.749 238.385 217.717 238.959 216.742 239.648C217.316 238.27 217.832 236.95 218.577 235.63C218.921 234.998 219.265 234.367 219.724 233.85C220.412 232.989 223.279 230.865 223.336 233.85C223.336 235.515 220.928 236.95 219.724 237.753Z" fill="#263238"/>
<path d="M209.459 240.45C211.867 240.966 214.39 240.45 216.798 240.278C217.028 240.278 217.142 239.991 217.028 239.761C217.085 239.761 217.085 239.704 217.028 239.646C215.365 237.924 212.899 236.374 210.549 235.8C209.115 235.399 206.994 235.686 206.65 237.465C206.363 239.187 208.026 240.163 209.459 240.45ZM207.854 238.785C206.134 236.26 209.746 236.317 210.778 236.661C211.466 236.891 212.097 237.178 212.727 237.465C214.046 238.096 215.308 238.9 216.569 239.646C215.365 239.704 214.218 239.818 213.014 239.876C211.638 239.933 208.829 240.163 207.854 238.785Z" fill="#263238"/>
<path d="M217.6 236.546L189.734 235.513C189.734 235.513 175.343 192.462 172.476 190.568C169.036 188.272 132.799 191.658 121.79 182.589C115.483 177.366 114.336 167.091 114.336 167.091L134.404 157.734C134.404 157.734 138.188 160.949 139.335 161.408C143.693 163.13 180.79 159.456 191.34 167.435C202.807 176.103 217.6 236.546 217.6 236.546Z" fill="#263238"/>
<path d="M217.6 236.546L189.734 235.513C189.734 235.513 175.343 192.462 172.476 190.568C169.036 188.272 132.799 191.658 121.79 182.589C115.483 177.366 114.336 167.091 114.336 167.091L134.404 157.734C134.404 157.734 138.188 160.949 139.335 161.408C143.693 163.13 180.79 159.456 191.34 167.435C202.807 176.103 217.6 236.546 217.6 236.546Z" fill="#263238"/>
<path d="M215.021 231.269C210.319 230.982 211.638 231.039 206.936 230.809C204.643 230.695 193.003 230.121 190.824 230.408C190.767 230.408 190.767 230.465 190.824 230.522C192.946 230.924 204.585 231.269 206.936 231.326C211.638 231.441 210.319 231.383 215.021 231.441C215.135 231.383 215.135 231.269 215.021 231.269Z" fill="#37474F"/>
<path d="M119.328 168.531C121.507 173.64 124.603 178.863 129.591 181.561C132.688 182.824 136.185 182.996 139.453 183.398C148.513 184.202 157.572 184.431 166.689 184.891C169.613 185.178 172.594 185.063 175.461 185.981C176.035 186.268 176.379 186.842 176.723 187.359C179.59 192.353 181.539 197.748 183.66 203.029C186.929 211.525 189.968 220.135 192.834 228.745C189.566 220.25 186.298 211.754 182.858 203.316C180.622 198.15 178.672 192.755 175.805 187.875C175.576 187.531 175.347 187.129 175.003 186.9C174.544 186.727 173.97 186.613 173.397 186.555C168.925 185.981 157.687 185.579 153.042 185.292C148.513 185.005 143.926 184.776 139.396 184.259C136.013 183.8 132.516 183.57 129.305 182.135C124.259 179.265 121.278 173.812 119.328 168.531Z" fill="#37474F"/>
<path d="M174.827 162.731L141.514 188.389C133.429 187.528 125.861 185.864 121.79 182.534C115.483 177.311 114.336 167.036 114.336 167.036L134.404 157.68C134.404 157.68 138.188 160.894 139.335 161.353C142.317 162.501 160.263 161.181 174.827 162.731Z" fill="#37474F"/>
<path d="M106.597 167.207C106.711 167.321 142.948 161.409 142.948 161.409C143.464 160.835 141.343 130.183 134.979 121.228C133.373 118.99 127.754 118.703 125.059 120.597C111.757 130.183 106.31 166.805 106.597 167.207Z" fill="#455A64"/>
<path d="M123.507 121.339C112.212 129.892 101.031 144.759 100.802 153.254C100.572 161.577 103.497 160.831 104.299 160.774C109.345 160.544 121.615 137.526 125.4 128.17C129.184 118.814 126.317 119.215 123.507 121.339Z" fill="#455A64"/>
<path d="M111.125 154.4C111.756 153.366 112.329 152.333 112.96 151.3L114.737 148.2C115.941 146.134 117.145 144.01 118.292 141.943C119.496 139.877 120.643 137.753 121.79 135.629C122.363 134.596 122.936 133.505 123.453 132.472C124.026 131.439 124.542 130.348 125.058 129.258C124.255 131.554 123.223 133.735 122.191 135.859C121.159 138.04 119.955 140.107 118.808 142.23C117.604 144.297 116.4 146.421 115.139 148.43C113.82 150.439 112.558 152.448 111.125 154.4Z" fill="#263238"/>
<path d="M123.797 131.952C124.026 131.55 124.256 131.206 124.485 130.861C124.6 130.689 124.714 130.517 124.886 130.345C125.001 130.173 125.173 130 125.288 129.828C125.173 130.287 125.001 130.632 124.714 130.976C124.485 131.378 124.141 131.722 123.797 131.952Z" fill="#263238"/>
<path d="M125.914 120.883C126.201 121.342 126.487 121.801 126.831 122.26C127.175 122.72 127.462 123.121 127.806 123.581C128.494 124.442 129.125 125.303 129.87 126.106C130.616 126.91 131.304 127.714 132.106 128.46C132.852 129.206 133.712 129.895 134.515 130.584L134.228 130.641C134.228 130.641 134.285 130.526 134.285 130.469C134.343 130.411 134.343 130.354 134.4 130.297C134.457 130.182 134.515 130.067 134.572 129.895C134.687 129.608 134.744 129.378 134.859 129.091C135.031 128.575 135.203 128.001 135.317 127.427C135.489 126.853 135.604 126.336 135.719 125.762L136.12 124.097C136.063 124.671 136.005 125.245 135.891 125.819C135.833 126.393 135.719 126.967 135.604 127.541C135.489 128.115 135.375 128.689 135.203 129.206C135.145 129.493 135.031 129.78 134.916 130.067C134.859 130.182 134.801 130.354 134.744 130.469C134.687 130.526 134.687 130.584 134.629 130.698C134.629 130.756 134.572 130.756 134.572 130.813C134.572 130.871 134.515 130.871 134.515 130.928L134.4 131.1L134.228 130.985C133.368 130.297 132.565 129.608 131.762 128.804C131.361 128.402 131.017 128.001 130.616 127.656C130.444 127.484 130.272 127.254 130.042 127.025C129.87 126.795 129.698 126.623 129.526 126.393C128.838 125.532 128.15 124.671 127.577 123.753C127.003 122.834 126.43 121.859 125.914 120.883Z" fill="#263238"/>
<path d="M132.685 127.194C130.965 126.964 128.098 123.118 127.238 120.191C127.18 120.019 127.868 118.182 128.614 115.886C129.073 114.508 129.474 112.958 129.818 111.523L138.361 115.656C138.361 115.656 136.813 118.469 136.297 120.995C136.24 121.224 136.24 121.396 136.24 121.569C136.24 121.569 136.24 121.626 136.24 121.683C136.125 122.831 135.38 127.538 132.685 127.194Z" fill="#EB9481"/>
<path d="M136.182 121.625C136.182 121.625 136.182 121.683 136.182 121.74C135.895 121.74 135.608 121.683 135.264 121.568C130.161 120.363 130.276 113.819 130.448 111.867L138.361 115.713C138.361 115.713 136.812 118.526 136.296 121.051C136.182 121.224 136.182 121.396 136.182 121.625Z" fill="#263238"/>
<path d="M145.068 100.734C145.068 100.734 146.731 102.801 146.846 105.097C146.96 107.393 144.438 110.493 144.438 110.493L145.068 100.734Z" fill="#263238"/>
<path d="M132.456 100.331C130.392 103.029 128.729 112.5 130.163 115.255C132.284 119.273 137.33 121.455 141.171 118.585C144.898 115.772 146.79 103.431 145.07 100.733C142.433 96.7722 135.495 96.313 132.456 100.331Z" fill="#EB9481"/>
<path d="M137.785 107.682C138.071 107.682 138.358 107.682 138.645 107.625C138.989 107.625 139.218 107.625 139.505 107.395C139.677 107.28 139.677 106.993 139.562 106.878C139.333 106.534 138.931 106.477 138.53 106.477C138.129 106.477 137.785 106.591 137.441 106.878C137.154 107.165 137.383 107.682 137.785 107.682Z" fill="#263238"/>
<path d="M144.207 109.118C143.921 109.003 143.691 108.888 143.462 108.716C143.175 108.544 142.946 108.486 142.774 108.199C142.659 108.027 142.774 107.797 142.889 107.683C143.233 107.453 143.634 107.51 143.978 107.683C144.38 107.855 144.609 108.084 144.838 108.486C145.01 108.888 144.552 109.29 144.207 109.118Z" fill="#263238"/>
<path d="M136.755 115.199C136.87 115.372 136.985 115.601 137.214 115.659C137.443 115.716 137.73 115.659 137.902 115.659C137.902 115.659 137.959 115.659 137.902 115.716C137.673 115.946 137.329 116.003 137.042 115.888C136.755 115.773 136.698 115.486 136.641 115.199C136.698 115.142 136.755 115.142 136.755 115.199Z" fill="#263238"/>
<path d="M137.843 113.42C138.072 114.051 138.531 114.453 139.104 114.682C139.334 114.797 139.62 114.855 139.85 114.855C139.907 114.855 139.964 114.855 140.022 114.855C140.079 114.855 140.136 114.855 140.136 114.855C140.194 114.855 140.251 114.797 140.308 114.74V114.682V114.625C140.423 114.166 140.538 113.362 140.538 113.362C140.71 113.477 141.512 114.108 141.57 113.821C141.856 111.698 142.2 109.344 142.086 107.106C142.086 107.048 141.971 107.048 141.971 107.106C141.57 109.115 141.57 111.238 141.226 113.305C140.939 113.133 140.538 112.846 140.251 112.788C140.194 112.788 140.079 114.223 140.022 114.453C139.162 114.395 138.646 113.994 137.957 113.305C137.843 113.362 137.785 113.362 137.843 113.42Z" fill="#263238"/>
<path d="M138.938 109.578C138.938 109.578 138.881 109.578 138.881 109.636C138.766 110.267 138.48 110.956 137.906 111.013V111.071C138.594 111.128 138.938 110.21 138.938 109.578Z" fill="#263238"/>
<path d="M138.593 108.774C137.618 108.43 137.045 110.439 137.962 110.726C138.822 111.07 139.396 109.061 138.593 108.774Z" fill="#263238"/>
<path d="M142.603 110.375L142.66 110.432C142.488 111.064 142.316 111.753 142.832 112.154V112.212C142.144 111.867 142.316 110.892 142.603 110.375Z" fill="#263238"/>
<path d="M143.35 109.862C144.382 110.092 143.866 112.101 142.949 111.871C142.031 111.699 142.49 109.69 143.35 109.862Z" fill="#263238"/>
<path d="M130.444 108.542C132.164 109.002 132.852 105.959 132.852 105.959C132.852 105.959 136.464 106.304 138.012 101.941C138.012 101.941 142.599 104.984 145.867 103.032C149.136 101.08 143.861 92.8719 134.285 96.89C134.285 96.89 130.329 96.5456 128.895 99.5304C127.519 102.515 128.379 107.968 130.444 108.542Z" fill="#263238"/>
<path d="M138.01 101.363C138.01 101.306 137.895 101.306 137.895 101.363C137.723 104.463 135.086 106.702 131.932 105.668C131.818 105.611 131.76 105.783 131.875 105.841C134.971 107.161 138.698 104.807 138.01 101.363Z" fill="#263238"/>
<path d="M142.371 96.2578C143.404 96.717 144.436 97.1762 145.296 97.865C146.614 98.9557 148.048 101.252 146.557 102.744C144.493 104.811 140.995 103.203 138.874 102.055C138.759 101.998 138.587 102.17 138.702 102.285C140.709 103.892 145.353 105.385 147.13 102.629C149.08 99.5871 144.722 96.8892 142.371 96.2578Z" fill="#263238"/>
<path d="M136.468 112.561C135.207 112.102 134.404 110.839 134.519 109.462C134.691 107.854 136.124 106.649 137.787 106.821C139.392 106.993 140.596 108.428 140.424 110.093C140.252 111.7 138.819 112.906 137.156 112.733C136.927 112.676 136.697 112.619 136.468 112.561ZM138.36 107.338C138.188 107.28 137.959 107.223 137.73 107.223C136.296 107.108 135.035 108.141 134.92 109.519C134.805 110.954 135.837 112.217 137.214 112.332C138.647 112.446 139.908 111.413 140.023 110.036C140.138 108.83 139.45 107.739 138.36 107.338Z" fill="#37474F"/>
<path d="M143.116 114.11C142.027 113.709 141.453 112.274 141.855 110.781C142.027 110.035 142.428 109.346 142.944 108.887C143.46 108.428 144.091 108.256 144.664 108.37C145.238 108.485 145.754 108.944 145.983 109.633C146.27 110.265 146.27 111.011 146.098 111.814C145.696 113.422 144.435 114.455 143.288 114.225C143.231 114.11 143.174 114.11 143.116 114.11ZM144.722 108.772C144.664 108.772 144.607 108.715 144.55 108.715C144.091 108.6 143.575 108.772 143.174 109.117C142.715 109.518 142.371 110.092 142.199 110.781C141.855 112.159 142.371 113.479 143.346 113.709C144.32 113.938 145.352 113.02 145.696 111.642C145.868 110.953 145.811 110.265 145.582 109.691C145.41 109.289 145.123 108.944 144.722 108.772Z" fill="#37474F"/>
<path d="M140.25 110.379L140.078 110.035C140.594 109.748 141.741 109.518 142.257 110.437L141.913 110.609C141.454 109.805 140.307 110.322 140.25 110.379Z" fill="#37474F"/>
<path d="M127.177 108.086L126.891 107.799C127.005 107.684 128.095 106.421 129.012 106.478C129.872 106.536 134.918 108.258 135.147 108.315L135.033 108.717C133.599 108.2 129.643 106.938 129.012 106.88C128.381 106.823 127.464 107.741 127.177 108.086Z" fill="#37474F"/>
<path d="M131.937 108.254C131.937 108.254 130.905 104.695 129.357 104.925C127.809 105.212 127.866 109.919 129.185 111.009C130.504 112.1 131.593 110.894 131.593 110.894L131.937 108.254Z" fill="#EB9481"/>
<path d="M129.411 106.305C130.328 107.166 130.558 108.371 130.558 109.519C130.386 109.003 130.042 108.658 129.354 108.83C129.296 108.83 129.354 108.888 129.354 108.888C129.812 108.945 130.099 109.117 130.271 109.577C130.386 109.921 130.443 110.265 130.5 110.61C130.5 110.725 130.73 110.725 130.73 110.61C131.246 109.232 130.844 106.936 129.411 106.305Z" fill="#263238"/>
<path d="M136.352 120.939L133.6 125.818L127.637 118.586L125.516 120.48C125.516 120.48 130.905 131.501 131.02 131.042L133.772 126.852L136.639 130.296L137.27 122.547L136.352 120.939Z" fill="#EBEBEB"/>
<path d="M137.096 126.449C137.153 125.187 137.268 123.866 137.268 122.603C137.268 122.546 137.21 122.546 137.153 122.603C136.752 123.809 136.522 128.688 136.407 129.836C136.293 129.664 133.713 126.794 133.713 126.851C133.139 127.483 131.132 130.525 131.018 130.812C130.158 129.09 126.488 122.144 125.456 120.422C125.399 120.365 125.341 120.422 125.399 120.48C126.144 122.316 130.846 131.443 130.96 131.443C131.018 131.501 133.483 127.77 133.827 127.023C134.229 127.655 136.809 130.869 136.809 130.64C136.924 129.377 137.038 127.77 137.096 126.449Z" fill="#263238"/>
<path d="M132.047 133.678H155.498L159.053 123.633H135.544L132.047 133.678Z" fill="#0066B2"/>
<path opacity="0.2" d="M132.047 133.678H155.498L159.053 123.633H135.544L132.047 133.678Z" fill="black"/>
<path opacity="0.5" d="M132.047 133.678H155.498L159.053 123.633H135.544L132.047 133.678Z" fill="white"/>
<path d="M155.555 133.68H132.047V143.725H155.555V133.68Z" fill="#0066B2"/>
<path opacity="0.1" d="M155.555 133.68H132.047V143.725H155.555V133.68Z" fill="black"/>
<path opacity="0.7" d="M155.555 133.68H132.047V143.725H155.555V133.68Z" fill="white"/>
<path d="M128.492 153.772H152L155.498 143.727H132.047L128.492 153.772Z" fill="#0066B2"/>
<path opacity="0.2" d="M128.492 153.772H152L155.498 143.727H132.047L128.492 153.772Z" fill="black"/>
<path opacity="0.5" d="M128.492 153.772H152L155.498 143.727H132.047L128.492 153.772Z" fill="white"/>
<path d="M159.053 123.636C159.053 123.636 155.555 133.738 155.555 133.681L155.613 143.726C155.613 143.783 152.115 153.771 152.115 153.771C152.115 154.001 128.607 153.829 128.55 153.886H128.32L128.378 153.714C128.378 153.714 131.933 143.554 131.933 143.726V133.681C131.933 133.623 135.487 123.693 135.487 123.636C135.487 123.406 158.996 123.75 159.053 123.636ZM159.053 123.636C159.11 123.636 135.258 123.808 135.659 123.693L132.162 133.738C132.162 133.566 132.219 143.783 132.162 143.783L128.664 153.829L128.55 153.656C128.55 153.656 152.402 153.656 151.943 153.771C151.943 153.771 155.555 143.669 155.498 143.783L155.555 133.738C155.441 133.681 159.053 123.693 159.053 123.636Z" fill="#263238"/>
<path d="M103.153 160.777C106.88 161.351 111.582 158.538 123.795 149.985C125.457 148.78 120.297 134.602 118.462 135.807C116.111 137.299 107.282 143.556 106.708 144.073C101.72 148.55 100.63 160.375 103.153 160.777Z" fill="#EB9481"/>
<path d="M114.047 139.937C114.047 139.937 117.544 135.173 120.182 133.279C123.68 130.696 127.808 129.95 129.528 129.72C133.14 129.261 142.199 130.638 142.257 133.336C142.314 135.747 133.083 133.91 133.083 133.91C133.083 133.91 142.773 134.255 142.314 137.24C141.855 140.167 131.305 137.412 131.305 137.412C131.305 137.412 141.282 137.986 140.307 140.971C139.562 143.209 129.872 141.2 129.872 141.2C129.872 141.2 138.415 141.774 137.784 144.128C137.039 146.711 127.98 145.448 127.98 145.448C125.342 151.073 121.615 152.623 118.978 153.427C118.347 153.484 114.047 139.937 114.047 139.937Z" fill="#EB9481"/>
<path d="M129.758 133.508C130.905 133.508 132.051 133.508 133.198 133.623C134.345 133.737 135.492 133.852 136.581 134.082C139.333 134.598 140.996 135.345 140.881 135.287C138.358 134.426 134.287 134.024 133.141 133.91C132.051 133.795 130.905 133.623 129.758 133.508Z" fill="#263238"/>
<path d="M129.356 137.586C130.789 137.643 132.28 137.643 133.713 137.816C135.147 137.93 136.523 138.217 137.956 138.447C138.071 138.447 138.013 138.504 137.899 138.504C136.465 138.332 135.089 138.275 133.656 138.16C132.222 137.93 130.789 137.701 129.356 137.586C129.298 137.643 129.298 137.586 129.356 137.586Z" fill="#263238"/>
<path d="M128.324 141.03C130.446 140.972 132.625 141.317 134.689 141.719C134.803 141.719 134.746 141.776 134.631 141.776C132.51 141.489 130.847 141.259 128.324 141.087C128.267 141.087 128.267 141.03 128.324 141.03Z" fill="#263238"/>
<path d="M114.104 138.047L118.519 155.439C118.519 155.439 105.675 162.729 102.866 160.663C100.114 158.654 102.121 148.666 105.389 144.935C106.708 143.328 114.104 138.047 114.104 138.047Z" fill="#455A64"/>
<path d="M114.215 138.621L114.043 138.047H114.101C112.896 139.023 111.635 139.941 110.431 140.917C109.227 141.893 108.023 142.869 106.876 143.902C106.303 144.418 105.729 144.935 105.213 145.509C104.697 146.083 104.296 146.714 103.895 147.403C103.149 148.723 102.576 150.216 102.289 151.708C102.461 150.159 102.862 148.609 103.608 147.231C103.952 146.542 104.411 145.853 104.927 145.279C105.443 144.648 106.016 144.131 106.589 143.615C107.736 142.582 108.998 141.606 110.259 140.687C111.52 139.769 112.782 138.85 114.101 138.047H114.158V138.104L114.215 138.621Z" fill="#263238"/>
<path d="M111.24 142.236C111.526 143.097 111.698 143.958 111.928 144.82C112.157 145.681 112.386 146.542 112.558 147.46C112.96 149.239 113.361 150.961 113.763 152.741C113.877 153.2 113.992 153.717 114.049 154.176C114.164 154.692 114.164 155.209 114.279 155.726C114.279 155.783 114.221 155.783 114.221 155.726C114.107 155.324 113.935 154.865 113.82 154.463C113.705 154.004 113.59 153.602 113.476 153.143C113.246 152.282 113.074 151.421 112.845 150.502C112.444 148.78 112.042 147.001 111.698 145.221C111.526 144.245 111.297 143.212 111.125 142.236C111.125 142.236 111.182 142.179 111.24 142.236Z" fill="#263238"/>
<path d="M118.118 153.891C118.347 154.407 118.462 154.981 118.691 155.498L118.576 155.555C115.194 157.679 111.524 159.516 107.625 160.377L110.377 159.172C112.097 158.368 116.684 156.187 118.462 155.326L118.404 155.498C118.29 154.924 118.175 154.407 118.118 153.891Z" fill="#263238"/>
<path d="M228.489 165.601C224.246 161.813 206.643 154.925 205.783 154.523C204.923 154.236 198.1 153.375 198.1 153.375C197.928 153.432 179.924 145.281 179.924 145.281L173.961 166.29L195.634 172.776C195.634 172.776 214.04 179.205 219.429 179.148C222.927 179.091 230.839 167.668 228.489 165.601Z" fill="#EB9481"/>
<path d="M219.372 179.15C213.982 179.208 195.577 172.779 195.577 172.779L190.875 171.401L195.233 152.172C196.895 152.918 198.042 153.377 198.099 153.377C198.099 153.377 204.923 154.238 205.783 154.525C206.7 154.927 224.303 161.815 228.488 165.604C230.839 167.67 222.927 179.093 219.372 179.15Z" fill="#EBEBEB"/>
<path d="M219.369 179.148C213.979 179.206 195.574 172.777 195.574 172.777L193.969 172.317C194.485 170.825 195.861 166.922 196.434 164.913C197.18 162.387 198.04 153.375 198.04 153.375C198.04 153.375 204.863 154.236 205.723 154.523C206.64 154.925 224.243 161.813 228.428 165.601C230.837 167.668 222.924 179.091 219.369 179.148Z" fill="#0066B2"/>
<path d="M217.655 177.719C217.024 174.505 217.655 171.118 218.859 169.109C220.006 167.157 221.726 165.378 223.905 165.148C223.962 165.148 224.019 165.263 223.905 165.321C220.006 166.756 217.196 172.209 217.769 177.719C217.769 177.777 217.655 177.834 217.655 177.719Z" fill="#263238"/>
<path d="M202.743 170.484C202.514 167.729 203.259 164.399 205.438 162.563C205.495 162.505 205.61 162.62 205.61 162.677C204.463 165.26 203.66 167.729 203.144 170.484C203.087 170.713 202.8 170.713 202.743 170.484Z" fill="#263238"/>
<path d="M204.751 171.46C204.521 168.705 205.267 165.376 207.446 163.539C207.503 163.482 207.618 163.596 207.618 163.654C206.471 166.237 205.668 168.705 205.152 171.46C205.037 171.69 204.751 171.633 204.751 171.46Z" fill="#263238"/>
<path d="M206.696 172.374C206.467 169.619 207.212 166.29 209.391 164.453C209.448 164.396 209.563 164.511 209.563 164.568C208.416 167.151 207.613 169.619 207.097 172.374C206.983 172.604 206.696 172.604 206.696 172.374Z" fill="#263238"/>
<path d="M208.704 173.351C208.474 170.596 209.22 167.267 211.399 165.43C211.456 165.372 211.571 165.487 211.571 165.544C210.424 168.128 209.621 170.596 209.105 173.351C208.991 173.581 208.704 173.523 208.704 173.351Z" fill="#263238"/>
<path d="M198.845 171.861C200.852 170.483 202.228 168.244 203.661 166.35C203.833 166.178 203.661 165.891 203.489 165.834C203.489 165.776 203.489 165.719 203.432 165.719C201.024 165.719 198.214 166.522 196.207 167.843C194.946 168.646 193.685 170.368 194.774 171.803C195.749 173.238 197.641 172.664 198.845 171.861ZM196.494 171.861C193.513 171.401 195.978 168.818 196.895 168.244C197.526 167.9 198.157 167.613 198.845 167.326C200.221 166.752 201.654 166.408 203.031 166.006C202.228 166.867 201.54 167.843 200.794 168.761C199.934 169.852 198.157 172.09 196.494 171.861Z" fill="#263238"/>
<path d="M202.282 155.501C200.447 155.616 199.931 157.683 200.16 159.118C200.504 161.528 201.651 164.169 203.199 166.063C203.257 166.121 203.314 166.121 203.314 166.063C203.486 166.178 203.773 166.121 203.83 165.891C204.346 163.538 205.149 161.069 204.919 158.658C204.747 157.223 204.002 155.444 202.282 155.501ZM203.83 162.16C203.601 163.308 203.314 164.456 203.142 165.661C202.569 164.284 201.938 162.964 201.479 161.586C201.25 160.897 201.078 160.208 200.906 159.519C200.734 158.429 201.135 154.87 203.371 156.879C204.69 157.97 204.117 160.782 203.83 162.16Z" fill="#263238"/>
<path d="M205.375 154.695C209.962 156.647 215.008 158.886 219.537 161.009C221.831 162.043 224.296 163.305 226.418 164.568C226.991 164.913 227.564 165.2 228.081 165.716C228.138 165.774 228.195 165.889 228.195 165.946C228.654 167.898 227.507 169.792 226.704 171.456C225.042 174.441 222.748 177.369 219.537 178.689C219.939 178.574 220.283 178.345 220.684 178.058C223.15 176.336 225.042 173.925 226.36 171.227C227.048 169.677 228.081 167.955 227.794 166.233C227.794 166.176 227.737 166.003 227.737 166.061C226.59 165.142 225.214 164.568 223.952 163.822C222.806 163.191 220.512 162.043 219.365 161.469C214.836 159.345 209.847 156.934 205.375 154.695Z" fill="#263238"/>
<path d="M107.68 167.09C107.68 167.09 107.68 181.612 112.84 186.09C117.198 189.878 127.576 193.667 138.068 189.017C146.841 185.114 157.907 166.057 160.258 164.105C161.003 163.474 174.707 169.96 189.213 174.265L194.316 148.262C192.023 147.86 159.054 135.921 152.403 136.839C141.91 138.274 126.601 162.957 126.601 162.957L107.68 167.09Z" fill="#263238"/>
<path d="M120.985 164.91C120.985 164.853 120.87 164.853 120.87 164.91C120.87 166.862 120.182 168.928 118.92 170.421C117.487 172.143 115.366 173.061 113.473 174.037C113.301 174.152 113.416 174.267 113.645 174.209C114.792 173.865 115.939 173.463 117.028 172.889C118.003 172.315 118.92 171.626 119.551 170.708C120.813 169.043 121.329 167.034 120.985 164.91Z" fill="#37474F"/>
<path d="M183.992 171.456C185.082 166.863 184.795 168.184 185.827 163.534C186.343 161.296 188.866 149.93 188.981 147.691C188.981 147.634 188.923 147.634 188.866 147.691C188.063 149.758 185.77 161.181 185.311 163.419C184.394 168.069 184.68 166.749 183.82 171.398C183.82 171.57 183.935 171.57 183.992 171.456Z" fill="#37474F"/>
<path d="M126.771 162.898C125.682 164.563 124.363 166.859 123.102 168.352C123.79 166.285 124.994 164.219 126.771 162.898Z" fill="#37474F"/>
<path d="M109.805 168.122C110.091 170.188 110.435 172.312 110.837 174.378C111.582 177.306 111.811 180.865 114.162 182.989C118.061 186.433 123.566 187.925 128.669 187.581C132.912 187.351 136.352 184.481 139.276 181.611C143.691 177.134 147.303 171.91 150.801 166.629L154.298 161.348C154.585 160.889 154.872 160.487 155.216 160.028C155.445 159.684 155.846 159.167 156.363 159.282C157.567 159.454 158.713 159.913 159.86 160.315C167.773 163.243 175.341 167.089 183.426 169.442C175.284 167.318 167.601 163.644 159.688 160.774C158.599 160.43 157.223 159.799 156.076 159.856C154.986 160.889 152.177 165.653 151.259 166.974C147.762 172.255 144.15 177.536 139.62 182.013C136.639 184.94 133.026 187.868 128.669 188.097C123.394 188.384 117.832 186.777 113.876 183.218C111.467 180.98 111.295 177.363 110.665 174.378C110.321 172.312 110.034 170.246 109.805 168.122Z" fill="#37474F"/>
<path d="M189.842 171.053L189.268 174.325V174.382C181.986 172.43 174.189 169.503 167.193 166.69C165.015 165.887 162.606 164.796 160.428 164.394C159.453 165.37 158.708 166.518 157.905 167.609C152.687 174.956 147.527 182.763 140.016 187.986C147.24 182.476 152.286 174.669 157.446 167.322C158.306 166.174 158.994 164.968 160.084 163.935C160.37 163.763 160.714 163.82 160.944 163.878C163.18 164.452 165.244 165.37 167.365 166.174C174.361 168.986 182.044 172.086 189.211 174.267L189.154 174.325L189.842 171.053Z" fill="#37474F"/>
<path d="M224.537 95.6328H198.047V110.213H224.537V95.6328Z" fill="#455A64"/>
<path d="M221.49 110.211C219.942 112.966 216.961 115.434 211.284 115.434C205.608 115.434 202.626 112.966 201.078 110.211H221.49Z" fill="#455A64"/>
<path d="M221.493 110.211C221.034 111.015 220.461 111.761 219.773 112.45L201.539 111.072C201.367 110.785 201.195 110.498 201.023 110.211H221.493Z" fill="#37474F"/>
<path d="M225.28 98.3878L197.242 100.971V99.7081L225.28 97.125V98.3878Z" fill="#37474F"/>
<path d="M225.28 102.232L197.242 104.872V103.552L225.28 100.969V102.232Z" fill="#37474F"/>
<path d="M225.28 106.083L197.242 108.724V107.403L225.28 104.82V106.083Z" fill="#37474F"/>
<path d="M231.757 66.7578V81.2803C231.757 82.5431 231.241 83.806 230.323 84.7244L224.991 90.0627C224.073 90.9811 223.557 92.1865 223.557 93.5067V95.688H198.902V93.5067C198.902 92.2439 198.386 90.9811 197.469 90.0627L192.137 84.7244C191.219 83.806 190.703 82.6005 190.703 81.2803V66.7578H231.757Z" fill="#455A64"/>
<path d="M223.559 95.6344V93.4531L198.961 94.5437V95.6344H223.559Z" fill="#37474F"/>
<path d="M231.754 73.5859H190.758V74.447H231.754V73.5859Z" fill="#37474F"/>
<path d="M192.883 61.2445C190.934 61.2445 189.099 59.9816 188.468 57.9726C187.723 55.5617 189.099 52.9787 191.507 52.2325L228.26 40.8671C230.669 40.1208 233.249 41.4985 233.994 43.9093C234.74 46.3202 233.363 48.9032 230.955 49.6494L194.202 61.0149C193.801 61.1871 193.342 61.2445 192.883 61.2445Z" fill="#0066B2"/>
<path opacity="0.3" d="M192.883 61.2445C190.934 61.2445 189.099 59.9816 188.468 57.9726C187.723 55.5617 189.099 52.9787 191.507 52.2325L228.26 40.8671C230.669 40.1208 233.249 41.4985 233.994 43.9093C234.74 46.3202 233.363 48.9032 230.955 49.6494L194.202 61.0149C193.801 61.1871 193.342 61.2445 192.883 61.2445Z" fill="white"/>
<path d="M192.883 49.9398C190.934 49.9398 189.099 48.6769 188.468 46.6679C187.723 44.2571 189.099 41.674 191.507 40.9278L228.26 29.5624C230.669 28.8162 233.249 30.1938 233.994 32.6046C234.74 35.0155 233.363 37.5985 230.955 38.3447L194.202 49.7102C193.801 49.8824 193.342 49.9398 192.883 49.9398Z" fill="#0066B2"/>
<path opacity="0.3" d="M192.883 49.9398C190.934 49.9398 189.099 48.6769 188.468 46.6679C187.723 44.2571 189.099 41.674 191.507 40.9278L228.26 29.5624C230.669 28.8162 233.249 30.1938 233.994 32.6046C234.74 35.0155 233.363 37.5985 230.955 38.3447L194.202 49.7102C193.801 49.8824 193.342 49.9398 192.883 49.9398Z" fill="white"/>
<path d="M192.883 38.6273C190.934 38.6273 189.099 37.3644 188.468 35.3554C187.723 32.9446 189.099 30.3615 191.507 29.6153L228.26 18.2499C230.669 17.5037 233.249 18.8813 233.994 21.2921C234.74 23.703 233.363 26.286 230.955 27.0322L194.259 38.4551C193.801 38.5699 193.342 38.6273 192.883 38.6273Z" fill="#0066B2"/>
<path opacity="0.3" d="M192.883 38.6273C190.934 38.6273 189.099 37.3644 188.468 35.3554C187.723 32.9446 189.099 30.3615 191.507 29.6153L228.26 18.2499C230.669 17.5037 233.249 18.8813 233.994 21.2921C234.74 23.703 233.363 26.286 230.955 27.0322L194.259 38.4551C193.801 38.5699 193.342 38.6273 192.883 38.6273Z" fill="white"/>
<path d="M192.883 27.3226C190.934 27.3226 189.099 26.0598 188.468 24.0507C187.723 21.6399 189.099 19.0568 191.507 18.3106L228.26 6.94518C230.669 6.19896 233.249 7.57659 233.994 9.98744C234.74 12.3983 233.363 14.9813 230.955 15.7276L194.202 27.093C193.801 27.2652 193.342 27.3226 192.883 27.3226Z" fill="#0066B2"/>
<path opacity="0.3" d="M192.883 27.3226C190.934 27.3226 189.099 26.0598 188.468 24.0507C187.723 21.6399 189.099 19.0568 191.507 18.3106L228.26 6.94518C230.669 6.19896 233.249 7.57659 233.994 9.98744C234.74 12.3983 233.363 14.9813 230.955 15.7276L194.202 27.093C193.801 27.2652 193.342 27.3226 192.883 27.3226Z" fill="white"/>
<path d="M205.345 53.2656H216.469V6.77071H205.345V53.2656Z" fill="#0066B2"/>
<path opacity="0.3" d="M205.345 53.2656H216.469V6.77071H205.345V53.2656Z" fill="white"/>
<path d="M192.883 16.0165C190.934 16.0165 189.099 14.7537 188.468 12.7446C187.723 10.3338 189.099 7.75075 191.507 7.00453L207.218 0.460804C209.626 -0.285411 212.206 1.09222 212.951 3.50306C213.697 5.91391 212.321 8.49696 209.913 9.24318L194.202 15.7869C193.801 15.9591 193.342 16.0165 192.883 16.0165Z" fill="#0066B2"/>
<path opacity="0.5" d="M192.883 16.0165C190.934 16.0165 189.099 14.7537 188.468 12.7446C187.723 10.3338 189.099 7.75075 191.507 7.00453L207.218 0.460804C209.626 -0.285411 212.206 1.09222 212.951 3.50306C213.697 5.91391 212.321 8.49696 209.913 9.24318L194.202 15.7869C193.801 15.9591 193.342 16.0165 192.883 16.0165Z" fill="white"/>
<path d="M229.634 61.2445C231.583 61.2445 233.418 59.9816 234.049 57.9726C234.794 55.5617 233.418 52.9787 231.01 52.2325L194.257 40.8671C191.849 40.1208 189.268 41.4985 188.523 43.9093C187.778 46.3202 189.154 48.9032 191.562 49.6494L228.315 61.0149C228.716 61.1871 229.175 61.2445 229.634 61.2445Z" fill="#0066B2"/>
<path opacity="0.5" d="M229.634 61.2445C231.583 61.2445 233.418 59.9816 234.049 57.9726C234.794 55.5617 233.418 52.9787 231.01 52.2325L194.257 40.8671C191.849 40.1208 189.268 41.4985 188.523 43.9093C187.778 46.3202 189.154 48.9032 191.562 49.6494L228.315 61.0149C228.716 61.1871 229.175 61.2445 229.634 61.2445Z" fill="white"/>
<path d="M229.634 49.9398C231.583 49.9398 233.418 48.6769 234.049 46.6679C234.794 44.2571 233.418 41.674 231.01 40.9278L194.257 29.5624C191.849 28.8162 189.268 30.1938 188.523 32.6046C187.778 35.0155 189.154 37.5985 191.562 38.3447L228.315 49.7102C228.716 49.8824 229.175 49.9398 229.634 49.9398Z" fill="#0066B2"/>
<path opacity="0.5" d="M229.634 49.9398C231.583 49.9398 233.418 48.6769 234.049 46.6679C234.794 44.2571 233.418 41.674 231.01 40.9278L194.257 29.5624C191.849 28.8162 189.268 30.1938 188.523 32.6046C187.778 35.0155 189.154 37.5985 191.562 38.3447L228.315 49.7102C228.716 49.8824 229.175 49.9398 229.634 49.9398Z" fill="white"/>
<path d="M229.634 38.6273C231.583 38.6273 233.418 37.3644 234.049 35.3554C234.794 32.9446 233.418 30.3615 231.01 29.6153L194.257 18.2499C191.849 17.5037 189.268 18.8813 188.523 21.2921C187.778 23.703 189.154 26.286 191.562 27.0322L228.258 38.4551C228.716 38.5699 229.175 38.6273 229.634 38.6273Z" fill="#0066B2"/>
<path opacity="0.5" d="M229.634 38.6273C231.583 38.6273 233.418 37.3644 234.049 35.3554C234.794 32.9446 233.418 30.3615 231.01 29.6153L194.257 18.2499C191.849 17.5037 189.268 18.8813 188.523 21.2921C187.778 23.703 189.154 26.286 191.562 27.0322L228.258 38.4551C228.716 38.5699 229.175 38.6273 229.634 38.6273Z" fill="white"/>
<path d="M229.634 27.3226C231.583 27.3226 233.418 26.0598 234.049 24.0507C234.794 21.6399 233.418 19.0568 231.01 18.3106L194.257 6.94518C191.849 6.19896 189.268 7.57659 188.523 9.98744C187.778 12.3983 189.154 14.9813 191.562 15.7276L228.315 27.093C228.716 27.2652 229.175 27.3226 229.634 27.3226Z" fill="#0066B2"/>
<path opacity="0.5" d="M229.634 27.3226C231.583 27.3226 233.418 26.0598 234.049 24.0507C234.794 21.6399 233.418 19.0568 231.01 18.3106L194.257 6.94518C191.849 6.19896 189.268 7.57659 188.523 9.98744C187.778 12.3983 189.154 14.9813 191.562 15.7276L228.315 27.093C228.716 27.2652 229.175 27.3226 229.634 27.3226Z" fill="white"/>
<path d="M229.637 16.0138C231.587 16.0138 233.421 14.751 234.052 12.7419C234.797 10.3311 233.421 7.74803 231.013 7.00182L209.913 0.515491C207.505 -0.230724 204.925 1.1469 204.179 3.55775C203.434 5.9686 204.81 8.55165 207.218 9.29786L228.261 15.8416C228.72 15.9564 229.178 16.0138 229.637 16.0138Z" fill="#0066B2"/>
<path opacity="0.5" d="M229.637 16.0138C231.587 16.0138 233.421 14.751 234.052 12.7419C234.797 10.3311 233.421 7.74803 231.013 7.00182L209.913 0.515491C207.505 -0.230724 204.925 1.1469 204.179 3.55775C203.434 5.9686 204.81 8.55165 207.218 9.29786L228.261 15.8416C228.72 15.9564 229.178 16.0138 229.637 16.0138Z" fill="white"/>
<g opacity="0.3">
<path d="M225.565 5.39546V14.9815L213.18 11.1356V1.49219L225.565 5.39546Z" fill="white"/>
<path d="M213.18 12.7969L225.565 16.7002V26.2861L213.18 22.4403V12.7969Z" fill="white"/>
<path d="M213.18 24.1094L225.565 28.0127V37.5986L213.18 33.7528V24.1094Z" fill="white"/>
<path d="M213.18 35.4141L225.565 39.3173V48.9033L213.18 45.0575V35.4141Z" fill="white"/>
<path d="M213.18 46.7266L225.565 50.5724V60.2158L213.18 56.3699V46.7266Z" fill="white"/>
</g>
<path d="M200.965 63.777C202.915 63.777 204.75 62.5141 205.38 60.5051C206.126 58.0943 204.75 55.5112 202.341 54.765L194.257 52.2967C191.849 51.5505 189.268 52.9282 188.523 55.339C187.778 57.7499 189.154 60.3329 191.562 61.0791L199.647 63.5474C200.048 63.7196 200.507 63.777 200.965 63.777Z" fill="#0066B2"/>
<path opacity="0.5" d="M200.965 63.777C202.915 63.777 204.75 62.5141 205.38 60.5051C206.126 58.0943 204.75 55.5112 202.341 54.765L194.257 52.2967C191.849 51.5505 189.268 52.9282 188.523 55.339C187.778 57.7499 189.154 60.3329 191.562 61.0791L199.647 63.5474C200.048 63.7196 200.507 63.777 200.965 63.777Z" fill="white"/>
<path d="M221.555 63.777C219.606 63.777 217.771 62.5141 217.14 60.5051C216.395 58.0943 217.771 55.5112 220.179 54.765L228.264 52.2967C230.672 51.5505 233.252 52.9282 233.997 55.339C234.743 57.7499 233.367 60.3329 230.959 61.0791L222.874 63.5474C222.473 63.7196 222.014 63.777 221.555 63.777Z" fill="#0066B2"/>
<path opacity="0.5" d="M221.555 63.777C219.606 63.777 217.771 62.5141 217.14 60.5051C216.395 58.0943 217.771 55.5112 220.179 54.765L228.264 52.2967C230.672 51.5505 233.252 52.9282 233.997 55.339C234.743 57.7499 233.367 60.3329 230.959 61.0791L222.874 63.5474C222.473 63.7196 222.014 63.777 221.555 63.777Z" fill="white"/>
<path d="M216.681 62.1641H227.861L229.123 66.7562H215.477L216.681 62.1641Z" fill="#455A64"/>
<path d="M215.477 66.7557L215.878 65.1484L228.893 65.9521L229.123 66.7557H215.477Z" fill="#37474F"/>
<path d="M205.786 62.1641H194.605L193.344 66.7562H207.047L205.786 62.1641Z" fill="#455A64"/>
<path d="M207.047 66.7557L206.589 65.1484L193.573 65.9521L193.344 66.7557H207.047Z" fill="#37474F"/>
<path d="M98.9629 94.7658C99.7083 101.769 105.958 106.877 112.953 106.131C115.763 105.844 118.286 104.639 120.235 102.859L126.599 103.778L123.389 98.2672C124.191 96.373 124.478 94.3066 124.249 92.1253C123.503 85.1224 117.254 80.0137 110.258 80.7599C103.321 81.5061 98.2176 87.7628 98.9629 94.7658Z" fill="white"/>
<path d="M102.746 84.2637C104.122 82.8861 105.842 81.8529 107.677 81.2215C109.512 80.59 111.519 80.4178 113.468 80.7048C115.418 80.9919 117.31 81.6807 118.915 82.7713C120.521 83.8619 121.897 85.3543 122.929 87.019C124.936 90.4056 125.28 94.7681 123.732 98.3844V98.1548L126.885 103.665L127.114 104.067L126.656 104.01L120.291 103.034L120.463 102.976C118.686 104.584 116.507 105.674 114.156 106.076C113.583 106.191 113.009 106.248 112.379 106.248C111.805 106.306 111.175 106.248 110.601 106.191C109.455 106.076 108.25 105.847 107.161 105.387C106.072 104.928 105.04 104.412 104.065 103.665C103.549 103.321 103.147 102.919 102.746 102.517C102.345 102.058 101.943 101.656 101.599 101.197C100.166 99.3602 99.3059 97.0642 99.0192 94.7107C98.5032 90.9222 99.9366 86.9042 102.746 84.2637ZM101.542 101.254C101.886 101.714 102.287 102.115 102.689 102.575C103.147 102.976 103.549 103.378 104.008 103.723C104.925 104.412 106.014 104.986 107.104 105.387C108.193 105.847 109.34 106.019 110.487 106.134C111.06 106.134 111.633 106.191 112.207 106.134C112.78 106.134 113.354 106.019 113.927 105.904C116.22 105.445 118.342 104.354 120.062 102.747L120.119 102.689H120.234L126.598 103.608L126.369 103.952L123.158 98.4418L123.101 98.327L123.158 98.2122C123.846 96.4328 124.19 94.5385 124.076 92.6443C123.904 90.75 123.445 88.8558 122.47 87.2486C121.495 85.5839 120.234 84.1489 118.629 83.0583C117.08 81.9677 115.246 81.2789 113.354 80.9919C111.461 80.7048 109.512 80.8196 107.677 81.3937C105.842 81.9677 104.18 83.0009 102.746 84.3211C99.9366 86.9616 98.5032 90.9796 98.8472 94.8255C99.2485 97.1216 100.109 99.4176 101.542 101.254Z" fill="#263238"/>
<path d="M111.746 106.476C111.402 106.476 111.115 106.476 110.829 106.418H110.542C109.567 106.303 108.248 106.074 107.044 105.615C105.898 105.155 104.808 104.581 103.948 103.893C103.604 103.663 103.26 103.376 102.973 103.089C102.859 102.974 102.744 102.859 102.629 102.744C102.515 102.63 102.4 102.457 102.285 102.343C101.999 102.056 101.712 101.711 101.483 101.367C100.049 99.5874 99.1891 97.2914 98.9024 94.8231C98.501 90.9199 99.9345 86.8444 102.744 84.1465C104.177 82.7689 105.898 81.7357 107.732 81.1043C109.567 80.4729 111.574 80.3007 113.581 80.5877C115.588 80.8747 117.48 81.5635 119.085 82.6541C120.748 83.7447 122.124 85.2372 123.099 86.9592C125.106 90.4033 125.392 94.7083 123.959 98.2672L127.284 104.065C127.284 104.122 127.284 104.18 127.284 104.237C127.227 104.294 127.227 104.294 127.17 104.294L120.461 103.261C118.684 104.811 116.505 105.902 114.211 106.303C113.638 106.418 113.007 106.476 112.434 106.476C112.147 106.476 111.975 106.476 111.746 106.476ZM99.0744 94.7657C99.3611 97.1766 100.278 99.3578 101.655 101.137C101.884 101.482 102.171 101.769 102.457 102.056C102.572 102.17 102.687 102.285 102.801 102.457C102.916 102.572 103.031 102.687 103.145 102.802C103.432 103.089 103.776 103.376 104.12 103.606C104.98 104.237 106.012 104.811 107.159 105.27C108.306 105.729 109.567 105.902 110.542 106.016H110.829C111.287 106.016 111.803 106.074 112.262 106.016C112.835 106.016 113.409 105.902 113.982 105.787C116.218 105.328 118.34 104.237 120.002 102.687L120.06 102.63C120.117 102.572 120.117 102.572 120.175 102.572L125.908 103.376L123.041 98.4394C123.041 98.382 123.041 98.382 123.041 98.3246L123.099 98.2098C123.787 96.4878 124.131 94.5935 123.959 92.6993C123.787 90.6903 123.271 88.9108 122.353 87.361C121.436 85.7538 120.117 84.3187 118.569 83.2281C117.078 82.1949 115.244 81.4487 113.351 81.1617C111.459 80.8747 109.51 81.0469 107.732 81.5635C105.955 82.1375 104.235 83.1133 102.859 84.4335C100.164 86.9592 98.6731 90.9773 99.0744 94.7657ZM120.232 102.802C119.085 103.893 117.766 104.696 116.39 105.27C117.709 104.754 118.97 104.007 120.06 103.032C120.06 102.974 120.117 102.917 120.175 102.859L120.347 102.802C120.404 102.802 120.461 102.802 120.519 102.859L126.252 103.72L126.138 103.548L120.232 102.802ZM126.654 103.893H126.826L126.768 103.778L126.654 103.893ZM126.31 103.376L126.539 103.433L123.729 98.5542H123.672C123.615 98.5542 123.557 98.4968 123.557 98.4394V98.2098C123.557 98.1524 123.615 98.095 123.672 98.0376C123.672 98.0376 123.672 98.0376 123.729 98.0376C125.106 94.5361 124.761 90.4033 122.812 87.074C121.837 85.4094 120.461 83.9169 118.856 82.8837C117.365 81.8505 115.588 81.1617 113.753 80.8747C115.588 81.2191 117.365 81.9079 118.798 82.9411C120.347 84.0317 121.723 85.5242 122.64 87.1314C123.557 88.6812 124.131 90.5181 124.303 92.5845C124.417 94.4787 124.131 96.4304 123.385 98.2098V98.2672L126.31 103.376Z" fill="#263238"/>
<path d="M110.197 100.739L104.75 95.228L106.585 93.3912L109.796 96.663L116.389 86.2734L118.568 87.6511L110.197 100.739Z" fill="#0066B2"/>
</g>
<defs>
<clipPath id="clip0_743_2956">
<rect width="236" height="254" fill="white"/>
</clipPath>
</defs>
</svg>
