<svg width="332" height="190" viewBox="0 0 332 190" fill="none" xmlns="http://www.w3.org/2000/svg">
<path d="M288.38 1.89543C248.898 -0.98868 172.41 1.53492 132.103 4.5237C98.2144 7.02403 65.71 2.93046 43.6023 1.89543C19.82 0.779001 0.445312 17.2231 0.445312 36.1443V154.056C0.445312 172.663 19.3897 188.444 43.6023 188.304C72.2341 188.095 122.869 185.92 159.106 186.432C171.748 186.537 182.086 187.455 211.73 188.828C214.812 188.828 236.466 190.363 262.365 189.921C263.539 189.886 265.97 189.851 268.214 189.746C276.878 189.432 285.31 188.711 289.473 188.176C293.601 187.665 297.567 186.874 301.672 185.641C302.347 185.444 302.579 185.374 302.975 185.234C304.103 184.885 304.533 184.723 305.149 184.502C308.696 183.176 311.732 181.838 315.116 179.803C325.094 173.768 331.548 164.941 331.548 154.067V36.1443C331.537 17.2231 312.104 3.62822 288.38 1.89543Z" fill="#DAEBE8"/>
<path d="M174.057 153.257C173.278 153.397 172.766 154.153 172.906 154.92L175.115 166.934C175.255 167.713 176.011 168.224 176.778 168.085C177.558 167.945 178.069 167.189 177.93 166.422L175.72 154.409C175.581 153.629 174.825 153.118 174.057 153.257Z" fill="#BD7F58"/>
<path d="M177.659 152.617C176.879 152.756 176.368 153.512 176.507 154.28L178.984 167.723C179.124 168.503 179.88 169.014 180.647 168.875C181.427 168.735 181.938 167.979 181.799 167.212L179.322 153.768C179.182 152.989 178.426 152.477 177.659 152.617Z" fill="#BD7F58"/>
<path d="M177.339 145.433L177.001 145.817C176.373 146.538 176.455 147.631 177.176 148.259L184.165 154.353C184.886 154.981 185.979 154.899 186.607 154.178L186.945 153.794C187.573 153.073 187.491 151.98 186.77 151.352L179.781 145.258C179.06 144.642 177.967 144.723 177.339 145.433Z" fill="#BD7F58"/>
<path d="M181.26 151.937C180.481 152.077 179.969 152.832 180.109 153.6L182.098 164.369C182.237 165.148 182.993 165.66 183.761 165.52C184.54 165.381 185.051 164.625 184.912 163.857L182.923 153.088C182.784 152.309 182.039 151.797 181.26 151.937Z" fill="#BD7F58"/>
<path d="M170.341 146.875C170.341 146.875 167.55 154.562 170.621 159.493C171.679 161.203 182.238 158.958 182.843 156.783C183.448 154.609 181.401 147.468 181.401 147.468L170.341 146.875Z" fill="#BD7F58"/>
<path d="M170.471 153.921C169.703 154.061 169.18 154.817 169.319 155.584L171.296 166.33C171.436 167.098 172.192 167.621 172.959 167.481C173.727 167.342 174.25 166.586 174.111 165.818L172.134 155.073C171.994 154.294 171.238 153.782 170.471 153.921Z" fill="#BD7F58"/>
<path d="M183.568 148.49C185.01 132.593 188.324 109.869 195.907 91.8665C197.663 87.6915 198.395 86.1332 199.768 83.8538C200.872 82.0163 198.895 77.9925 195.779 76.0737C192.86 74.2711 188.301 74.5618 187.58 75.4573C186.359 76.9691 185.045 79.8765 183.021 84.4934C175.95 100.53 171.717 121.254 170.008 147.967L183.568 148.49Z" fill="#BD7F58"/>
<path d="M214.706 188.953C214.648 188.953 214.602 188.953 214.544 188.941C213.613 188.894 212.671 188.86 211.718 188.813C210.438 188.755 209.147 188.697 207.822 188.639C207.426 188.604 207.054 188.592 206.659 188.58C205.821 188.534 204.961 188.487 204.089 188.464C200.646 188.29 197.076 188.104 193.366 187.906C192.762 187.871 192.145 187.848 191.529 187.813C188.924 187.673 186.261 187.534 183.516 187.394C183.028 187.371 182.551 187.348 182.062 187.313C182.028 186.371 181.981 185.441 181.934 184.499C181.876 183.243 181.818 182.01 181.772 180.789C181.609 177.137 181.458 173.648 181.33 170.334C181.307 169.741 181.283 169.159 181.26 168.578C181.237 168.054 181.213 167.543 181.202 167.031C181.155 165.775 181.109 164.542 181.062 163.333C181.051 163.054 181.039 162.775 181.027 162.496C181.016 162.24 181.004 161.972 180.993 161.716C180.958 160.635 180.911 159.565 180.876 158.53C180.876 158.472 180.876 158.414 180.865 158.344C180.865 158.286 180.865 158.239 180.853 158.181C180.853 158.065 180.841 157.948 180.841 157.832C180.795 156.669 180.76 155.529 180.725 154.425C180.702 153.669 180.679 152.924 180.655 152.203C180.644 151.936 180.632 151.68 180.632 151.424C180.632 151.389 180.632 151.354 180.632 151.331C180.597 150.331 180.574 149.354 180.539 148.412C180.527 148.087 180.516 147.773 180.516 147.459C180.504 147.273 180.504 147.086 180.504 146.9C180.492 146.575 180.481 146.249 180.469 145.924C180.434 144.621 180.399 143.377 180.365 142.19C180.341 141.155 180.306 140.167 180.283 139.225C180.283 139.027 180.271 138.818 180.271 138.62C180.26 138.027 180.237 137.457 180.225 136.911C180.202 136.038 180.19 135.224 180.167 134.445C180.167 134.189 180.155 133.934 180.155 133.689C180.155 133.631 180.155 133.573 180.155 133.515C180.039 128.433 180.016 125.781 180.016 125.781L186.319 127.002L187.493 127.235L196.471 128.968L203.577 130.34L210.624 131.701L210.787 134.713L210.811 135.096L210.973 138.202V138.26L211.031 139.318L211.124 141.004L211.252 143.33L211.264 143.528L211.299 144.133L211.962 156.541L212.055 158.367L212.171 160.449L212.427 163.344L212.555 164.752L212.671 166.008L212.788 167.322L212.95 169.089L213.067 170.334L213.776 178.381L214.288 184.138L214.706 188.953Z" fill="#366F90"/>
<path d="M236.365 142.743C236.086 145.092 222.805 144.801 206.535 142.743C190.265 140.684 177.613 137.16 177.903 134.811C178.182 132.462 191.301 132.171 207.57 134.23C223.84 136.288 236.655 140.393 236.365 142.743Z" fill="#331832"/>
<path d="M234.893 145.481C234.754 144.842 234.707 144.446 234.405 143.911C233.975 143.109 233.242 142.493 232.347 142.237C230.044 141.562 225.567 140.62 223.113 140.143C223.043 140.12 218.519 139.248 214.112 138.62C214.112 138.62 214.112 138.62 214.1 138.62C210.995 138.201 198.249 136.387 198.691 139.527C198.691 139.539 211.704 188.813 211.716 188.813C221.834 189.278 234.44 189.778 244.523 189.929C241.592 176.381 245.197 192.999 234.893 145.481Z" fill="#366F90"/>
<path d="M235.724 79.1068C235.724 79.1068 226.328 65.5352 209.872 66.1283C193.416 66.7214 180.996 88.3406 177.914 134.812C177.914 134.812 204.86 128.904 236.422 142.685C236.434 142.685 242.958 98.0512 235.724 79.1068Z" fill="#6DA49A"/>
<path d="M245.064 73.2354L230.83 85.2137C230.83 85.2137 200.861 88.2141 192.906 86.7721C184.951 85.33 183.719 79.4804 183.719 79.4804C183.719 79.4804 191.29 69.0953 205.687 66.5251C207.036 66.2809 208.408 66.246 209.862 66.1414C212.304 65.9669 213.944 66.2112 216.351 66.1879C238.738 66.0018 245.064 73.2354 245.064 73.2354Z" fill="#6DA49A"/>
<path d="M217.061 66.4086C215.119 66.1993 213.432 64.9782 212.665 63.1872L210.246 57.5702L209.548 55.9421L205.42 46.3594L206.141 56.291L206.571 62.2569L206.699 63.9548C206.803 65.3387 205.827 66.5714 204.466 66.8156H204.443C203.71 68.0135 202.698 70.4324 205.722 71.3976C209.281 72.5257 215.049 69.723 217.107 66.4086C217.084 66.4086 217.072 66.4086 217.061 66.4086Z" fill="#BD7F58"/>
<path d="M210.253 57.4062C210.253 57.4644 210.253 57.5109 210.242 57.569C210.009 60.7671 206.579 62.2673 206.579 62.2673L206.555 62.2441L206.125 56.2781C207.172 55.8944 208.66 55.499 209.532 55.9293C209.998 56.1735 210.277 56.6154 210.253 57.4062Z" fill="#331832"/>
<path d="M195.617 47.9465C195.617 41.5852 200.525 36.3984 205.677 36.3984C210.829 36.3984 214.283 41.5852 214.283 47.9465C214.283 54.3078 210.108 59.4597 204.944 59.4597C199.781 59.4597 195.617 54.2962 195.617 47.9465Z" fill="#BD7F58"/>
<path d="M204.039 48.0684C203.98 48.0567 203.922 48.0102 203.899 47.9405C203.853 47.8358 203.911 47.7079 204.015 47.6613C204.085 47.6381 205.504 46.9054 206.76 48.2777C206.841 48.3591 206.841 48.4987 206.748 48.5801C206.667 48.6615 206.551 48.6382 206.446 48.5684C205.469 47.9172 204.213 48.0335 204.167 48.0567C204.132 48.08 204.085 48.08 204.039 48.0684Z" fill="#331832"/>
<path d="M197.583 48.8235C197.525 48.8351 197.455 48.8119 197.397 48.7654C197.316 48.684 197.316 48.5444 197.397 48.463C197.444 48.4165 198.455 47.1721 200.165 47.9164C200.269 47.9629 200.328 48.0909 200.281 48.1955C200.235 48.3002 200.118 48.3351 200.002 48.3118C198.851 48.1025 197.746 48.7189 197.711 48.7654C197.664 48.8003 197.63 48.8119 197.583 48.8235Z" fill="#331832"/>
<path d="M206.189 50.2707C206.201 50.7824 205.922 51.2011 205.55 51.2127C205.178 51.2243 204.875 50.8289 204.852 50.3172C204.84 49.8055 205.119 49.3869 205.492 49.3752C205.864 49.3636 206.178 49.7706 206.189 50.2707Z" fill="#331832"/>
<path d="M200.144 50.6793C200.19 51.1794 199.934 51.6213 199.574 51.6562C199.213 51.6911 198.876 51.3073 198.818 50.8073C198.771 50.3072 199.027 49.8653 199.388 49.8304C199.748 49.7955 200.086 50.1676 200.144 50.6793Z" fill="#331832"/>
<path d="M231.625 120.218C231.625 120.218 227.136 115.368 223.263 115.438C219.39 115.508 214.506 118.532 216.913 118.997C219.321 119.462 222.565 119.206 222.565 119.206C222.565 119.206 215.669 120.09 216.576 121.613C217.483 123.137 223.472 122.311 223.472 122.311C223.472 122.311 215.355 124.009 216.669 125.172C217.995 126.335 224.147 124.998 224.147 124.998C224.147 124.998 216.658 126.882 218.216 128.196C219.786 129.51 224.403 126.603 225.298 128.126C226.205 129.649 230.311 135.394 234.846 133.406L231.625 120.218Z" fill="#BD7F58"/>
<path d="M225.419 119.669C225.373 119.669 225.326 119.658 225.291 119.623C224.454 118.925 222.64 119.425 222.628 119.425C222.524 119.448 222.407 119.39 222.384 119.285C222.349 119.181 222.419 119.064 222.524 119.041C222.605 119.018 224.559 118.483 225.559 119.32C225.64 119.39 225.652 119.518 225.582 119.599C225.536 119.646 225.478 119.669 225.419 119.669Z" fill="#9A603A"/>
<path d="M226.877 122.807C226.842 122.807 226.807 122.796 226.784 122.784C225.33 121.993 223.551 122.516 223.539 122.516C223.435 122.563 223.318 122.493 223.283 122.377C223.249 122.272 223.307 122.156 223.423 122.133C223.504 122.109 225.388 121.551 226.982 122.435C227.075 122.493 227.11 122.609 227.063 122.703C227.017 122.772 226.947 122.807 226.877 122.807Z" fill="#9A603A"/>
<path d="M227.346 125.485C227.3 125.485 227.242 125.461 227.207 125.427C226.381 124.601 224.23 125.206 224.206 125.217C224.102 125.241 223.985 125.182 223.962 125.078C223.927 124.973 223.997 124.857 224.102 124.833C224.195 124.81 226.509 124.159 227.498 125.147C227.579 125.229 227.579 125.357 227.498 125.427C227.451 125.473 227.405 125.485 227.346 125.485Z" fill="#9A603A"/>
<path d="M245.058 73.2309C246.256 74.9404 243.825 77.2547 238.859 80.8482C233.893 84.4417 231.719 85.721 230.532 84.0114C229.335 82.3019 230.765 79.3945 235.696 75.7545C239.324 73.0797 243.871 71.5214 245.058 73.2309Z" fill="#331832"/>
<path d="M232.016 131.866L227.632 122.191C227.027 120.865 227.527 119.283 228.748 118.586C234.97 115.027 238.563 110.771 239.447 105.921C240.668 99.1993 236.866 91.4657 233.528 86.4417C231.818 83.8716 231.632 81.3713 234.33 78.2313C235.447 76.9288 236.552 76.0217 240.122 74.5215C241.855 73.8005 243.576 73.5679 244.541 74.8122C246.053 76.7544 247.134 78.3476 249.239 82.2318C254.228 91.454 256.089 100.653 254.635 108.852C252.844 118.911 246.46 127.052 235.644 133.099C234.307 133.855 232.656 133.297 232.016 131.866Z" fill="#BD7F58"/>
<path d="M223.303 140.186C223.303 140.186 190.845 133.987 180.32 136.906L185.368 144.384L204.126 145.443L223.303 140.186Z" fill="#366F90"/>
<path d="M201.858 55.3092C201.649 55.3092 201.474 55.2976 201.346 55.2976C201.23 55.2976 201.149 55.286 201.114 55.2976C201.032 55.3209 200.951 55.2511 200.939 55.1697C200.928 55.0883 200.974 55.0069 201.056 54.9952C201.102 54.9836 201.183 54.9836 201.358 54.9952C202.137 55.0301 204.51 55.1115 205.998 53.4601C206.056 53.3904 206.149 53.3904 206.219 53.4485C206.277 53.5067 206.289 53.5997 206.231 53.6695C204.893 55.1464 202.928 55.3092 201.858 55.3092Z" fill="#331832"/>
<path d="M202.097 42.4485C202.26 41.6693 203.039 41.3669 203.249 40.6343C203.365 40.2156 203.144 39.7155 203.446 39.3666C203.644 39.1457 203.97 38.9945 204.214 38.8433C205.4 38.1455 206.691 37.5524 208.005 37.157C208.715 36.9477 208.412 35.8313 207.703 36.0522C206.203 36.5058 204.691 37.1803 203.365 38.0176C202.644 38.4712 202.144 38.9363 202.132 39.8318C202.132 40.1458 202.179 40.2621 201.993 40.5296C201.853 40.7273 201.632 40.8668 201.481 41.0645C201.225 41.3902 201.062 41.7507 200.981 42.1461C200.841 42.8671 201.946 43.1811 202.097 42.4485Z" fill="#331832"/>
<path d="M203.518 42.4843C203.623 42.0191 204.158 41.6819 204.309 41.1935C204.379 40.9492 204.355 40.6818 204.425 40.4608C204.518 40.1701 204.751 40.0189 204.96 39.8212C205.786 39.0536 206.623 38.0302 207.716 37.6348C208.402 37.3906 208.112 36.2742 207.414 36.53C206.1 37.0068 205.146 38.0768 204.158 39.0071C203.704 39.4258 203.367 39.7398 203.297 40.3678C203.251 40.798 203.158 41.0423 202.878 41.3795C202.657 41.6354 202.506 41.8447 202.425 42.182C202.25 42.8914 203.355 43.2054 203.518 42.4843Z" fill="#331832"/>
<path d="M204.589 43.0767C205.147 42.5999 205.484 41.9952 205.635 41.2974C205.786 40.6113 206.577 40.2042 206.973 39.6111C207.275 39.1343 207.531 38.6226 207.752 38.1109C207.949 37.6574 208.112 37.1806 208.682 37.4364C209.357 37.7388 209.938 36.7503 209.264 36.4479C208.647 36.1688 207.984 36.0641 207.426 36.5409C206.996 36.9131 206.833 37.448 206.589 37.9365C206.403 38.3086 206.217 38.6924 205.984 39.0297C205.728 39.4134 205.379 39.6344 205.054 39.9484C204.705 40.274 204.635 40.6578 204.519 41.1113C204.391 41.5998 204.17 41.9487 203.786 42.2743C203.205 42.7511 204.019 43.5535 204.589 43.0767Z" fill="#331832"/>
<path d="M206.245 43.1614C206.373 42.6498 206.966 42.3706 207.292 41.9752C207.687 41.4984 207.676 40.9635 207.908 40.4169C208.013 40.1727 208.234 40.0099 208.374 39.7773C208.513 39.533 208.548 39.2888 208.583 39.0097C208.653 38.4748 208.769 37.87 209.188 37.4863C209.734 36.9862 208.92 36.1721 208.374 36.6722C207.955 37.0443 207.722 37.5909 207.583 38.1142C207.513 38.3701 207.49 38.6376 207.443 38.8934C207.373 39.2772 207.106 39.4633 206.931 39.7889C206.629 40.3704 206.687 40.9751 206.187 41.4519C205.734 41.8706 205.303 42.2195 205.141 42.8358C204.943 43.5685 206.059 43.8825 206.245 43.1614Z" fill="#331832"/>
<path d="M207.364 43.7666C207.446 43.5108 208.004 43.348 208.213 43.1852C208.527 42.9409 208.69 42.6386 208.841 42.2897C209.225 41.3477 209.83 40.429 209.934 39.4056C209.969 39.0102 209.958 38.6031 210.086 38.2194C210.167 37.9868 210.306 37.7775 210.33 37.5216C210.411 36.7657 209.76 36.475 209.12 36.3819C208.399 36.2773 208.085 37.3937 208.818 37.4867C208.818 37.4867 209.295 37.5914 209.306 37.5914C209.248 37.3588 209.213 37.289 209.178 37.4169C209.167 37.4518 209.155 37.4751 209.144 37.51C209.039 37.6263 208.969 37.8938 208.923 38.0449C208.713 38.8125 208.853 39.5335 208.469 40.2778C208.283 40.6383 208.109 41.0105 207.957 41.3826C207.818 41.7315 207.748 42.092 207.434 42.3362C206.946 42.7084 206.457 42.8247 206.248 43.4759C206.027 44.1737 207.132 44.4644 207.364 43.7666Z" fill="#331832"/>
<path d="M209.115 44.3309C209.371 43.7843 210.092 43.6564 210.36 43.0633C210.523 42.6795 210.581 42.2841 210.778 41.912C210.964 41.5515 211.209 41.2026 211.337 40.8072C211.779 39.5512 211.302 38.0394 210.453 37.0858C209.964 36.5275 209.15 37.3416 209.639 37.8998C210.453 38.8186 210.499 40.028 209.929 41.063C209.79 41.3189 209.65 41.5747 209.546 41.8422C209.429 42.1213 209.418 42.5167 209.22 42.7493C208.871 43.1447 208.371 43.2378 208.127 43.7611C207.801 44.4123 208.801 45.0054 209.115 44.3309Z" fill="#331832"/>
<path d="M210.307 45.0121C210.924 44.5236 211.517 44.1282 211.749 43.3491C211.959 42.628 212.11 41.814 212.203 41.0697C212.319 40.0928 212.261 38.6856 211.435 37.9995C210.866 37.5343 210.051 38.3368 210.621 38.8136C211.168 39.2671 211.145 40.3487 211.063 40.9999C210.993 41.5814 210.842 42.1745 210.714 42.756C210.552 43.477 210.051 43.7677 209.505 44.2096C208.923 44.6632 209.737 45.4773 210.307 45.0121Z" fill="#331832"/>
<path d="M211.235 45.768C212.409 44.9888 212.828 43.663 213.037 42.3256C213.2 41.2557 213.189 40.0463 212.247 39.3369C211.653 38.8949 211.084 39.8951 211.665 40.3254C212.154 40.6859 211.991 41.6977 211.898 42.2093C211.723 43.1513 211.502 44.198 210.653 44.7678C210.037 45.1865 210.618 46.1866 211.235 45.768Z" fill="#331832"/>
<path d="M211.929 46.3848C213.08 45.8149 213.696 44.9427 213.789 43.6635C213.859 42.6982 213.917 41.419 213.278 40.6282C212.812 40.0467 212.01 40.8724 212.464 41.4422C212.615 41.6283 212.615 42.0586 212.638 42.2912C212.673 42.7099 212.673 43.1285 212.65 43.5472C212.638 43.7681 212.626 43.9775 212.557 44.1868C212.359 44.8264 211.917 45.1172 211.347 45.3963C210.684 45.7219 211.266 46.7104 211.929 46.3848Z" fill="#331832"/>
<path d="M200.911 42.4632C201.062 42.0329 201.283 41.6491 201.574 41.3118C201.783 41.0793 202.015 40.8699 202.155 40.5792C202.329 40.2303 202.341 39.8349 202.469 39.4744C202.597 39.1371 202.795 38.8231 203.039 38.5557C203.562 37.9858 204.248 37.6137 204.981 37.3811C205.376 37.2648 205.772 37.1718 206.179 37.1136C206.609 37.0438 207.191 36.9159 207.598 37.0787C208.284 37.3578 208.586 36.2414 207.9 35.9739C207.086 35.6483 205.807 35.9739 204.993 36.1832C204.074 36.4158 203.19 36.8345 202.481 37.4741C201.841 38.0556 201.411 38.7882 201.225 39.6256C201.108 40.1722 200.759 40.4396 200.434 40.8699C200.143 41.2653 199.934 41.6956 199.771 42.1608C199.55 42.8586 200.666 43.1493 200.911 42.4632Z" fill="#331832"/>
<path d="M199.337 42.4914C199.767 41.782 200.233 41.0842 200.628 40.3516C200.989 39.6887 201.116 38.7816 201.617 38.2234C202.5 37.2349 204.233 36.9907 205.489 37.0721C206.233 37.1186 206.222 35.9673 205.489 35.9208C204.012 35.8277 202.268 36.1766 201.105 37.1302C200.361 37.7466 200.233 38.5258 199.849 39.3515C199.442 40.2469 198.86 41.0726 198.349 41.9099C197.953 42.5379 198.953 43.1194 199.337 42.4914Z" fill="#331832"/>
<path d="M198.287 42.9057C197.892 42.394 198.299 41.6846 198.566 41.2311C198.857 40.731 199.125 40.2077 199.508 39.7774C200.229 38.9517 201.067 38.1144 202.137 37.7771C202.834 37.5562 202.544 36.4397 201.834 36.6723C200.381 37.1375 199.066 38.3353 198.206 39.5797C197.38 40.7775 196.415 42.394 197.473 43.7314C197.927 44.3013 198.741 43.4872 198.287 42.9057Z" fill="#331832"/>
<path d="M197.148 44.2976C196.508 42.8788 197.648 41.4949 198.753 40.7041C199.346 40.2738 198.776 39.2853 198.171 39.7155C196.485 40.9134 195.206 42.809 196.148 44.879C196.462 45.5535 197.45 44.9604 197.148 44.2976Z" fill="#331832"/>
<path d="M196.507 45.6932C196.065 45.0071 196.705 44.1 196.914 43.4255C197.135 42.7161 196.03 42.4137 195.809 43.1231C195.472 44.1697 194.844 45.2164 195.518 46.2747C195.914 46.891 196.914 46.3096 196.507 45.6932Z" fill="#331832"/>
<path d="M214.306 49.4892C215.279 48.3952 215.364 46.8819 214.496 46.1091C213.627 45.3364 212.134 45.5969 211.161 46.6909C210.188 47.785 210.103 49.2983 210.971 50.071C211.84 50.8438 213.333 50.5833 214.306 49.4892Z" fill="#BD7F58"/>
<path d="M209.421 37.8176C211.096 36.9686 213.096 37.5966 214.48 38.713C216.166 40.0737 216.934 42.1554 217.352 44.2254C218.201 48.4702 217.666 53.2848 220.376 56.9597C221.481 58.4599 222.958 59.6345 224.144 61.0765C225.388 62.6 225.772 64.3212 224.912 66.147C223.993 68.0891 222.574 69.7172 221.713 71.6942C220.864 73.6713 220.364 75.7646 220.062 77.8928C219.364 82.8353 219.62 87.8825 218.573 92.7785C218.364 93.7437 219.841 94.1508 220.05 93.1855C221.027 88.6035 220.899 83.8936 221.423 79.2534C221.679 76.9857 222.132 74.7063 223.004 72.5781C223.865 70.4848 225.4 68.7869 226.33 66.7401C227.203 64.8096 227.144 62.7744 225.981 60.9719C224.923 59.3321 223.353 58.1226 222.097 56.6573C218.981 53.0057 219.76 47.784 218.76 43.3997C218.201 40.9575 217.085 38.6549 214.992 37.1896C213.142 35.8871 210.735 35.4684 208.665 36.5034C207.77 36.9337 208.537 38.2595 209.421 37.8176Z" fill="#331832"/>
<path d="M209.44 37.6898C210.963 36.5501 212.999 36.7711 214.557 37.748C216.266 38.8295 217.267 40.8065 217.906 42.6556C218.639 44.7954 219.011 47.0516 219.779 49.1797C220.546 51.3079 221.779 53.1338 223.174 54.8898C225.745 58.1461 229.478 62.0303 228.396 66.5774C227.908 68.6359 226.617 70.3919 225.57 72.2061C224.5 74.0668 223.674 76.0904 223.14 78.172C221.942 82.8471 222.151 87.871 223.802 92.4065C224.14 93.3253 225.617 92.9299 225.279 91.9995C223.744 87.778 223.488 83.1611 224.558 78.7884C225.105 76.5672 225.989 74.4855 227.163 72.5201C228.28 70.6478 229.559 68.7638 229.954 66.5774C230.827 61.8094 227.535 57.867 224.744 54.4246C223.233 52.5639 221.872 50.6334 221.104 48.3308C220.36 46.0979 219.988 43.7604 219.127 41.5624C218.302 39.4226 217.011 37.2944 214.917 36.1896C212.987 35.1662 210.475 35.0034 208.661 36.3641C207.882 36.9455 208.649 38.2829 209.44 37.6898Z" fill="#331832"/>
<path d="M210.727 38.4608C212.227 38.9725 213.1 40.4494 213.507 41.9031C214.053 43.8918 213.751 46.0083 213.739 48.0435C213.716 51.9626 215.274 55.4282 217.251 58.7194C218.228 60.3359 219.333 61.8942 220.217 63.5689C221.089 65.2202 219.81 67.174 218.775 68.4649C217.693 69.8255 216.391 70.9885 215.228 72.2677C214.007 73.6167 212.96 75.1053 212.123 76.7218C210.169 80.4432 209.262 84.595 208.971 88.7583C208.901 89.7468 210.436 89.7352 210.506 88.7583C210.762 84.9438 211.599 81.0945 213.344 77.6754C214.228 75.9543 215.332 74.3959 216.647 72.9771C217.879 71.663 219.193 70.4302 220.275 68.9882C221.31 67.6159 222.368 65.7203 221.996 63.941C221.798 63.0106 221.205 62.1733 220.717 61.3825C220.205 60.5452 219.67 59.7079 219.147 58.8705C218.112 57.2075 217.1 55.498 216.367 53.6722C215.588 51.7184 215.239 49.7414 215.274 47.6481C215.309 45.4152 215.577 43.101 214.821 40.9379C214.193 39.1353 212.995 37.577 211.134 36.949C210.204 36.6699 209.797 38.1468 210.727 38.4608Z" fill="#331832"/>
<path d="M212.298 38.3057C214.031 38.7127 215.148 40.2478 215.613 41.8992C216.206 44.0274 215.915 46.2603 215.938 48.435C215.962 50.4236 216.287 52.3309 217.229 54.0985C218.067 55.6453 219.206 56.9827 220.23 58.4131C221.241 59.8202 222.172 61.367 222.358 63.1347C222.567 65.1814 221.916 67.2282 221.009 69.0308C220.055 70.9148 218.776 72.6243 217.601 74.3804C216.462 76.1015 215.462 77.8808 214.787 79.8346C213.24 84.2654 213.171 89.0451 213.112 93.6853C213.101 94.6738 214.636 94.6738 214.648 93.6853C214.694 89.394 214.752 85.0097 216.055 80.8812C216.706 78.8112 217.729 76.9505 218.927 75.1479C220.137 73.3221 221.462 71.566 222.428 69.589C223.346 67.7283 224.009 65.6582 223.916 63.5649C223.835 61.681 223.114 59.9714 222.09 58.4131C221.114 56.9245 219.916 55.5755 218.974 54.052C217.846 52.2262 217.462 50.319 217.462 48.1908C217.462 45.7486 217.753 43.1901 216.88 40.8526C216.171 38.957 214.729 37.2939 212.705 36.8171C211.752 36.6078 211.333 38.0847 212.298 38.3057Z" fill="#331832"/>
<path d="M210.87 37.9586C214.766 38.9471 214.126 44.0525 213.452 46.9715C212.638 50.5068 211.242 54.0771 211.603 57.7636C211.789 59.7174 212.498 61.5083 213.301 63.276C214.022 64.8809 214.871 66.6137 214.394 68.4163C213.987 69.9397 212.882 71.1724 211.859 72.3238C210.742 73.5797 209.661 74.859 208.73 76.2778C206.556 79.5922 205.137 83.3834 204.602 87.3025C204.474 88.2561 205.904 88.6981 206.079 87.7096C206.114 87.5235 206.149 87.3258 206.183 87.1397C206.358 86.1745 204.881 85.7558 204.707 86.7327C204.672 86.9188 204.637 87.1165 204.602 87.3025C205.09 87.4421 205.59 87.57 206.079 87.7096C206.579 84.0463 207.846 80.5342 209.823 77.4058C210.789 75.8708 211.952 74.5217 213.15 73.1727C214.243 71.94 215.336 70.6026 215.824 68.9977C216.371 67.2068 215.906 65.4275 215.196 63.7528C214.417 61.9037 213.464 60.1128 213.184 58.1009C212.638 54.1818 214.347 50.3557 215.115 46.5761C215.545 44.4711 215.824 42.1569 215.057 40.0868C214.417 38.3773 213.091 36.9236 211.277 36.4701C210.324 36.2375 209.905 37.7144 210.87 37.9586Z" fill="#331832"/>
<path d="M213.346 50.5523C212.299 53.2736 213.043 56.2275 214.136 58.8093C215.218 61.3561 217.311 64.3216 216.16 67.2057C215.253 69.4735 212.764 70.7527 211.264 72.5902C210.357 73.695 209.624 74.9161 208.95 76.1721C208.263 77.4281 207.589 78.7073 207.135 80.068C206.612 81.6496 206.554 83.3009 206.496 84.9523C206.461 85.8943 206.426 86.8479 206.391 87.7899C206.368 88.511 206.112 89.5576 206.67 90.1158C206.891 90.3368 207.321 90.4298 207.601 90.2321C207.624 90.2205 207.635 90.2089 207.659 90.1972C207.868 90.046 208.066 89.8135 208.042 89.5344C208.042 89.5111 208.042 89.4878 208.031 89.4529C207.996 89.0227 207.705 88.7087 207.263 88.6854C207.252 88.6854 207.228 88.6854 207.217 88.6854C206.228 88.6389 206.228 90.174 207.217 90.2205C207.228 90.2205 207.252 90.2205 207.263 90.2205C207.007 89.9646 206.752 89.7088 206.496 89.4529C206.496 89.4762 206.496 89.4995 206.507 89.5344C206.635 89.3134 206.763 89.0924 206.891 88.8715C206.868 88.8831 206.856 88.8947 206.833 88.9064C207.147 88.9412 207.449 88.9878 207.763 89.0227C207.728 88.9878 207.705 88.9645 207.67 88.9296C207.74 89.1157 207.822 89.2901 207.891 89.4762C207.81 88.7668 207.926 87.9876 207.949 87.2666C207.973 86.4525 208.008 85.6385 208.031 84.8128C208.077 83.3358 208.147 81.8822 208.612 80.4634C209.054 79.126 209.752 77.87 210.438 76.6373C211.113 75.4045 211.845 74.1951 212.799 73.1484C214.346 71.4505 216.474 70.1945 217.462 68.0431C218.672 65.3915 217.625 62.6121 216.451 60.1583C215.09 57.3207 213.613 54.1109 214.822 50.9594C215.183 50.0406 213.694 49.6452 213.346 50.5523Z" fill="#331832"/>
<path d="M213.795 52.0408C213.527 54.8319 215.4 57.088 216.726 59.3557C218.156 61.7979 219.284 65.0891 218.668 67.9499C218.354 69.3804 217.481 70.5084 216.574 71.6132C215.702 72.6715 214.888 73.753 214.225 74.9625C212.899 77.3582 212.085 80.0213 211.643 82.7194C211.143 85.8012 211.062 88.9179 211.202 92.023C211.248 92.9998 212.772 93.0115 212.737 92.023C212.504 86.592 212.818 80.8005 215.458 75.9045C216.121 74.6834 216.923 73.5902 217.807 72.5203C218.691 71.4388 219.54 70.3456 219.982 69.0082C220.901 66.2288 220.11 62.9609 218.97 60.3675C218.342 58.9371 217.47 57.6695 216.667 56.3321C215.865 55.0063 215.19 53.6224 215.342 52.0408C215.423 51.0639 213.888 51.0756 213.795 52.0408Z" fill="#331832"/>
<path d="M220.543 58.288C222.369 61.9862 222.567 66.3821 221.101 70.2315C220.322 72.2899 219.182 74.1738 218.438 76.2439C217.705 78.2791 217.24 80.4073 216.891 82.5471C216.496 85.0009 216.275 87.4663 216.066 89.9434C215.984 90.9203 217.508 90.9203 217.601 89.9434C217.985 85.501 218.392 81.0004 219.88 76.7672C220.636 74.6158 221.822 72.6736 222.625 70.5338C223.346 68.5917 223.671 66.4868 223.602 64.4283C223.532 62.021 222.927 59.6719 221.857 57.5088C221.438 56.6366 220.113 57.4041 220.543 58.288Z" fill="#331832"/>
<path d="M70.9475 47.9706C70.9475 47.9706 75.9249 46.6797 78.5532 51.2966C81.1814 55.9135 81.1814 53.4015 85.4262 58.786C89.671 64.1704 81.6001 65.8218 82.7863 70.1131C83.9609 74.3927 87.7637 75.044 86.0193 80.3238C84.2632 85.5919 79.8789 83.2311 79.7277 86.6851C79.5766 90.1391 81.7745 93.5465 77.5298 93.8721C73.285 94.1977 72.0872 93.8489 69.1798 98.5588C66.2724 103.28 59.3413 98.082 53.5149 99.5473C47.6885 101.001 33.2447 98.617 32.6632 95.4188C32.0818 92.2324 20.9291 89.2901 27.4067 81.2541C30.977 76.8233 26.1507 77.4164 26.1507 71.1132C26.1507 65.9497 33.2214 67.7174 30.7909 62.8214C29.7093 60.6351 29.5465 54.9948 34.9542 52.0758C40.3619 49.1568 40.2573 41.9697 47.863 44.1445C55.4686 46.3192 56.5502 43.5979 61.2834 42.7954C66.0282 41.9697 67.9587 48.0868 70.9475 47.9706Z" fill="#764678"/>
<path d="M82.0687 167.16C80.6034 150.971 77.2193 127.817 69.4973 109.477C67.7063 105.233 66.962 103.639 65.5665 101.313C64.4384 99.4411 66.4504 95.3475 69.6252 93.3937C72.6023 91.5563 77.2425 91.8587 77.9752 92.7657C79.2195 94.3125 80.5569 97.278 82.627 101.976C89.8256 118.316 94.1401 139.412 95.8846 166.625L82.0687 167.16Z" fill="#BD7F58"/>
<path d="M52.1484 188.192C53.2067 176.307 52.7183 183.505 54.3231 153.478C54.358 152.931 54.3231 153.548 54.5092 150.012C55.8001 149.757 84.5598 144.209 85.6762 144C85.5599 155.397 84.8622 176.028 84.4086 187.448C82.4549 187.494 64.3245 187.994 52.1484 188.192Z" fill="#366F90"/>
<path d="M28.286 161.303C28.5767 163.699 42.1018 163.408 58.6622 161.303C75.2226 159.198 88.1197 155.617 87.829 153.221C87.5382 150.825 74.176 150.534 57.6156 152.639C41.0552 154.744 27.9953 158.919 28.286 161.303Z" fill="#331832"/>
<path d="M66.6624 158.04C66.0344 160.424 59.5801 184.822 58.7195 188.079C55.9051 188.125 49.3694 188.265 43.6011 188.311C37.0421 188.346 30.8203 187.207 25.2266 185.136L29.9365 163.436C30.2156 162.168 31.146 161.156 32.3787 160.808C36.3211 159.668 46.3108 157.621 54.1491 156.714C61.15 155.888 66.9532 155.888 66.6624 158.04Z" fill="#366F90"/>
<path d="M33.8222 95.9075C33.8222 95.9075 38.5322 82.6732 55.2903 83.2779C72.0484 83.8827 84.7012 105.909 87.8412 153.241C87.8412 153.241 60.3956 147.228 28.2517 161.265C28.2401 161.254 26.4608 115.201 33.8222 95.9075Z" fill="#EF8062"/>
<path d="M19.4297 90.5037L33.92 102.703C33.92 102.703 64.4358 105.762 72.5415 104.285C80.6473 102.819 81.9033 96.8534 81.9033 96.8534C81.9033 96.8534 74.1929 86.2822 59.5281 83.654C58.1442 83.4097 56.7603 83.3632 55.2834 83.2586C52.7947 83.0841 51.12 83.3283 48.6662 83.3051C25.8724 83.1306 19.4297 90.5037 19.4297 90.5037Z" fill="#EF8062"/>
<path d="M48.6951 83.3092C50.3581 83.1348 51.8118 82.0881 52.4747 80.5414L54.5564 75.7151L55.1611 74.3196L58.7081 66.0859L58.0918 74.622L57.7196 79.739L57.6149 81.2043C57.5335 82.3905 58.3592 83.4488 59.5338 83.6581H59.5571C60.1851 84.6815 61.0573 86.7632 58.4523 87.6005C55.3937 88.5774 50.4512 86.1701 48.6719 83.3092C48.6835 83.3208 48.6835 83.3208 48.6951 83.3092Z" fill="#BD7F58"/>
<path d="M54.5406 75.5988C54.5406 75.6453 54.5406 75.6918 54.5522 75.7383C54.7499 78.4829 57.6922 79.7737 57.6922 79.7737L57.7154 79.7621L58.0876 74.6451C57.1921 74.3195 55.9129 73.9823 55.157 74.3428C54.7615 74.5288 54.5173 74.9126 54.5406 75.5988Z" fill="#331832"/>
<path d="M59.083 77.3482C63.5083 77.3482 67.0957 72.9225 67.0957 67.4632C67.0957 62.0038 63.5083 57.5781 59.083 57.5781C54.6577 57.5781 51.0703 62.0038 51.0703 67.4632C51.0703 72.9225 54.6577 77.3482 59.083 77.3482Z" fill="#BD7F58"/>
<path d="M63.4115 73.8564C63.4115 73.8564 60.6785 73.9146 57.934 72.9609C57.934 72.9609 57.7014 75.659 60.6669 75.845C62.3881 75.9497 63.4115 73.8564 63.4115 73.8564Z" fill="white"/>
<path d="M59.8767 67.5491C59.9348 67.5374 59.9813 67.4909 59.993 67.4444C60.0279 67.3514 59.9813 67.2467 59.8883 67.2118C59.8302 67.1885 58.6091 66.5605 57.5275 67.7351C57.4577 67.8049 57.4577 67.9212 57.5392 67.991C57.6089 68.0608 57.7136 68.0375 57.795 67.9793C58.6323 67.4211 59.7139 67.5258 59.7604 67.5374C59.7953 67.5607 59.8418 67.5607 59.8767 67.5491Z" fill="#080435"/>
<path d="M58.4223 69.5647C58.4106 69.995 58.6549 70.3555 58.9689 70.3671C59.2829 70.3788 59.5503 70.0299 59.562 69.5996C59.5736 69.1693 59.3294 68.8088 59.0154 68.7972C58.7014 68.7855 58.4339 69.1228 58.4223 69.5647Z" fill="#080435"/>
<path d="M66.3704 68.5004C66.4286 68.512 66.4867 68.4887 66.5216 68.4422C66.5914 68.3724 66.5914 68.2562 66.5216 68.1864C66.4751 68.1399 65.5796 67.0932 64.1376 67.7793C64.0445 67.8259 64.0096 67.9305 64.0445 68.0236C64.091 68.1166 64.1841 68.1399 64.2887 68.1166C65.2772 67.9189 66.2309 68.419 66.2657 68.4539C66.289 68.4771 66.3239 68.5004 66.3704 68.5004Z" fill="#080435"/>
<path d="M64.263 69.8138C64.0886 70.2092 64.17 70.6395 64.4607 70.7675C64.7515 70.8954 65.1236 70.6744 65.3097 70.279C65.4841 69.8836 65.4027 69.4533 65.112 69.3254C64.8212 69.1975 64.4491 69.4184 64.263 69.8138Z" fill="#080435"/>
<path d="M19.4248 90.4972C18.2037 92.2416 20.6808 94.5907 25.7396 98.254C30.7984 101.917 33.008 103.22 34.2291 101.475C35.4502 99.731 33.9965 96.7654 28.961 93.0673C25.2744 90.3343 20.6459 88.7527 19.4248 90.4972Z" fill="#331832"/>
<path d="M41.6016 158.69C41.6016 158.69 74.6526 152.375 85.3749 155.352L80.2347 162.97L61.1275 164.051L41.6016 158.69Z" fill="#366F90"/>
<path d="M53.9247 69.2859C54.6732 68.6199 54.6017 67.3176 53.7649 66.3771C52.9282 65.4366 51.643 65.214 50.8945 65.88C50.1459 66.546 50.2174 67.8484 51.0542 68.7889C51.8909 69.7294 53.1761 69.9519 53.9247 69.2859Z" fill="#BD7F58"/>
<path d="M57.6571 141.904C58.4712 139.776 52.389 138.857 52.389 138.857C52.0866 138.787 51.133 138.555 51.133 138.241V138.229C51.133 138.02 53.331 138.52 53.5403 138.555C55.0754 138.845 60.0528 139.729 59.6458 137.776C59.2039 135.694 46.7138 133.438 46.7138 133.438C46.7022 133.438 46.7022 133.415 46.7138 133.415C46.7138 133.415 48.5164 132.042 49.2258 131.833C50.9004 131.356 51.4121 130.484 51.2028 129.612C51.133 129.344 50.9353 129.146 50.6794 129.077C50.1329 128.926 48.9932 128.786 47.1557 129.379C44.4809 130.24 39.5733 130.67 36.6078 133.228C35.7704 133.949 29.3859 139.636 33.5957 144.567C35.5379 146.847 39.143 148.742 44.76 149.486C44.76 149.486 53.9008 150.777 54.3893 148.765C54.6218 147.8 50.7725 147.172 50.7725 147.172C50.5283 147.114 49.5746 146.916 49.6561 146.695C49.6561 146.695 49.6561 146.695 49.6561 146.684C49.7375 146.451 50.4585 146.567 50.7143 146.614C50.7143 146.614 55.5173 147.079 55.9709 145.858C56.7733 143.695 53.5519 143.125 52.0168 142.916C51.7028 142.869 50.6911 142.788 50.7492 142.486V142.474C50.7841 142.276 51.1911 142.206 51.7028 142.299C51.6796 142.299 57.0989 143.369 57.6571 141.904Z" fill="#BD7F58"/>
<path d="M62.9704 60.5175C62.9704 60.5175 62.5634 63.3202 59.5513 63.0527C59.5513 63.0527 59.6211 65.3786 56.6789 64.7623C56.6789 64.7623 56.8882 66.3323 54.8065 66.4718C54.8065 66.4718 53.9459 67.9836 51.62 67.03C49.2941 66.0648 48.1312 61.3548 50.6548 58.9592C53.19 56.5635 59.6444 54.7144 63.3891 56.6333C67.1338 58.5521 69.0992 66.5881 68.0874 67.03C67.0873 67.4719 64.8893 66.9602 64.773 65.1809C64.773 65.1809 62.7843 64.3552 63.3774 62.5178C63.4007 62.5062 62.9006 61.3432 62.9704 60.5175Z" fill="#764678"/>
<path d="M51.2842 75.4383C51.0865 75.4383 50.9121 75.415 50.7725 75.4034C49.3537 75.1708 48.1559 74.0893 48.0977 72.9728C47.9931 70.9493 49.9817 69.3328 50.0748 69.263C50.1678 69.1933 50.2957 69.2049 50.3655 69.2979C50.4353 69.391 50.4236 69.5189 50.3306 69.5887C50.3073 69.6003 48.4117 71.1354 48.5048 72.9496C48.5513 73.8567 49.6212 74.7987 50.8423 74.9847C52.2146 75.1941 53.3543 74.4382 53.959 72.8798C54.4009 71.7401 54.4125 70.7632 53.9939 69.9492C53.3077 68.635 51.7029 68.228 51.6912 68.228C51.5866 68.2048 51.5168 68.0885 51.5401 67.9838C51.5633 67.8791 51.6796 67.8093 51.7843 67.8326C51.8541 67.8559 53.5869 68.2862 54.3544 69.7631C54.8312 70.6818 54.8196 71.775 54.3311 73.031C53.5403 75.0661 52.1681 75.4383 51.2842 75.4383Z" fill="#EF8062"/>
<path d="M64.1112 77.9999C63.0413 77.9999 62.2505 77.5348 62.2388 77.5231C62.1458 77.465 62.1109 77.3371 62.1691 77.244C62.2272 77.1394 62.3551 77.1161 62.4482 77.1743C62.5296 77.2324 64.5996 78.4186 66.4254 76.5695C68.2513 74.7088 66.9837 72.7085 66.9255 72.6155C66.8674 72.5225 66.8906 72.3945 66.9837 72.3364C67.0767 72.2782 67.2046 72.3015 67.2628 72.3945C67.2744 72.4178 68.7746 74.767 66.7045 76.8603C65.8323 77.7441 64.902 77.9999 64.1112 77.9999Z" fill="#EF8062"/>
<path d="M52.5807 43.7915C51.7434 43.7915 50.8246 43.6635 49.8478 43.3612C49.7431 43.3263 49.685 43.21 49.7082 43.1053C49.7431 43.0007 49.8594 42.9309 49.9641 42.9658C54.5693 44.4078 57.7558 41.5702 57.7907 41.5353C57.8721 41.4656 58 41.4656 58.0814 41.547C58.1629 41.6284 58.1512 41.7563 58.0698 41.8377C58.0466 41.8726 55.9067 43.7915 52.5807 43.7915Z" fill="#764678"/>
<path d="M84.5793 56.039C84.5444 56.039 84.5212 56.0273 84.4863 56.0157C84.3467 55.9459 81.0556 54.2131 78.8692 50.5847C76.4852 46.6423 73.4034 46.8517 72.1823 47.1191C70.2518 47.5494 68.9028 46.0958 68.8446 46.026C68.7632 45.9446 68.7748 45.8166 68.8562 45.7352C68.9376 45.6538 69.0656 45.6655 69.147 45.7469C69.1586 45.7585 70.3797 47.0843 72.1009 46.7121C73.4034 46.4214 76.7061 46.2004 79.2297 50.3638C81.3579 53.8875 84.6491 55.6319 84.684 55.6436C84.7886 55.7017 84.8235 55.818 84.777 55.9227C84.7189 55.9924 84.6491 56.039 84.5793 56.039Z" fill="#764678"/>
<path d="M28.0696 66.7301C27.9999 66.7301 27.9301 66.6952 27.8952 66.6255C27.8371 66.5208 27.8719 66.4045 27.9766 66.3464C30.035 65.2067 29.7094 64.2996 28.279 61.3573C26.7904 58.322 29.8257 55.2984 29.9652 55.1704C30.0467 55.089 30.1746 55.089 30.256 55.1704C30.3374 55.2518 30.3374 55.3798 30.256 55.4612C30.2211 55.4961 27.3021 58.4034 28.6511 61.1712C30.0932 64.1251 30.5816 65.3695 28.1859 66.7069C28.1394 66.7301 28.1045 66.7301 28.0696 66.7301Z" fill="#764678"/>
<path d="M25.3831 81.584C25.3133 81.584 25.2551 81.5491 25.2203 81.4909C25.1505 81.3979 25.1737 81.27 25.2668 81.2118C27.8136 79.4325 26.3018 77.1764 26.232 77.0834C26.1622 76.9903 26.1855 76.8624 26.2902 76.7926C26.3832 76.7345 26.5111 76.7461 26.5693 76.8508C26.5925 76.874 28.3835 79.5488 25.4994 81.5491C25.4645 81.5723 25.4296 81.584 25.3831 81.584Z" fill="#764678"/>
<path d="M39.9311 58.7215C39.8614 58.7215 39.8032 58.6867 39.7567 58.6285C39.7102 58.5587 38.5705 56.7794 39.0589 54.7908C39.3613 53.5348 40.2451 52.4881 41.6756 51.6741C43.9898 50.3599 45.3505 50.7205 46.7925 51.1042C48.2113 51.4764 49.6767 51.8718 52.3282 50.6856C57.8289 48.2201 60.1432 51.709 60.1664 51.7439C60.2246 51.8369 60.2013 51.9648 60.1083 52.023C60.0153 52.0811 59.8873 52.0579 59.8292 51.9648C59.7478 51.8369 57.6661 48.7551 52.5026 51.0577C49.7232 52.3021 48.1183 51.8718 46.6879 51.4996C45.2807 51.1275 44.0596 50.8019 41.8849 52.0346C40.5591 52.7905 39.7451 53.7441 39.466 54.8838C39.024 56.7096 40.094 58.3843 40.1056 58.4076C40.1637 58.5006 40.1405 58.6285 40.0474 58.6867C40.0009 58.7099 39.966 58.7215 39.9311 58.7215Z" fill="#331832"/>
<path d="M77.337 76.0396C77.3137 76.0396 77.3021 76.0396 77.2788 76.028C77.1742 75.9931 77.1044 75.8885 77.1393 75.7722C77.6161 74.1208 76.7555 73.6788 75.3135 72.9578C74.6971 72.6438 73.9993 72.2949 73.3132 71.7949C72.8015 71.4111 72.5689 71.0855 72.5805 70.7482C72.6038 70.283 73.1155 69.969 73.7086 69.6202C74.511 69.1433 75.4181 68.5968 75.4763 67.5617C75.546 66.2476 74.8599 66.0732 73.8133 65.8057C73.1155 65.6312 72.3363 65.4335 71.6502 64.8404C70.7547 64.0496 70.8245 63.1425 70.8943 62.3983C70.964 61.6307 70.964 61.2818 70.3012 61.119C68.4753 60.6771 68.1613 58.607 68.1497 58.5256C68.1381 58.4093 68.2078 58.3047 68.3241 58.293C68.4404 58.2698 68.5335 58.3512 68.5567 58.4675C68.5567 58.4907 68.8475 60.3515 70.3942 60.7236C71.4176 60.9678 71.3594 61.7121 71.2897 62.4331C71.2315 63.1425 71.1734 63.8752 71.9176 64.5264C72.5224 65.0614 73.255 65.2358 73.9063 65.3987C74.9646 65.6661 75.9763 65.922 75.8833 67.5734C75.8135 68.8294 74.7552 69.4573 73.9179 69.9574C73.4411 70.2365 72.9992 70.504 72.9876 70.7598C72.9759 70.9343 73.1736 71.1669 73.5458 71.446C74.2087 71.9344 74.8832 72.2717 75.4763 72.574C76.9416 73.3067 78.0929 73.8882 77.5114 75.8768C77.4998 75.9815 77.4184 76.0396 77.337 76.0396Z" fill="#331832"/>
<path d="M37.9676 79.3532C37.956 79.3532 37.9443 79.3532 37.9443 79.3532C37.828 79.3416 37.7583 79.2369 37.7699 79.1206C37.9792 77.5623 36.7349 76.3063 35.6417 75.2015C34.7695 74.3177 34.0019 73.5501 34.1415 72.7593C34.2229 72.2592 34.6532 71.829 35.444 71.4335C36.6535 70.8288 37.3977 70.0613 37.6536 69.1309C38.0257 67.8284 37.3163 66.6422 37.3047 66.6306C37.2466 66.5375 37.2814 66.4096 37.3745 66.3515C37.4791 66.2933 37.5954 66.3166 37.6536 66.4212C37.6885 66.4794 38.4677 67.7703 38.049 69.2472C37.7466 70.2939 36.9326 71.1544 35.6184 71.8057C34.9439 72.1429 34.595 72.4802 34.5369 72.8291C34.4439 73.4222 35.13 74.1083 35.9324 74.9108C37.0372 76.0272 38.4095 77.4111 38.1769 79.1672C38.1537 79.2835 38.0723 79.3532 37.9676 79.3532Z" fill="#331832"/>
<path d="M37.9615 132.565C31.8327 131.681 26.0761 128.751 25.1807 123.808C23.9363 116.958 27.8089 109.085 31.2047 103.968C32.9492 101.352 33.1352 98.8048 30.379 95.6067C29.2394 94.2809 28.1229 93.3506 24.4713 91.8271C22.7152 91.0944 20.9592 90.8618 19.9707 92.1178C18.4239 94.0948 17.3308 95.723 15.1909 99.677C10.1089 109.074 8.21325 118.447 9.6902 126.785C11.516 137.031 24.5178 146.497 39.136 148.16C40.6944 148.358 39.3803 132.775 37.9615 132.565Z" fill="#BD7F58"/>
<path d="M15.1433 125.887C14.7944 125.887 14.4339 125.782 14.085 125.573C13.2476 125.084 12.5848 124.061 12.2824 122.851C11.794 120.863 12.4801 118.944 13.8175 118.595C14.3059 118.455 14.8293 118.549 15.3177 118.839C16.155 119.328 16.8179 120.351 17.1203 121.561C17.6087 123.549 16.9226 125.468 15.5852 125.817C15.4456 125.863 15.2944 125.887 15.1433 125.887ZM12.6894 122.758C12.9569 123.863 13.5616 124.794 14.3059 125.224C14.7013 125.456 15.12 125.526 15.4921 125.433C16.6086 125.131 17.1668 123.445 16.7365 121.665C16.469 120.56 15.8643 119.63 15.1316 119.2C14.7362 118.967 14.3292 118.897 13.9454 118.99C12.8057 119.281 12.2475 120.979 12.6894 122.758Z" fill="#9A603A"/>
<path d="M188.39 132.072L185.437 132.642L183.425 133.025L180.18 133.653L178.831 133.909L177.97 134.072L171.039 135.409L167.76 136.037L162.119 137.131L161.945 140.387L161.922 140.806L161.747 144.155V144.225L161.457 149.702L161.445 149.911L161.41 150.644L161.038 157.598L160.98 158.633L160.852 161.087L160.77 162.494L160.654 164.599L160.643 164.844L160.468 168.193L160.119 172.17L160.003 173.484L159.224 182.311L159.096 183.695L159.049 184.149V184.207L158.852 186.393H159.119C159.282 186.393 159.433 186.393 159.596 186.405C160.619 186.416 161.631 186.44 162.62 186.463C163.154 186.474 163.689 186.486 164.224 186.498C167.888 186.591 171.295 186.719 174.4 186.882C175.331 186.928 176.238 186.986 177.145 187.033C178.819 187.126 180.471 187.207 182.099 187.3C182.587 187.323 183.076 187.347 183.553 187.382C186.286 187.533 188.96 187.672 191.565 187.8C192.182 187.835 192.798 187.87 193.403 187.893C193.566 184.09 193.717 180.462 193.856 177.008C193.938 175.066 194.007 173.17 194.077 171.345C194.112 170.403 194.147 169.461 194.182 168.553C194.194 168.146 194.217 167.739 194.228 167.344C194.24 166.879 194.263 166.414 194.275 165.948C194.287 165.762 194.287 165.576 194.298 165.39C194.321 164.751 194.345 164.123 194.368 163.495V163.483C194.403 162.471 194.438 161.471 194.473 160.494C194.484 160.32 194.484 160.145 194.496 159.971C194.508 159.75 194.508 159.517 194.519 159.296C194.531 158.982 194.542 158.657 194.554 158.354C194.589 157.273 194.624 156.226 194.659 155.203C194.67 154.854 194.682 154.505 194.694 154.168C194.705 153.61 194.729 153.051 194.74 152.516C194.822 149.725 194.891 147.202 194.949 144.922C194.973 144.178 194.984 143.457 195.008 142.771C195.019 142.131 195.043 141.515 195.054 140.922C195.066 140.643 195.066 140.375 195.077 140.108C195.089 139.759 195.089 139.433 195.101 139.108C195.124 138.107 195.136 137.2 195.159 136.375C195.182 135.282 195.194 134.34 195.205 133.56C195.205 133.386 195.205 133.211 195.217 133.049C195.24 131.525 195.252 130.734 195.252 130.734L188.39 132.072Z" fill="#92A5E6"/>
<path d="M134.294 149.124C134.596 151.659 148.959 151.356 166.531 149.124C184.103 146.891 197.779 143.088 197.477 140.553C197.175 138.017 182.998 137.703 165.414 139.925C147.842 142.157 133.992 146.588 134.294 149.124Z" fill="#331832"/>
<path d="M170.3 143.722C169.044 143.688 167.602 143.734 166.02 143.839C164.671 143.932 163.229 144.071 161.74 144.246C160.682 144.374 159.601 144.513 158.496 144.664C158.449 144.676 158.403 144.676 158.345 144.688C157.984 144.734 157.624 144.792 157.263 144.839C156.751 144.909 156.24 144.99 155.728 145.071C153.995 145.339 152.274 145.641 150.611 145.944C150.448 145.979 150.274 146.002 150.111 146.037C149.588 146.13 149.076 146.234 148.576 146.327C148.529 146.339 148.494 146.339 148.471 146.351H148.459C148.448 146.351 148.448 146.351 148.436 146.351C148.425 146.351 148.425 146.351 148.425 146.351C146.855 146.653 145.366 146.967 144.017 147.258C142.842 147.514 141.773 147.758 140.842 147.99C139.97 148.2 139.226 148.397 138.633 148.572C137.667 148.851 136.877 149.502 136.411 150.374C136.249 150.677 136.121 151.014 136.039 151.363L132.853 166.039L131.097 174.157L128.422 186.472C129.085 186.472 129.748 186.461 130.411 186.449C133.667 186.403 136.877 186.368 140.016 186.356C141.028 186.356 142.028 186.344 143.029 186.344C143.075 186.344 143.122 186.344 143.168 186.344C143.459 186.344 143.761 186.344 144.052 186.344C145.11 186.344 146.157 186.344 147.192 186.344C147.471 186.344 147.75 186.344 148.018 186.344C148.029 186.344 148.052 186.344 148.064 186.344C148.611 186.344 149.157 186.344 149.692 186.344C150.134 186.344 150.576 186.344 151.018 186.344H151.844C151.902 186.344 151.972 186.344 152.03 186.344H152.065C153.007 186.344 153.937 186.356 154.856 186.368H155.205H155.705C156.612 186.379 157.507 186.391 158.403 186.403C158.507 186.403 158.624 186.403 158.728 186.403H158.821H159.089C159.252 186.403 159.403 186.403 159.566 186.414C160.589 186.426 161.601 186.449 162.589 186.472C163.124 186.484 163.659 186.496 164.194 186.507L168.672 169.598L169.893 164.981L170.567 162.423L170.974 160.876L171.23 159.899L171.707 158.096L171.87 157.492L172.277 155.933L173.079 152.91L173.37 151.793L174.335 148.118L174.382 147.956L174.614 147.083L174.998 145.63C175.184 144.374 173.312 143.804 170.3 143.722Z" fill="#92A5E6"/>
<path d="M131.255 79.068C131.255 79.068 141.512 67.6363 159.294 68.2759C177.075 68.9155 194.135 90.3254 197.473 140.553C197.473 140.553 168.353 134.169 134.244 149.066C134.244 149.054 123.451 99.5359 131.255 79.068Z" fill="#CCD39C"/>
<path d="M124.906 73.9994L140.28 86.943C140.28 86.943 172.669 90.1876 181.263 88.6177C189.857 87.0593 191.194 80.7329 191.194 80.7329C191.194 80.7329 180.356 70.1733 164.667 66.9985C162.074 66.4751 158.539 66.3937 155.934 66.3705C131.744 66.1844 124.906 73.9994 124.906 73.9994Z" fill="#CCD39C"/>
<path d="M145.664 66.8266C147.281 66.4661 148.339 65.8846 148.537 64.1169L149.211 59.8605L149.397 58.2556L150.49 48.8125L152.467 57.6742L153.654 62.9888L153.991 64.489C154.27 65.7334 155.27 66.28 156.631 66.3847C157.584 67.2336 157.34 69.8037 155.107 70.1293C151.258 70.6759 145.664 66.8266 145.664 66.8266Z" fill="#BD7F58"/>
<path d="M149.173 59.7256C149.185 59.7721 149.208 59.8186 149.219 59.8651C150.266 62.5981 153.65 63.0051 153.65 63.0051L153.662 62.9818L152.476 57.6672C151.464 57.609 150.057 57.6555 149.405 58.2603C149.068 58.5743 148.94 59.0394 149.173 59.7256Z" fill="#331832"/>
<path d="M154.323 60.1166C158.82 58.7687 161.118 53.1772 159.454 47.6277C157.791 42.0783 152.797 38.6723 148.3 40.0203C143.802 41.3682 141.505 46.9597 143.168 52.5091C144.831 58.0586 149.825 61.4646 154.323 60.1166Z" fill="#BD7F58"/>
<path d="M157.651 55.2656C157.651 55.2656 154.883 56.1611 151.812 56.0215C151.812 56.0215 152.406 58.8359 155.476 58.1148C157.255 57.6962 157.651 55.2656 157.651 55.2656Z" fill="white"/>
<path d="M152.124 49.9429C152.17 49.908 152.205 49.8615 152.217 49.7917C152.229 49.687 152.147 49.594 152.042 49.5823C151.984 49.5823 150.542 49.3032 149.81 50.8383C149.763 50.9314 149.798 51.0477 149.891 51.0942C149.984 51.1407 150.089 51.0942 150.147 51.0128C150.821 50.1871 151.949 49.9661 152.008 49.9661C152.054 49.9661 152.089 49.9661 152.124 49.9429Z" fill="#080435"/>
<path d="M151.264 52.4242C151.38 52.8661 151.741 53.1569 152.066 53.0755C152.392 52.9941 152.555 52.5638 152.439 52.1102C152.322 51.6683 151.962 51.3776 151.636 51.459C151.311 51.5404 151.148 51.9707 151.264 52.4242Z" fill="#080435"/>
<path d="M159.034 48.9089C159.092 48.8972 159.151 48.8623 159.174 48.8042C159.22 48.7112 159.186 48.5949 159.092 48.5484C159.034 48.5251 157.813 47.7227 156.546 48.8507C156.464 48.9205 156.453 49.0484 156.522 49.1182C156.592 49.1996 156.697 49.188 156.79 49.1415C157.732 48.6414 158.86 48.8623 158.906 48.8856C158.953 48.9089 158.988 48.9205 159.034 48.9089Z" fill="#080435"/>
<path d="M157.306 50.8814C157.248 51.3349 157.469 51.742 157.795 51.7885C158.132 51.835 158.446 51.4978 158.504 51.0442C158.562 50.5907 158.341 50.1836 158.016 50.1371C157.678 50.0906 157.364 50.4278 157.306 50.8814Z" fill="#080435"/>
<path d="M124.903 74C123.612 75.8491 126.24 78.3495 131.601 82.2337C136.974 86.118 139.311 87.5019 140.602 85.6528C141.893 83.8037 140.358 80.6637 135.02 76.733C131.101 73.8372 126.193 72.1509 124.903 74Z" fill="#331832"/>
<path d="M139.034 137.377L143.779 126.922C144.43 125.491 143.895 123.782 142.569 123.026C135.836 119.176 131.951 114.583 131.009 109.338C129.695 102.069 133.8 93.7195 137.406 88.2885C139.255 85.5091 139.452 82.811 136.533 79.4152C135.324 78.008 134.138 77.0195 130.265 75.4147C128.393 74.6355 126.532 74.3796 125.497 75.7287C123.857 77.8336 122.694 79.5548 120.427 83.753C115.03 93.7195 113.019 103.663 114.589 112.513C116.519 123.375 123.427 132.178 135.115 138.714C136.557 139.528 138.336 138.923 139.034 137.377Z" fill="#BD7F58"/>
<path d="M148.422 146.353C148.422 146.353 183.496 139.654 194.87 142.817L189.416 150.9L169.146 152.051L148.422 146.353Z" fill="#92A5E6"/>
<path d="M158.419 59.4356C157.919 59.4356 157.594 59.3542 157.582 59.3542C157.466 59.3193 157.396 59.203 157.431 59.0867C157.454 58.9705 157.582 58.9007 157.698 58.9239C157.803 58.9472 160.257 59.5403 161.559 57.0981C162.862 54.6443 160.885 52.9464 160.862 52.9348C160.769 52.8533 160.757 52.7254 160.838 52.6324C160.92 52.5394 161.059 52.5277 161.141 52.6091C161.164 52.6324 163.397 54.5512 161.943 57.3074C160.966 59.1216 159.385 59.4356 158.419 59.4356Z" fill="#EF8062"/>
<path d="M146.702 43.7222C147.539 45.455 147.493 47.0017 153.494 46.6877C153.494 46.6877 154.598 47.025 154.354 46.0132C154.11 45.0131 152.249 43.9199 152.668 42.5476C152.668 42.5476 159.181 49.6648 159.983 47.5018C160.797 45.3387 160.844 39.1169 156.703 36.57C152.575 34.0232 142.643 36.1863 141.864 39.5007C140.725 44.3734 145.981 42.2452 146.702 43.7222Z" fill="#331832"/>
<path d="M142.268 41.4434C142.268 41.4434 144.92 41.3155 145.141 42.4552C145.362 43.5949 147.722 45.1532 146.292 46.3394C144.862 47.5256 144.606 48.0606 144.978 49.2701C145.234 50.119 144.315 52.4449 144.292 54.3056C144.28 55.1197 145.199 56.5501 145.199 56.5501C145.199 56.5501 138.349 56.3175 137.326 48.8747C136.663 44.0484 140.524 41.2922 142.268 41.4434Z" fill="#331832"/>
<path d="M146.625 53.4998C147.181 52.5977 146.711 51.298 145.573 50.5968C144.436 49.8955 143.063 50.0583 142.507 50.9604C141.951 51.8625 142.422 53.1622 143.559 53.8634C144.696 54.5647 146.069 54.4019 146.625 53.4998Z" fill="#BD7F58"/>
<path d="M145.681 60.959C144.344 60.959 143.076 60.2612 142.716 59.2727C141.995 57.2492 143.53 55.0047 143.588 54.9C143.658 54.7954 143.797 54.7721 143.89 54.8419C143.983 54.9117 144.018 55.0512 143.948 55.1443C143.937 55.1675 142.471 57.3074 143.123 59.1215C143.448 60.0286 144.821 60.6683 146.111 60.4822C147.577 60.2845 148.496 59.1564 148.635 57.3888C148.74 56.0979 148.449 55.0977 147.786 54.4C146.693 53.2719 144.937 53.3533 144.914 53.3533H144.902C144.786 53.3533 144.693 53.2603 144.681 53.144C144.669 53.0277 144.762 52.923 144.89 52.9114C144.972 52.8998 146.867 52.8184 148.089 54.086C148.844 54.8652 149.182 55.9816 149.065 57.412C148.844 60.238 146.96 60.7962 146.158 60.9009C146.018 60.9474 145.844 60.959 145.681 60.959Z" fill="#EF8062"/>
<path d="M137.46 42.3217C137.391 42.345 137.309 42.3217 137.251 42.2752C137.158 42.1938 137.158 42.0543 137.239 41.9729C138.809 40.3098 140.693 40.9029 140.775 40.9262C140.891 40.9611 140.949 41.089 140.914 41.2053C140.879 41.3216 140.751 41.3798 140.635 41.3449C140.565 41.3216 138.926 40.8215 137.553 42.2752C137.53 42.2985 137.495 42.3101 137.46 42.3217Z" fill="#331832"/>
<path d="M141.016 40.4236C140.9 40.4585 140.784 40.3887 140.749 40.284C140.726 40.2259 140.295 38.7954 140.795 38.0512C140.865 37.9465 140.993 37.9232 141.098 37.993C141.202 38.0628 141.226 38.1907 141.156 38.2954C140.842 38.7722 141.051 39.7956 141.168 40.1561C141.202 40.2608 141.133 40.3771 141.016 40.4236Z" fill="#331832"/>
<path d="M121.575 186.6C120.342 186.623 119.11 186.646 117.865 186.67L116.481 186.693C114.504 186.728 112.516 186.774 110.527 186.809L108.969 177.889L114.563 175.319L114.656 175.284L118.598 173.47L119.342 173.133L119.668 175.075L121.575 186.6Z" fill="#764678"/>
<path d="M141.595 175.874C141.932 159.092 141.118 134.95 135.28 115.249C133.931 110.691 133.349 108.958 132.175 106.423C131.233 104.376 133.768 100.398 137.245 98.7587C140.513 97.212 145.235 98.0493 145.886 99.0727C146.991 100.805 148.014 103.992 149.607 109.051C155.131 126.635 157.143 148.789 155.829 176.909L141.595 175.874Z" fill="#AB6B40"/>
<path d="M149.722 186.342C149.187 186.342 148.64 186.342 148.094 186.342C148.082 186.342 148.059 186.342 148.047 186.342C147.768 186.342 147.501 186.342 147.222 186.342C146.187 186.342 145.14 186.342 144.082 186.342C143.791 186.342 143.5 186.342 143.198 186.342C143.151 186.342 143.105 186.342 143.058 186.342C142.058 186.342 141.058 186.353 140.046 186.353C136.906 186.376 133.696 186.411 130.44 186.446C129.789 186.458 129.114 186.47 128.452 186.47C128.324 186.47 128.196 186.47 128.068 186.47C125.928 186.504 123.765 186.539 121.602 186.574C120.369 186.597 119.136 186.621 117.892 186.644L116.508 186.667L114.589 175.305V175.27L113.008 165.943L111.961 159.722L118.008 157.082L134.79 149.755L140.814 147.127L143.721 145.859C143.721 145.859 143.837 146.325 144.058 147.267C144.244 148.104 144.512 149.313 144.826 150.883C145.57 154.593 146.605 160.361 147.663 168.2C147.756 168.897 147.85 169.607 147.954 170.339C147.966 170.421 147.977 170.514 147.989 170.607C148.047 171.026 148.094 171.456 148.152 171.886C148.198 172.27 148.245 172.654 148.291 173.037C148.291 173.084 148.303 173.119 148.303 173.165C148.384 173.863 148.478 174.573 148.559 175.305C148.594 175.561 148.617 175.817 148.652 176.073C148.664 176.177 148.675 176.282 148.687 176.387C148.919 178.341 149.14 180.376 149.361 182.515C149.478 183.76 149.606 185.039 149.722 186.342Z" fill="#331832"/>
<path d="M79.133 172.299C79.2028 174.892 94.8561 175.916 114.208 175.311C133.571 174.706 149.038 172.031 148.968 169.438C148.898 166.845 133.326 165.333 113.963 165.937C94.6119 166.542 79.0633 169.705 79.133 172.299Z" fill="#331832"/>
<path d="M76.7424 187.636C76.1958 166.599 75.9865 123.569 82.2897 103.369C82.4525 102.555 83.0572 100.857 84.0341 99.101C86.4879 94.7167 92.1166 88.2275 104.502 86.0411C108.793 85.2736 113.689 85.1108 117.62 85.448C130.633 86.5528 138.518 93.4375 143.275 105.532C148.078 117.743 149.473 135.211 150.276 148.27C150.939 158.888 151.369 171.018 152.067 186.334C150.357 186.299 141.774 186.334 140.042 186.345C118.992 186.497 93.4773 187.229 76.7424 187.636Z" fill="#764678"/>
<path d="M74.5391 97.0577L91.0413 106.187C91.0413 106.187 127.162 109.466 136.757 107.885C146.351 106.303 148.979 99.2673 148.979 99.2673C148.979 99.2673 138.757 88.6961 121.394 85.8817C119.766 85.6143 118.068 85.4166 116.312 85.3003C113.37 85.1142 110.416 85.1491 107.532 85.4747C85.5406 87.9518 74.5391 97.0577 74.5391 97.0577Z" fill="#764678"/>
<path d="M117.497 89.9392C113.822 91.5674 106.949 89.1019 104.344 85.8805C104.367 85.8805 108.449 84.171 109.065 82.1824L110.461 77.6818L110.973 76.0304L111.531 74.2394L114.787 63.7031L115.217 74.1813L115.368 78.0772L115.462 80.4496V80.4728L115.543 82.4615C115.601 83.8105 116.427 84.1012 117.427 85.2642C117.846 85.741 120.451 88.6367 117.497 89.9392Z" fill="#B67951"/>
<path d="M88.4618 107.748C89.8851 105.789 87.8503 101.884 83.9169 99.0262C79.9835 96.1683 75.641 95.4395 74.2177 97.3984C72.7944 99.3573 74.8293 103.262 78.7627 106.12C82.6961 108.978 87.0385 109.707 88.4618 107.748Z" fill="#331832"/>
<path d="M87.6106 147.884C87.6106 147.884 92.3321 142.779 96.4025 142.86C100.473 142.942 105.613 146.117 103.078 146.605C100.543 147.093 97.1351 146.814 97.1351 146.814C97.1351 146.814 104.392 147.733 103.438 149.338C102.485 150.943 96.1931 150.071 96.1931 150.071C96.1931 150.071 104.741 151.862 103.345 153.083C101.961 154.304 95.4721 152.897 95.4721 152.897C95.4721 152.897 103.357 154.874 101.705 156.257C100.054 157.641 95.2046 154.583 94.251 156.176C93.2974 157.781 88.9828 163.828 84.2031 161.723L87.6106 147.884Z" fill="#B67951"/>
<path d="M94.1313 147.279C94.0732 147.279 94.015 147.256 93.9685 147.209C93.8871 147.116 93.8987 146.988 93.9918 146.907C95.0384 146.023 97.0968 146.593 97.1782 146.616C97.2945 146.651 97.3527 146.767 97.3294 146.884C97.2945 147 97.1782 147.058 97.0736 147.035C97.0503 147.023 95.1431 146.5 94.2709 147.244C94.2244 147.267 94.1778 147.279 94.1313 147.279Z" fill="#9A603A"/>
<path d="M92.5969 150.584C92.5271 150.584 92.4457 150.549 92.4108 150.479C92.3527 150.375 92.3876 150.247 92.4922 150.189C94.1669 149.27 96.1555 149.851 96.2369 149.875C96.3532 149.91 96.4114 150.026 96.3765 150.142C96.3416 150.258 96.2253 150.317 96.109 150.282C96.0857 150.27 94.2134 149.723 92.6899 150.561C92.6667 150.572 92.6318 150.584 92.5969 150.584Z" fill="#9A603A"/>
<path d="M92.095 153.404C92.0369 153.404 91.9904 153.381 91.9439 153.346C91.8625 153.264 91.8625 153.125 91.9439 153.043C92.9789 152.008 95.4095 152.683 95.5141 152.706C95.6304 152.741 95.6886 152.857 95.6653 152.974C95.6304 153.09 95.5141 153.148 95.4095 153.125C95.3862 153.113 93.1184 152.485 92.2579 153.346C92.2113 153.381 92.1532 153.404 92.095 153.404Z" fill="#9A603A"/>
<path d="M87.2427 160.111L91.8596 149.935C92.4876 148.54 91.9759 146.877 90.685 146.144C84.1376 142.4 80.358 137.922 79.4393 132.828C78.16 125.758 82.149 117.629 85.6611 112.349C87.452 109.651 87.6497 107.023 84.8121 103.72C83.6375 102.348 82.4746 101.394 78.7183 99.824C76.9041 99.0681 75.0899 98.8239 74.0781 100.126C72.4849 102.173 71.3452 103.848 69.1356 107.93C63.8907 117.629 61.9253 127.304 63.4604 135.922C65.3444 146.493 72.0546 155.064 83.4398 161.425C84.8237 162.193 86.5565 161.611 87.2427 160.111Z" fill="#B67951"/>
<path d="M69.036 134.989C68.6755 134.989 68.3034 134.884 67.9429 134.675C67.0823 134.163 66.3845 133.116 66.0821 131.861C65.5821 129.802 66.2915 127.825 67.6638 127.465C68.1638 127.337 68.6988 127.418 69.2105 127.72C70.0711 128.232 70.7688 129.279 71.0712 130.535C71.5713 132.593 70.8619 134.57 69.4896 134.931C69.35 134.966 69.1989 134.989 69.036 134.989ZM66.5008 131.756C66.7799 132.896 67.3963 133.849 68.1638 134.303C68.5825 134.547 69.0011 134.628 69.3849 134.512C70.5362 134.198 71.1177 132.454 70.6642 130.616C70.3851 129.476 69.7687 128.523 69.0012 128.069C68.5825 127.825 68.1638 127.755 67.7801 127.86C66.6287 128.174 66.0589 129.918 66.5008 131.756Z" fill="#9A603A"/>
<path d="M115.504 80.4631C111.457 80.0561 110.492 77.6953 110.492 77.6953L115.411 78.0907L115.504 80.4631Z" fill="#331832"/>
<path d="M120.908 57.5204C120.908 57.5204 120.757 46.0886 118.21 45.0187C115.663 43.9604 117.361 54.1129 117.361 54.1129C117.361 54.1129 115.779 42.6811 110.697 42.4718C105.615 42.2625 113.023 52.8453 113.023 52.8453C113.023 52.8453 105.813 42.2276 102.324 43.7278C98.8351 45.228 108.046 51.694 108.046 51.694C108.046 51.694 98.0908 43.9604 95.8695 45.763C93.6483 47.5655 102.324 52.8453 102.324 52.8453C102.324 52.8453 92.5784 49.7868 92.1016 51.694C91.6248 53.6012 99.998 55.9853 99.998 55.9853C99.998 55.9853 87.9266 55.2294 90.1478 57.9623C92.3691 60.6952 99.7887 60.0672 99.7887 60.0672C99.7887 60.0672 87.9266 60.8115 90.7875 63.1374C93.6483 65.4633 100.847 64.6144 100.847 64.6144C100.847 64.6144 93.1133 64.7539 95.7649 66.8007C98.4164 68.8591 104.068 68.1148 104.068 68.1148L120.908 57.5204Z" fill="#331832"/>
<path d="M115.77 78.8298C120.896 78.1567 124.393 72.5982 123.581 66.4147C122.769 60.2312 117.955 55.7642 112.829 56.4374C107.703 57.1105 104.205 62.669 105.017 68.8525C105.829 75.036 110.643 79.503 115.77 78.8298Z" fill="#B67951"/>
<path d="M114.788 67.1779C114.835 67.143 114.87 67.0965 114.881 67.0384C114.893 66.9337 114.812 66.8407 114.707 66.829C114.649 66.829 113.23 66.5732 112.521 68.0734C112.474 68.1664 112.509 68.2827 112.602 68.3292C112.695 68.3758 112.788 68.3293 112.858 68.2478C113.521 67.4338 114.625 67.2128 114.672 67.2128C114.718 67.2012 114.753 67.1896 114.788 67.1779Z" fill="#080435"/>
<path d="M113.967 69.6045C114.084 70.0464 114.444 70.3255 114.758 70.2441C115.072 70.1627 115.235 69.7324 115.119 69.3021C115.002 68.8602 114.642 68.5811 114.328 68.6625C114.014 68.7439 113.851 69.1626 113.967 69.6045Z" fill="#080435"/>
<path d="M121.806 66.5921C121.853 66.5805 121.888 66.5456 121.911 66.4991C121.946 66.4061 121.911 66.2898 121.841 66.2432C121.795 66.2084 120.818 65.3943 119.911 66.4642C119.853 66.534 119.853 66.6503 119.911 66.7317C119.969 66.8131 120.05 66.8015 120.12 66.7549C120.818 66.2898 121.69 66.5456 121.725 66.5689C121.737 66.5921 121.772 66.6038 121.806 66.5921Z" fill="#080435"/>
<path d="M120.095 68.5436C120.037 68.9972 120.258 69.3926 120.584 69.4275C120.909 69.474 121.223 69.1368 121.281 68.6832C121.34 68.2297 121.119 67.8342 120.793 67.7994C120.456 67.7645 120.153 68.1017 120.095 68.5436Z" fill="#080435"/>
<path d="M120.395 72.9844C120.395 72.9844 117.476 73.7752 114.289 73.4612C114.289 73.4612 114.754 76.4151 117.987 75.822C119.86 75.4847 120.395 72.9844 120.395 72.9844Z" fill="white"/>
<path d="M123.407 65.415C123.407 65.415 122.43 60.0654 115.662 61.647C108.882 63.2403 108.254 74.0441 106.719 73.8231C105.184 73.6138 102.218 68.5201 102.323 66.357C102.428 64.1823 103.649 58.0186 112.836 56.437C122.023 54.8671 122.233 57.6116 123.605 60.1585C124.977 62.7053 124.791 65.8802 123.407 65.415Z" fill="#92A5E6"/>
<path d="M109.445 71.0976C109.987 70.2469 109.657 69.0681 108.709 68.4647C107.76 67.8613 106.553 68.0619 106.011 68.9127C105.47 69.7634 105.8 70.9422 106.748 71.5456C107.697 72.149 108.904 71.9484 109.445 71.0976Z" fill="#B67951"/>
<path d="M123.801 60.5228C123.743 60.4996 123.684 60.4647 123.626 60.4414C122.859 60.1275 122.068 60.174 121.335 60.5577C121.3 60.581 121.254 60.6043 121.219 60.6275C120.998 60.7554 120.789 60.9183 120.591 61.1043C120.416 61.2671 120.242 61.4532 120.091 61.6625C119.916 61.8951 119.754 62.1393 119.602 62.4068C119.172 63.1976 118.87 64.1629 118.719 65.2328C118.707 65.3491 118.684 65.477 118.672 65.5933V65.6049C118.614 66.1748 118.614 66.7446 118.649 67.3028C118.672 67.5703 118.695 67.8262 118.73 68.082C119.079 70.4777 120.23 72.5128 121.812 73.1408C122.091 73.2571 122.37 73.3153 122.649 73.3385C122.859 73.3502 123.068 73.3385 123.277 73.3037C123.603 73.2455 123.917 73.1292 124.219 72.9548C125.499 72.2105 126.441 70.4893 126.72 68.3495C127.162 64.9537 125.871 61.5114 123.801 60.5228ZM126.382 67.4075V67.4191C126.371 67.7099 126.348 68.0006 126.301 68.303C126.034 70.3149 125.173 71.9314 123.998 72.6175C123.615 72.8385 123.208 72.9431 122.812 72.9431C122.521 72.9431 122.242 72.885 121.952 72.7803C120.533 72.2105 119.475 70.3614 119.137 68.1634C119.102 67.8959 119.067 67.6285 119.044 67.361C118.998 66.6865 119.021 66.0003 119.114 65.3142C119.3 63.8838 119.789 62.6627 120.475 61.837C120.754 61.4881 121.079 61.209 121.417 61.0113C121.463 60.988 121.521 60.9531 121.568 60.9299C121.812 60.8136 122.056 60.7322 122.312 60.6973C122.696 60.6508 123.08 60.6973 123.463 60.8485C123.673 60.9299 123.87 61.0462 124.068 61.1741C125.557 62.2091 126.499 64.7444 126.382 67.4075Z" fill="#764678"/>
<g opacity="0.3">
<path d="M123.372 73.0587C125.452 72.7667 126.749 69.756 126.269 66.3341C125.788 62.9122 123.713 60.3748 121.633 60.6667C119.553 60.9587 118.257 63.9693 118.737 67.3913C119.217 70.8132 121.293 73.3506 123.372 73.0587Z" fill="white"/>
</g>
<g opacity="0.3">
<path d="M113.571 75.1494C115.866 74.7776 117.282 71.7317 116.734 68.3462C116.185 64.9607 113.88 62.5176 111.585 62.8893C109.29 63.2611 107.874 66.307 108.423 69.6925C108.971 73.0781 111.276 75.5212 113.571 75.1494Z" fill="white"/>
</g>
<path d="M117.459 68.2392C117.424 67.9834 117.389 67.7275 117.331 67.4717C116.842 65.169 115.528 63.192 113.842 62.3896C113.714 62.3314 113.586 62.2733 113.458 62.2268C113.365 62.1919 113.272 62.1686 113.179 62.1337C112.132 61.8546 111.121 62.0407 110.225 62.6803C109.586 63.1455 109.062 63.8084 108.69 64.6108C108.574 64.8667 108.469 65.1341 108.376 65.4249C108.19 66.0296 108.074 66.7041 108.027 67.4019C108.016 67.6694 108.016 67.9368 108.016 68.2043C108.039 69.0184 108.178 69.8208 108.399 70.5767C108.516 70.9605 108.655 71.3326 108.818 71.6932C109.423 73.0306 110.318 74.1237 111.388 74.7401C111.702 74.9262 112.039 75.0657 112.377 75.1587C112.888 75.3099 113.4 75.3332 113.889 75.2402C114.237 75.182 114.586 75.0541 114.912 74.8796C115.028 74.8215 115.133 74.7517 115.238 74.6819C115.261 74.6587 115.296 74.647 115.319 74.6238C115.714 74.3447 116.052 73.9842 116.354 73.5655C117.028 72.6119 117.436 71.3443 117.517 69.8906C117.552 69.3207 117.529 68.7742 117.459 68.2392ZM117.11 69.8557C117.04 71.1931 116.656 72.3909 116.04 73.2864C115.97 73.3794 115.912 73.4725 115.831 73.5655C115.645 73.7981 115.447 74.0074 115.226 74.1819C115.179 74.2168 115.133 74.2516 115.086 74.2865C114.958 74.3796 114.83 74.461 114.691 74.5308C114.005 74.8796 113.249 74.961 112.493 74.7633C112.156 74.6703 111.83 74.5308 111.516 74.3447C110.539 73.7516 109.714 72.7166 109.167 71.4606C108.958 70.9721 108.783 70.4604 108.655 69.9138C108.539 69.4138 108.469 68.8905 108.446 68.3671C108.434 68.2159 108.434 68.0648 108.434 67.9136C108.434 67.7508 108.434 67.5996 108.446 67.4368C108.469 66.9018 108.551 66.3901 108.678 65.9133V65.9017C108.748 65.6109 108.841 65.3435 108.946 65.076C109.295 64.2038 109.818 63.4944 110.458 63.0292C110.853 62.7385 111.284 62.5524 111.737 62.4826C112.144 62.4128 112.574 62.4245 113.005 62.5291C113.028 62.5291 113.051 62.5408 113.074 62.5408C113.191 62.5756 113.307 62.6105 113.435 62.6571C115.133 63.3199 116.482 65.2853 116.959 67.5996C117.017 67.8554 117.052 68.1113 117.087 68.3788C117.122 68.8556 117.145 69.3556 117.11 69.8557Z" fill="#764678"/>
<path d="M119.592 68.2223C119.51 68.2456 119.417 68.2456 119.336 68.2107C119.289 68.1874 118.103 67.7455 116.557 68.5712C116.37 68.6642 116.138 68.6061 116.033 68.42C115.929 68.234 115.998 68.0014 116.184 67.9083C118.033 66.8733 119.557 67.478 119.615 67.5013C119.813 67.5827 119.906 67.8037 119.824 68.0014C119.789 68.106 119.696 68.1874 119.592 68.2223Z" fill="#764678"/>
<path d="M227.627 176.767C227.011 177.348 224.604 175.778 223.545 174.894C223.592 177.976 223.01 181.732 222.254 183.372C222.185 183.535 222.103 183.674 222.033 183.791C221.673 184.349 221.278 184.384 220.905 183.628C220.475 182.744 220.068 180.79 219.766 177.313C219.754 177.313 219.754 177.313 219.742 177.313C219.742 178.139 219.731 181.209 219.335 183.395C219.068 184.872 218.626 185.942 217.905 185.652C217.254 185.384 216.823 184.314 216.556 182.977C216.161 181.046 216.091 178.581 216.079 177.232L216.021 177.22C215.916 178.604 215.661 181.174 215.195 182.756C214.893 183.768 214.509 184.372 214.009 184.023C213.986 184.012 213.963 183.988 213.951 183.977C213.567 183.663 213.253 183.093 212.997 182.419C212.207 180.325 211.951 177.139 211.916 176.627C211.927 177.162 212.009 180.546 211.404 182.174C211.137 182.907 210.718 183.291 210.102 182.895C209.916 182.779 209.776 182.57 209.648 182.302C209.59 182.174 209.543 182.035 209.497 181.884C209.02 180.221 209.229 177.081 209.392 174.941C209.439 174.359 209.474 173.859 209.497 173.475C209.52 173.161 209.567 172.882 209.648 172.626C209.718 172.161 209.788 171.708 209.857 171.277C210.52 167.498 211.462 165.207 211.462 165.207C211.462 165.207 211.532 164.893 211.73 164.439C211.776 164.335 211.823 164.23 211.893 164.125C212.462 163.067 213.707 161.625 216.242 161.625C218.789 161.625 220.987 163.869 221.568 164.66C221.731 164.881 221.906 165.137 222.08 165.428C222.092 165.451 222.103 165.463 222.115 165.486C222.173 165.579 222.231 165.672 222.289 165.765C223.173 167.242 224.173 169.266 225.057 170.859C225.406 171.487 225.743 172.045 226.046 172.475C226.615 173.278 228.337 176.092 227.627 176.767Z" fill="#BD7F58"/>
<path d="M263.555 74.998C263.555 74.998 270.591 67.4854 282.139 79.9754C286.046 84.1969 275.428 91.8608 271.242 90.7443C267.055 89.6163 263.555 74.998 263.555 74.998Z" fill="#3B86AB"/>
<path d="M243.648 56.2077C244.403 50.1138 249.23 44.9736 257.58 45.0317C268.093 45.1015 275.605 49.9859 274.117 58.2545C272.547 66.9882 266.72 71.6865 259.266 71.6516C249.276 71.5935 242.554 65.0228 243.648 56.2077Z" fill="#331832"/>
<path d="M229.823 170.017C240.86 157.69 229.521 129.71 235.266 110.3C236.603 105.799 237.173 104.101 238.324 101.601C239.255 99.5892 236.754 95.6585 233.324 94.042C230.102 92.5185 225.544 93.3675 224.904 94.3792C223.811 96.0771 222.718 99.2055 221.148 104.195C216.031 120.487 209.344 134.606 209.344 160.574C209.344 165.97 212.17 170.704 214.891 171.378C214.891 171.366 227.323 172.808 229.823 170.017Z" fill="#366F90"/>
<path d="M259.59 189.955C248.821 190.117 238.25 189.838 227.493 189.466C226.085 179.302 225.516 173.627 224.794 165.707C224.26 159.439 223.597 149.147 223.759 143.32C234.912 145.472 243.832 147.193 257.287 149.798C259.276 186.977 258.764 178.418 259.59 189.955Z" fill="#764678"/>
<path d="M289.476 188.152C283.162 188.954 271.625 189.838 257.577 189.966C255.786 177.127 254.181 162.079 253.82 149.123C253.716 145.262 253.774 143.32 253.774 143.32L287.302 149.798C289.29 186.977 288.825 178.976 289.476 188.152Z" fill="#764678"/>
<path d="M290.624 166.515C290.554 169.062 275.134 170.085 256.05 169.48C236.966 168.887 221.72 166.247 221.789 163.7C221.859 161.153 237.21 159.653 256.294 160.246C275.366 160.839 290.682 163.956 290.624 166.515Z" fill="#331832"/>
<path d="M285.953 94.2643C285.953 94.2643 282.58 80.8904 257.681 80.7509C221.781 80.5532 225.107 113.546 221.781 163.681C221.781 163.681 257.147 158.68 290.639 165.867C290.639 165.867 293.756 114.697 285.953 94.2643Z" fill="#366F90"/>
<path d="M223.484 97.3067C223.484 97.3067 224.38 101.47 233.823 103.028C237.277 103.598 244.208 103.528 251.628 103.214C264.525 102.656 278.876 101.354 278.876 101.354L295.134 92.3525C295.134 92.3525 295.134 92.3525 295.122 92.3409C295.11 92.3293 295.099 92.3177 295.064 92.2944C294.657 91.9688 292.261 90.1313 287.9 87.9915C282.492 85.34 274.061 82.2233 262.594 80.9324C259.757 80.6184 256.849 80.5719 253.942 80.7579C252.209 80.8742 250.558 81.1301 248.941 81.3278C243.382 82.0256 238.998 83.4211 235.556 85.119C232.66 86.5378 230.427 88.1543 228.718 89.7475C224.554 93.6202 223.484 97.3067 223.484 97.3067Z" fill="#366F90"/>
<path d="M261.105 77.6921L259.221 71.6216L258.674 69.8539L255.453 59.4688L255.034 69.7957L254.778 75.9942L254.697 77.9596C254.639 79.297 253.836 79.5761 252.848 80.7274C252.453 81.1926 249.882 84.0419 252.79 85.3211C256.407 86.926 263.187 84.4954 265.757 81.3205C265.745 81.3322 261.71 79.6459 261.105 77.6921Z" fill="#BD7F58"/>
<path d="M224.797 165.748C224.797 165.748 245.474 159.666 288.294 168.016L288.619 174.179L225.855 176.401L224.797 165.748Z" fill="#764678"/>
<path d="M301.475 172.52C299.975 156.041 295.032 130.851 287.17 112.198C285.345 107.871 284.589 106.255 283.17 103.894C282.03 101.998 284.077 97.8235 287.298 95.8232C290.334 93.9508 295.044 94.2648 295.788 95.1836C297.055 96.7535 298.416 99.7656 300.521 104.557C307.848 121.187 312.337 147.76 314.116 175.45L301.475 172.52Z" fill="#BD7F58"/>
<path d="M247.188 55.6016C247.188 55.6016 246.537 58.1135 247.188 61.2651C247.839 64.4167 251.049 56.6715 251.049 56.6715L247.188 55.6016Z" fill="#331832"/>
<path d="M265.104 64.5698C265.904 58.4754 262.459 52.9974 257.409 52.3342C252.359 51.6711 247.617 56.074 246.816 62.1683C246.016 68.2627 249.461 73.7407 254.511 74.4039C259.561 75.067 264.304 70.6641 265.104 64.5698Z" fill="#BD7F58"/>
<path d="M255.465 62.9087C255.419 62.8738 255.384 62.8273 255.384 62.7691C255.372 62.6645 255.454 62.5714 255.558 62.5714C255.617 62.5714 257.012 62.3156 257.71 63.8042C257.756 63.8972 257.721 64.0135 257.628 64.06C257.535 64.1065 257.442 64.06 257.373 63.9786C256.721 63.1762 255.628 62.9552 255.582 62.9552C255.535 62.9436 255.5 62.9319 255.465 62.9087Z" fill="#080435"/>
<path d="M256.284 65.2882C256.168 65.7185 255.819 65.9976 255.505 65.9162C255.191 65.8348 255.04 65.4161 255.156 64.9858C255.273 64.5556 255.621 64.2764 255.935 64.3579C256.238 64.4393 256.401 64.8579 256.284 65.2882Z" fill="#080435"/>
<path d="M248.548 62.3371C248.502 62.3255 248.467 62.3022 248.443 62.244C248.408 62.151 248.443 62.0463 248.513 61.9882C248.56 61.9533 249.513 61.1509 250.42 62.2092C250.479 62.2789 250.479 62.3952 250.42 62.465C250.362 62.5464 250.281 62.5348 250.211 62.4883C249.525 62.0347 248.664 62.2789 248.629 62.3022C248.606 62.3371 248.571 62.3487 248.548 62.3371Z" fill="#080435"/>
<path d="M250.258 64.2587C250.316 64.7006 250.095 65.096 249.781 65.1309C249.456 65.1658 249.153 64.8401 249.095 64.3982C249.037 63.9563 249.258 63.5609 249.572 63.526C249.898 63.4911 250.2 63.8167 250.258 64.2587Z" fill="#080435"/>
<path d="M271.249 61.6796C271.249 61.6796 268.167 68.3317 263.794 68.8201C263.794 68.8201 267.329 63.7496 259.875 60.6562C259.875 60.6562 266.713 59.5863 271.249 61.6796Z" fill="#331832"/>
<path d="M265.096 65.3352C264.166 65.9283 262.968 65.7306 262.445 64.9049C261.91 64.0676 262.235 62.9046 263.177 62.3115C264.108 61.7184 265.306 61.9161 265.829 62.7418C266.352 63.5791 266.027 64.7421 265.096 65.3352Z" fill="#BD7F58"/>
<path d="M249.32 68.0234C249.32 68.0234 252.193 68.8026 255.344 68.5003C255.344 68.5003 254.879 71.4076 251.704 70.8261C249.855 70.4889 249.32 68.0234 249.32 68.0234Z" fill="white"/>
<path d="M305.031 184.515C305.043 184.189 305.043 183.84 305.043 183.48H305.066C305.078 183.689 305.113 184.038 305.148 184.468C305.206 184.445 305.276 184.422 305.334 184.399C308.857 183.119 312.137 181.561 315.114 179.77C315.056 179.421 315.009 179.119 314.974 178.863C314.928 178.549 314.858 178.281 314.765 178.037C314.556 177.095 314.335 176.235 314.102 175.456C313.881 174.711 313.66 174.037 313.463 173.455C312.858 171.734 312.37 170.78 312.37 170.78C312.37 170.78 311.3 167.268 307.322 167.582C304.787 167.78 302.775 170.199 302.252 171.025C301.996 171.432 301.729 171.943 301.449 172.525C300.426 174.665 299.298 177.653 298.391 179.165C297.891 180.003 296.391 182.933 297.146 183.561C297.798 184.096 300.077 182.34 301.066 181.375C301.147 182.747 301.368 184.247 301.67 185.62L305.031 184.515Z" fill="#BD7F58"/>
<path d="M278.875 101.357C278.875 101.357 279.224 102.043 279.84 103.287C283.794 111.312 296.133 143.258 296.947 163.621C297.226 170.738 301.459 172.541 301.459 172.541C305.867 175.239 313.926 173.378 313.926 173.378C324.695 166.284 313.17 112.568 299.11 96.1701C297.843 94.6815 296.517 93.4139 295.145 92.3673C295.145 92.3673 295.145 92.3672 295.133 92.3556C282.445 82.7497 278.875 101.357 278.875 101.357Z" fill="#366F90"/>
<path d="M221.597 163.7C219.841 148.291 226.167 108.239 226.225 107.844L226.609 107.902C226.551 108.309 220.236 148.291 221.981 163.654L221.597 163.7Z" fill="#331832"/>
<path d="M291.042 134.306C290.182 129.468 285.902 115.873 285.867 115.733L286.239 115.617C286.286 115.757 290.566 129.375 291.426 134.236L291.042 134.306Z" fill="#331832"/>
<path d="M247.984 58.1598C248.124 57.8807 250.543 54.6593 251.962 56.3456C253.38 58.0202 254.625 56.1479 257.718 56.7293C260.812 57.3108 258.695 59.8577 260.544 60.9508C262.393 62.044 267.15 60.9508 267.15 60.9508L263.917 53.1126L257.567 50.9844C257.567 50.9844 251.973 51.8217 251.427 52.0775C250.868 52.3334 249.066 53.3684 248.973 53.6243C248.868 53.8801 247.984 58.1598 247.984 58.1598Z" fill="#331832"/>
<path d="M255.333 85.8516C256.414 84.7235 262.776 74.4663 265.078 73.9197C267.381 73.3848 274.196 76.5247 274.882 78.6181C275.58 80.7114 258.066 87.9682 256.507 87.7937C254.949 87.6193 253.623 87.6076 255.333 85.8516Z" fill="#3B86AB"/>
<path d="M255.331 85.8588C255.331 85.8588 254.983 80.5558 254.703 77.9857C254.424 75.4156 253.389 75.8575 252.331 76.6367C251.261 77.4158 247.04 78.7881 246.028 80.3814C245.016 81.9746 250.61 84.6494 251.971 86.1961C253.32 87.7428 255.401 86.8706 255.331 85.8588Z" fill="#3B86AB"/>
<path d="M270.262 82.304C272.006 81.7226 273.448 80.5247 274.343 78.9199C274.495 78.6524 274.076 78.3965 273.925 78.6756C273.087 80.1758 271.762 81.2923 270.134 81.8389C269.831 81.9435 269.959 82.4087 270.262 82.304Z" fill="#331832"/>
<path d="M255.948 89.2081C256.366 93.4761 256.378 97.7558 256.425 102.047C256.425 102.466 257.076 102.466 257.076 102.047C257.029 97.7558 257.018 93.4877 256.599 89.2081C256.552 88.8011 255.901 88.7894 255.948 89.2081Z" fill="white"/>
<path d="M253.181 88.1855C252.937 89.2787 252.704 90.3719 252.635 91.4883C252.6 92.0465 252.669 92.5931 252.669 93.1513C252.681 93.7328 252.495 94.1282 252.309 94.6631C252.135 95.1283 252.1 95.5819 252.1 96.0819C252.1 96.675 252.041 97.1867 251.832 97.745C251.472 98.7102 251.658 99.6173 251.937 100.583C252.053 100.978 252.681 100.815 252.565 100.408C252.402 99.8499 252.216 99.2568 252.262 98.6637C252.297 98.1985 252.542 97.8031 252.658 97.3496C252.774 96.896 252.751 96.4192 252.751 95.954C252.751 95.3958 252.89 94.9655 253.088 94.4538C253.437 93.5467 253.251 92.6745 253.274 91.7325C253.309 90.5928 253.565 89.4648 253.809 88.3483C253.891 87.9529 253.274 87.7785 253.181 88.1855Z" fill="white"/>
<path d="M165.971 175.579C165.355 176.161 162.947 174.591 161.889 173.707C161.936 176.789 161.354 180.545 160.598 182.185C160.528 182.347 160.447 182.487 160.377 182.603C160.017 183.162 159.621 183.196 159.249 182.44C158.819 181.557 158.412 179.603 158.109 176.126C158.098 176.126 158.098 176.126 158.086 176.126C158.086 176.951 158.075 180.022 157.679 182.208C157.412 183.685 156.97 184.755 156.249 184.464C155.597 184.197 155.167 183.127 154.9 181.789C154.504 179.859 154.435 177.393 154.423 176.044L154.365 176.033C154.26 177.417 154.004 179.987 153.539 181.568C153.237 182.58 152.853 183.185 152.353 182.836C152.33 182.824 152.306 182.801 152.295 182.789C151.911 182.475 151.597 181.906 151.341 181.231C150.55 179.138 150.294 175.951 150.26 175.44C150.271 175.974 150.353 179.359 149.748 180.987C149.48 181.719 149.062 182.103 148.445 181.708C148.259 181.592 148.12 181.382 147.992 181.115C147.934 180.987 147.887 180.847 147.841 180.696C147.364 179.033 147.573 175.893 147.736 173.753C147.782 173.172 147.817 172.672 147.841 172.288C147.864 171.974 147.91 171.695 147.992 171.439C148.062 170.974 148.131 170.52 148.201 170.09C148.864 166.31 149.806 164.019 149.806 164.019C149.806 164.019 149.876 163.705 150.073 163.252C150.12 163.147 150.167 163.043 150.236 162.938C150.806 161.88 152.05 160.438 154.586 160.438C157.133 160.438 159.331 162.682 159.912 163.473C160.075 163.694 160.249 163.95 160.424 164.24C160.435 164.264 160.447 164.275 160.459 164.298C160.517 164.392 160.575 164.485 160.633 164.578C161.517 166.055 162.517 168.078 163.401 169.671C163.75 170.299 164.087 170.858 164.389 171.288C164.959 172.09 166.68 174.905 165.971 175.579Z" fill="#BD7F58"/>
<path d="M179.109 88.7253C179.109 88.7253 182.935 87.2019 183.528 85.062C184.133 82.9338 185.551 83.5851 186.365 83.0385C187.179 82.4919 184.888 76.7004 184.888 76.7004L176.969 73.8047L177.783 83.9572L179.109 88.7253Z" fill="#331832"/>
<path d="M161.771 173.58C163.26 157.124 166.69 133.609 174.54 114.979C176.355 110.664 177.11 109.036 178.529 106.687C179.669 104.791 177.622 100.628 174.401 98.6394C171.377 96.7787 166.667 97.0811 165.923 97.9998C164.655 99.5698 163.306 102.582 161.201 107.35C153.886 123.945 149.514 145.39 147.734 173.033L161.771 173.58Z" fill="#BD7F58"/>
<path d="M189.784 156.148C189.61 156.113 158.268 150.066 158.117 150.031C158.117 155.811 159.013 183.989 159.106 186.42C168.793 186.501 176.213 187.013 191.54 187.815C191.25 184.408 191.622 189.886 189.784 156.148Z" fill="#6DA49A"/>
<path d="M216.431 167.608C216.14 170.038 202.394 169.747 185.566 167.608C168.739 165.479 155.644 161.828 155.934 159.397C156.225 156.967 169.808 156.676 186.636 158.804C203.464 160.932 216.722 165.177 216.431 167.608Z" fill="#331832"/>
<path d="M218.939 189.133C208.612 188.715 193.865 187.936 183.539 187.389C172.979 147.419 180.271 175.027 177.433 164.293C177.398 164.037 177.456 163.897 177.456 163.874C178.142 161.281 189.795 162.932 190.144 162.932C198.552 163.921 208.588 166.026 212.263 167.096C213.496 167.456 214.45 168.468 214.74 169.77C215.206 171.91 214.636 169.27 218.939 189.133Z" fill="#6DA49A"/>
<path d="M215.752 101.749C215.752 101.749 206.03 87.7002 189.004 88.3166C171.978 88.9329 159.116 111.308 155.93 159.396C155.93 159.396 183.817 153.279 216.473 167.548C216.473 167.548 223.23 121.356 215.752 101.749Z" fill="#EF8062"/>
<path d="M225.435 95.6747L210.712 108.072C210.712 108.072 179.708 111.177 171.474 109.677C163.24 108.188 161.961 102.129 161.961 102.129C161.961 102.129 169.788 91.3834 184.697 88.7203C186.092 88.4644 187.511 88.4295 189.011 88.3133C191.535 88.1388 193.233 88.383 195.733 88.3598C218.887 88.1853 225.435 95.6747 225.435 95.6747Z" fill="#EF8062"/>
<path d="M195.694 88.3854C193.996 88.1993 192.531 87.141 191.856 85.5827L189.751 80.6866L189.135 79.2678L185.53 70.9062L186.158 79.5702L186.53 84.7686L186.635 86.2572C186.728 87.4666 185.879 88.5365 184.681 88.7575H184.658C184.018 89.8042 183.134 91.9207 185.774 92.758C188.879 93.7465 193.903 91.3044 195.706 88.397C195.706 88.3854 195.694 88.3854 195.694 88.3854Z" fill="#BD7F58"/>
<path d="M189.738 80.5201C189.738 80.5666 189.738 80.6131 189.726 80.6596C189.517 83.4507 186.528 84.7532 186.528 84.7532L186.505 84.7416L186.133 79.5432C187.052 79.2059 188.342 78.8687 189.11 79.2408C189.517 79.4385 189.761 79.8339 189.738 80.5201Z" fill="#A2653C"/>
<path d="M185.133 82.3145C189.629 82.3145 193.273 77.8159 193.273 72.2666C193.273 66.7173 189.629 62.2188 185.133 62.2188C180.637 62.2188 176.992 66.7173 176.992 72.2666C176.992 77.8159 180.637 82.3145 185.133 82.3145Z" fill="#BD7F58"/>
<path d="M184.343 72.3683C184.284 72.3566 184.238 72.3101 184.215 72.2636C184.18 72.1706 184.226 72.0659 184.319 72.0194C184.378 71.9961 185.622 71.3565 186.715 72.5543C186.785 72.6241 186.785 72.7404 186.703 72.8218C186.634 72.8916 186.529 72.8683 186.436 72.8102C185.587 72.2403 184.494 72.345 184.447 72.3683C184.424 72.3799 184.389 72.3799 184.343 72.3683Z" fill="#331832"/>
<path d="M186.21 74.3026C186.222 74.7445 185.978 75.1167 185.652 75.1167C185.326 75.1283 185.059 74.7794 185.047 74.3375C185.036 73.8956 185.28 73.5234 185.605 73.5234C185.931 73.5234 186.199 73.8607 186.21 74.3026Z" fill="#331832"/>
<path d="M180.931 74.6439C180.977 75.0858 180.745 75.4696 180.431 75.4928C180.117 75.5277 179.814 75.1905 179.779 74.7486C179.733 74.3066 179.965 73.9229 180.279 73.8996C180.593 73.8764 180.884 74.202 180.931 74.6439Z" fill="#331832"/>
<path d="M211.517 144.319C211.517 144.319 206.865 139.295 202.864 139.376C198.864 139.457 193.805 142.586 196.294 143.063C198.782 143.539 202.143 143.272 202.143 143.272C202.143 143.272 195.003 144.179 195.945 145.761C196.875 147.342 203.074 146.482 203.074 146.482C203.074 146.482 194.665 148.238 196.038 149.447C197.398 150.645 203.783 149.273 203.783 149.273C203.783 149.273 196.026 151.226 197.643 152.587C199.259 153.948 204.039 150.936 204.981 152.517C205.911 154.099 210.168 160.042 214.866 157.972L211.517 144.319Z" fill="#BD7F58"/>
<path d="M205.083 143.72C205.036 143.72 204.99 143.708 204.943 143.673C204.082 142.952 202.198 143.464 202.187 143.475C202.071 143.51 201.966 143.441 201.931 143.336C201.896 143.231 201.966 143.115 202.071 143.08C202.152 143.057 204.175 142.499 205.21 143.371C205.304 143.441 205.304 143.58 205.234 143.662C205.199 143.696 205.141 143.72 205.083 143.72Z" fill="#9A603A"/>
<path d="M206.614 146.989C206.579 146.989 206.545 146.977 206.51 146.965C205.009 146.14 203.16 146.686 203.149 146.686C203.044 146.733 202.928 146.663 202.893 146.547C202.858 146.442 202.916 146.314 203.032 146.291C203.114 146.268 205.056 145.686 206.719 146.593C206.824 146.651 206.859 146.779 206.8 146.872C206.754 146.954 206.684 146.989 206.614 146.989Z" fill="#9A603A"/>
<path d="M207.092 149.758C207.033 149.758 206.987 149.735 206.94 149.7C206.091 148.851 203.859 149.479 203.835 149.479C203.731 149.502 203.614 149.444 203.579 149.339C203.544 149.223 203.614 149.107 203.719 149.083C203.824 149.06 206.208 148.385 207.231 149.409C207.312 149.49 207.312 149.618 207.231 149.7C207.196 149.746 207.138 149.758 207.092 149.758Z" fill="#9A603A"/>
<path d="M225.425 95.6763C226.658 97.444 224.146 99.8397 219.006 103.561C213.865 107.283 211.621 108.597 210.388 106.829C209.156 105.061 210.621 102.049 215.738 98.2813C219.483 95.5251 224.192 93.9086 225.425 95.6763Z" fill="#331832"/>
<path d="M211.877 156.356L207.341 146.343C206.725 144.971 207.225 143.331 208.493 142.61C214.935 138.923 218.657 134.527 219.564 129.503C220.82 122.537 216.901 114.548 213.447 109.349C211.679 106.686 211.493 104.105 214.284 100.848C215.447 99.4993 216.575 98.5573 220.285 97.0106C222.076 96.2663 223.855 96.0221 224.855 97.313C226.425 99.3249 227.542 100.976 229.716 105C234.88 114.536 236.81 124.061 235.298 132.539C233.449 142.947 226.844 151.378 215.645 157.635C214.249 158.414 212.54 157.833 211.877 156.356Z" fill="#BD7F58"/>
<path d="M202.893 164.965C202.893 164.965 169.307 158.545 158.422 161.581L163.644 169.314L183.053 170.407L202.893 164.965Z" fill="#6DA49A"/>
<path d="M189.084 65.8339C182.851 67.3225 178.431 72.9046 178.234 79.3008C178.222 79.673 178.222 80.0568 178.222 80.4522C178.222 80.4522 182.432 81.3825 182.653 85.5226C182.723 86.8135 178.978 89.0231 178.722 88.9068C176.757 88.0346 171.64 83.2549 172.803 73.7885C173.966 64.3104 177.641 57.356 186.339 57.0653C195.038 56.7745 193.875 62.5776 193.875 62.5776C193.875 62.5776 192.352 65.0547 189.084 65.8339Z" fill="#331832"/>
<path d="M187.875 65.8488C187.875 65.8488 188.026 65.9419 188.259 66.1279C189.178 66.8373 191.457 68.8841 191.864 71.9427C192.376 75.7804 188.677 78.1761 189.689 81.1532C190.701 84.1304 193.387 80.7927 195.562 81.2928C197.737 81.8045 199.33 80.7811 199.481 76.4317C199.621 72.0822 198.609 61.9297 193.457 61.9297L187.875 65.8488Z" fill="#331832"/>
<path d="M193.292 73.62C194.141 72.6651 194.215 71.3442 193.457 70.6696C192.699 69.9951 191.396 70.2224 190.546 71.1773C189.697 72.1322 189.622 73.4531 190.381 74.1276C191.139 74.8021 192.442 74.5749 193.292 73.62Z" fill="#BD7F58"/>
<path d="M176.099 84.0403C175.494 77.772 177.762 71.6898 180.262 68.4335C184.17 63.3631 188.368 64.0376 188.403 64.0376L188.38 64.1539C186.949 63.898 183.449 64.4912 180.355 68.5033C177.866 71.7363 175.622 77.7836 176.215 84.017L176.099 84.0403Z" fill="#5C335D"/>
<path d="M195.676 77.8678L195.572 77.8096C197.502 73.7509 196.525 66.7267 194.897 64.6218C193.304 62.5634 190.745 63.6566 190.711 63.6798L190.664 63.5635C190.687 63.5519 193.339 62.4122 194.99 64.552C195.816 65.6103 196.479 67.9478 196.688 70.4831C196.909 73.3555 196.549 76.042 195.676 77.8678Z" fill="#331832"/>
<path d="M175.671 76.3041L175.555 76.2925C175.566 76.1762 176.287 64.4304 181.009 62.4185C184.777 60.802 188.08 62.0929 189.289 63L189.219 63.093C189.184 63.0698 185.719 60.5229 181.055 62.5232C176.404 64.5118 175.683 76.1762 175.671 76.3041Z" fill="#5C335D"/>
<path d="M182.437 78.6813C182.263 78.6813 182.111 78.6813 181.995 78.6697C181.89 78.6697 181.821 78.658 181.786 78.6697C181.716 78.6929 181.646 78.6348 181.635 78.565C181.623 78.4952 181.669 78.4255 181.739 78.4138C181.786 78.4022 181.844 78.4022 182.007 78.4138C182.681 78.4255 184.751 78.5069 186.054 77.0764C186.1 77.0183 186.182 77.0183 186.24 77.0648C186.298 77.1113 186.298 77.2044 186.251 77.2509C185.089 78.5301 183.379 78.6813 182.437 78.6813Z" fill="#331832"/>
</svg>
