<svg width="218" height="210" viewBox="0 0 218 210" fill="none" xmlns="http://www.w3.org/2000/svg">
<g filter="url(#filter0_d_1458_28472)">
<path d="M66.0258 70.1373C70.8466 30.7944 103.552 19.0282 116.49 51.6894C117.472 54.1511 119.875 55.7336 122.513 55.7336H145.62C150.162 55.7336 151.833 51.1765 150.28 46.8979C119.377 -32.374 25.5986 -4.53357 27.0639 86.314C32.925 193.28 158.939 193.28 157.474 76.0863H72.5317C68.8685 76.0863 65.6155 73.3756 66.0111 70.152L66.0258 70.1373ZM99.0094 127.415C99.0826 131.474 100.987 140.134 93.3094 139.094C87.0526 139.064 89.1626 130.844 89.0747 127.43C79.7994 123.356 83.5946 109.891 94.042 110.242C104.46 109.876 108.358 123.342 99.0094 127.415Z" fill="#00A4CE"/>
<path d="M84.8701 73.7365C84.8701 72.5312 85.7076 71.4878 86.8844 71.227L101.022 68.0931C102.627 67.7373 104.149 68.9588 104.149 70.6027V76.3967H84.8701V73.7365Z" fill="#00A4CE"/>
</g>
<rect x="2.55685" y="87.424" width="97.5462" height="136.496" rx="14.5" transform="rotate(-30 2.55685 87.424)" fill="#B4E0FF" stroke="#3E3E3E" stroke-width="3"/>
<rect x="57.9006" y="89.7365" width="103.105" height="136.496" rx="14.5" transform="rotate(-30 57.9006 89.7365)" fill="#EFF7FF" stroke="#3E3E3E" stroke-width="3"/>
<path d="M100.712 142.259C105.112 149.09 117.459 161.832 103.374 168.103C92.7586 174.606 87.667 158.407 83.9211 152.689C63.9384 155.472 56.1706 128.58 74.215 118.237C91.4533 106.702 112.235 125.536 100.712 142.259Z" fill="#3E3E3E"/>
<defs>
<filter id="filter0_d_1458_28472" x="23.0469" y="0.359375" width="138.438" height="173.945" filterUnits="userSpaceOnUse" color-interpolation-filters="sRGB">
<feFlood flood-opacity="0" result="BackgroundImageFix"/>
<feColorMatrix in="SourceAlpha" type="matrix" values="0 0 0 0 0 0 0 0 0 0 0 0 0 0 0 0 0 0 127 0" result="hardAlpha"/>
<feOffset dy="5"/>
<feGaussianBlur stdDeviation="2"/>
<feComposite in2="hardAlpha" operator="out"/>
<feColorMatrix type="matrix" values="0 0 0 0 0 0 0 0 0 0 0 0 0 0 0 0 0 0 0.25 0"/>
<feBlend mode="normal" in2="BackgroundImageFix" result="effect1_dropShadow_1458_28472"/>
<feBlend mode="normal" in="SourceGraphic" in2="effect1_dropShadow_1458_28472" result="shape"/>
</filter>
</defs>
</svg>
