<svg width="120" height="120" viewBox="0 0 120 120" fill="none" xmlns="http://www.w3.org/2000/svg">
<path d="M60 120C93.1371 120 120 93.1371 120 60C120 26.8629 93.1371 0 60 0C26.8629 0 0 26.8629 0 60C0 93.1371 26.8629 120 60 120Z" fill="#DDEFFF"/>
<path d="M59.9987 98.7084C81.3775 98.7084 98.7084 81.3775 98.7084 59.9987C98.7084 38.62 81.3775 21.2891 59.9987 21.2891C38.62 21.2891 21.2891 38.62 21.2891 59.9987C21.2891 81.3775 38.62 98.7084 59.9987 98.7084Z" fill="#71C7FF"/>
<path d="M55.8777 64.0237C60.0379 56.5034 65.9119 51.0712 73.8522 47.9609C65.9884 54.6232 59.9031 63.1349 56.1432 72.7312C55.9527 72.4312 55.7952 72.1844 55.6444 71.9369C53.3052 68.0864 50.7327 64.4219 47.2527 61.4879C46.9405 61.2607 46.7186 60.9306 46.626 60.5557C46.5334 60.1809 46.576 59.7854 46.7464 59.4389C46.9591 58.866 47.3128 58.356 47.775 57.9562C48.2371 57.5563 48.7927 57.2795 49.3902 57.1514C49.6757 57.133 49.9618 57.1775 50.2281 57.282C50.4945 57.3865 50.7346 57.5483 50.9314 57.7559C52.4314 59.4704 53.8347 61.2719 55.2619 63.0502C55.4841 63.3637 55.6896 63.6886 55.8777 64.0237Z" fill="white"/>
</svg>
